<?xml version="1.0" encoding="UTF-8"?>
<svg xmlns="http://www.w3.org/2000/svg" width="75" height="75" version="1.1" viewBox="0 0 75 75">
        <path fill="#77C1F2" d="M43.6,25.1c0,3.9-1.1,7.1-3.7,9.8-5,5.3-12.8,5-17.3-.6-3.3-4.2-4-8.9-2.2-13.9,2.1-5.6,6.9-8.7,12.4-8.1,5.2.5,9.7,5.1,10.6,10.8.1.8.1,1.5.2,2.1Z"/>
        <path fill="#77C1F2" d="M25.2,58.8c-.5,0-.9-.2-1.4-.3-1.3-.2-1.7-1.1-1-2.2.3-.4.6-.9.9-1.3.3-.5.3-.9-.1-1.3-.6-.6-1.2-1.2-1.8-1.8-.4-.4-.9-.4-1.4-.1-.4.3-.9.6-1.3.9-.5.4-.9.5-1.4.2-.5-.2-.7-.5-.7-.9,0-.5-.2-1.1-.3-1.6,0-.6-.5-.9-1.1-.9h-2.5c-.6,0-1,.3-1.1,1,0,.5-.2,1-.3,1.5-.2,1.2-1.1,1.6-2.1.9-.3-.2-.6-.4-.9-.6-.3-.2-.6-.4-1-.5-.3.1-.5.2-.6.3-.7.6-1.4,1.3-2,2-.2.2-.2.8,0,1.1.2.5.6,1,1,1.5.3.4.3.7.1,1.2-.2.6-.5.8-1.1.8-.5,0-1,.2-1.5.2-.7,0-1,.5-1,1.2,0,.8,0,1.5,0,2.2,0,.8.3,1.2,1.1,1.3.6,0,1.1.2,1.7.3.7.1,1.2,1.2.7,1.8-.4.5-.8,1.1-1.1,1.6-.3.5-.3.9,0,1.3.7.6,1.3,1.3,1.9,1.9.4.4.8.4,1.2.1.5-.3.9-.6,1.4-.9,1-.7,1.9-.3,2.2.9,0,.5.2,1.1.3,1.6.1.5.4.8.9.8.9,0,1.8,0,2.7,0,.6,0,.9-.3,1-.9,0-.6.2-1.2.3-1.8,0-.2.3-.5.5-.6.6-.4,1.1-.4,1.7.1.4.3.8.6,1.2.9.5.3.9.3,1.3-.1.6-.6,1.2-1.3,1.9-1.9.4-.4.5-.9.1-1.3-.3-.5-.7-1-1.1-1.5-.3-.4-.3-.6-.1-1.1.2-.5.5-.8,1.1-.9.5,0,1.1-.2,1.6-.3.6,0,.9-.4.9-1,0-.8,0-1.7,0-2.6,0-.6-.3-1-.9-1ZM14.3,66.6c-3.2,0-5.7-2.5-5.6-5.6,0-3,2.6-5.5,5.6-5.4,3.1,0,5.6,2.5,5.5,5.5,0,2.9-2.6,5.5-5.5,5.4Z"/>
        <path fill="#77C1F2" d="M72.6,16.3h-3.5c-1.3.2-2.3,1.2-2.3,2.4,0,5.1.1,17.2-.4,19.6-4,19.4-22.9,31.5-41.4,29.6,0-.5,0-1-.4-1.5,0,0-.1-.1-.2-.2h0c0,0,0-.1-.1-.2,0,0,0-.1-.2-.2,0,0,0,0-.1-.1,15.4-.2,30-12,31.1-28.2.1-1.6,0-13.8,0-18.8s-1-2.2-2.3-2.3h-3.6c0-.1,11.4-14.2,11.4-14.2l12,14.1Z"/>
        <path fill="#77C1F2" d="M50.9,46.3c-4.1,9.3-13.3,16.1-24.1,17.2.2-.3.3-.7.3-1.2,0-.8,0-1.7,0-2.6,0-1.2-.7-1.9-1.8-2.1-.3,0-.6,0-.8-.1-.2,0-.4,0-.6-.1-.3,0-.5-.1-.5-.1,0,0,0-.2.2-.4.3-.4.6-.9.9-1.3.6-.9.5-1.9-.3-2.7-.6-.6-1.2-1.2-1.8-1.8-.8-.8-1.8-.9-2.7-.2-.1,0-.2.2-.4.2-.3.2-.7.4-1,.7,0,0-.1,0-.1,0,0,0,0,0-.1,0-.1,0-.2,0-.1-.1,0-.4-.1-.7-.2-1.1,0-.2,0-.4-.1-.7-.2-1.1-1-1.8-2.1-1.8h-2.5c-1.2,0-2,.7-2.2,1.8,0,.2,0,.4-.1.6,0,.3-.1.6-.1.8,0,.2-.1.4-.1.4,0,0-.2,0-.4-.2h-.2c-.2-.3-.5-.5-.7-.6h-.2c0-.1,0-.1,0-.2,2.5-4.7,6.2-8.6,11.4-11.5,1.2-.7,2.1-.7,3.3.1,5.2,3.3,10.6,3.3,15.8,0,1.3-.8,2.1-.7,3.3,0,3.3,1.9,6,4.1,8.2,6.7Z"/>
</svg>