<?xml version="1.0" encoding="UTF-8"?>
<svg xmlns="http://www.w3.org/2000/svg" width="75" height="75" version="1.1" viewBox="0 0 75 75">
        <path fill="#77C1F2" d="M70.9,43.7c-.7-.3-1.4-.6-2.2-.7-.4,0-.7-.1-1.1-.2-1.1-.2-2.2-.3-3.2-.5-.6-1.3-1.3-2.7-2-4-1.1-2.3-3.2-3.6-5.7-3.6h-.1c-2.5,0-4.5,1.3-5.6,3.6-.3.6-.5,1.1-.8,1.7-.2.5-.5.9-.7,1.4-.7-.1-1.5-.2-2.2-.3-.9-2-1.9-3.9-2.9-5.8-1.4-2.7-3.8-4.3-6.8-4.3s0,0-.1,0c-3,0-5.4,1.6-6.7,4.3-.4.8-.7,1.5-1.1,2.2-.6,1.2-1.2,2.3-1.7,3.5-.7,0-1.4.2-2.1.3-.5-1-1-2.1-1.5-3.1-1.1-2.3-3.2-3.6-5.7-3.6h-.1c-2.5,0-4.5,1.3-5.6,3.6-.3.6-.5,1.1-.8,1.7-.4.7-.7,1.5-1.1,2.3-.7,0-1.4.2-2,.3-.7.1-1.4.2-2.2.3-1.1.1-2.1.5-2.9,1.1-.1-.4,0-.9,0-1.6.8-5.2,3.2-9.3,7.6-12.3,1-.6,1.7-.7,2.8,0,2.6,1.7,5.5,1.8,8.2.2.9-.5,1.6-.7,2.4-.5,1.4-1.6,3.1-3,5.2-4.2.8-.5,1.4-.5,2.3,0,3.5,2.3,7.1,2.3,10.6,0,.9-.6,1.5-.5,2.3,0,2,1.2,3.7,2.5,5.1,4.1.6,0,1.2,0,1.9.6,2.7,1.7,5.6,1.6,8.3-.2,1-.7,1.7-.6,2.7,0,4.7,3.1,7.1,7.5,7.8,13,0,.2,0,.4,0,.6Z"/>
        <path fill="#77C1F2" d="M45.5,15.7c0,2.6-.8,4.8-2.4,6.6-3.3,3.6-8.5,3.4-11.5-.4-2.2-2.8-2.6-6-1.4-9.4,1.4-3.8,4.6-5.9,8.2-5.5,3.5.4,6.5,3.5,7,7.3,0,.5,0,1,.1,1.4Z"/>
        <path fill="#77C1F2" d="M25.2,21.7c0,4.1-3.1,7.5-6.8,7.4-3.7,0-6.7-3.4-6.6-7.6,0-4.1,3-7.5,6.8-7.4,3.7,0,6.7,3.4,6.7,7.5Z"/>
        <path fill="#77C1F2" d="M49.3,21.6c0-4.1,3.1-7.5,6.8-7.4,3.7,0,6.7,3.4,6.6,7.5,0,4.1-3.1,7.5-6.8,7.4-3.7,0-6.7-3.4-6.6-7.6Z"/>
        <path fill="#77C1F2" d="M55.9,52.9c-1.7,1.7-3.5,3.3-5.1,5.1-.3.3-.5,1-.5,1.5.3,2,.7,4,1,6.1,0,.2,0,.3,0,.5,0,.3,0,.6.1,1,0,.5,0,1.1-.1,1.5-.2,1-.8,1.9-1.8,2.6-.9.6-1.8.9-2.7.9s-1.8-.3-2.7-.7c-1.9-1-3.9-2-5.8-3.1-.3-.2-.6-.3-.9-.3s-.6,0-.9.3c-2.1,1.2-4.2,2.3-6.4,3.3-.7.3-1.4.5-2.1.5-2,0-3.8-1.3-4.5-3.5-.1-.5-.2-1-.2-1.6,0,0,0,0,0,0h0c0-.4.2-.9.2-1.4.3-1.7.6-3.7,1-5.7.2-.8,0-1.4-.6-2-1.6-1.5-3.2-3.1-4.8-4.6-1.5-1.4-2-3.1-1.3-5,.6-1.9,2-3,4.1-3.2.7,0,1.4-.2,2.1-.3,1.3-.2,4.7-.7,4.7-.7.6,0,1-.3,1.3-.9,0,0,0,0,0,0,1-2.1,2.1-4.2,3.1-6.3.9-1.7,2.3-2.7,4.2-2.7,0,0,0,0,0,0,1.9,0,3.4.9,4.2,2.7,1.1,2.1,2.1,4.2,3.1,6.3,0,0,0,0,0,0,.3.6.6.8,1.3.9,0,0,3.6.5,4.9.7.7.1,1.4.2,2.1.3,1.9.3,3.3,1.3,3.9,3.2.6,1.8.2,3.5-1.2,4.9Z"/>
        <path fill="#77C1F2" d="M70.3,51.7c-1.3,1.3-2.6,2.5-3.8,3.8-.2.2-.4.7-.4,1.1.2,1.6.5,3.2.8,4.9.3,1.5,0,2.8-1.3,3.8-.7.5-1.3.7-2,.7s-1.3-.2-2-.6c-1.4-.8-2.9-1.5-4.3-2.3-.3-.1-.5-.2-.7-.2s-.4,0-.7.2c-.7.4-1.4.7-2,1.1-.3-1.5-.5-3.1-.8-4.6.9-.9,1.7-1.7,2.6-2.6.7-.7,1.4-1.4,2.1-2.1,2.1-2.1,2.8-4.9,1.8-7.8-.3-.8-.6-1.5-1-2.1-.7-.9-1.5-1.7-2.5-2.2-.3-.2-.7-.3-1-.4-.5-.2-1-.3-1.5-.4-.4,0-.8-.1-1.2-.2.4-.8.8-1.5,1.1-2.3.6-1.3,1.7-2,3.1-2h0c1.4,0,2.5.7,3.1,2,.8,1.6,1.6,3.1,2.3,4.7.2.4.4.6.9.7.3,0,.6,0,.9.1,1.4.2,2.9.4,4.3.6,1.4.2,2.4,1,2.9,2.4.5,1.4.2,2.6-.9,3.6Z"/>
        <path fill="#77C1F2" d="M18.8,56.6c1,1,2,2,3,2.9-.3,1.6-.6,3.1-.8,4.5-.6-.3-1.3-.7-1.9-1-.3-.1-.5-.2-.7-.2s-.4,0-.7.2c-1.6.9-3.1,1.7-4.7,2.5-.5.2-1,.4-1.5.4-1.8,0-3.5-1.5-3.5-3.8h0c.3-1.5.6-3.4.9-5.2.1-.6,0-1.1-.5-1.5-1.2-1.1-2.4-2.3-3.6-3.4-1.1-1-1.5-2.3-1-3.7.5-1.4,1.5-2.2,3-2.4,1.4-.2,2.8-.4,4.2-.6.3,0,.6,0,.9-.1.5,0,.7-.2.9-.7.8-1.6,1.6-3.1,2.3-4.7.6-1.3,1.7-2,3.1-2h0c.7,0,1.2.1,1.7.4,0,0,.1,0,.2.1.5.3.9.8,1.2,1.4.4.8.8,1.5,1.1,2.3-.4,0-.8.1-1.1.2-.6,0-1.2.2-1.7.4-.6.2-1.1.5-1.6.8-.8.5-1.4,1.1-2,1.9-.4.6-.8,1.3-1,2.1-1,2.9-.2,5.7,2.1,7.9.5.5,1,1,1.5,1.5Z"/>
</svg>