<?xml version="1.0" encoding="UTF-8"?>
<svg xmlns="http://www.w3.org/2000/svg" width="75" height="75" version="1.1" viewBox="0 0 75 75">
        <path fill="#77C1F2" d="M37.4,71.6c-5.1,0-10.2,0-15.2,0-2.5,0-3.2-.7-2.9-3.1,1-6.8,4.2-12.3,10.3-15.8.8-.5,1.5-.5,2.3,0,3.6,2.3,7.4,2.3,11,0,.9-.6,1.5-.5,2.3,0,6.3,3.6,9.5,9.3,10.4,16.3.2,1.8-.6,2.6-2.5,2.6-5.2,0-10.5,0-15.7,0Z"/>
        <path fill="#77C1F2" d="M25.8,52.5c-3.4,2.8-5.8,6.1-7.3,10.2-.3.7-.5,1.4-.7,2.1-.7,2.5-.7,2.5-3.4,2.5-3.1,0-6.3,0-9.4,0-2.1,0-2.7-.7-2.4-2.8.8-5.3,3.3-9.6,7.9-12.7,1-.7,1.8-.8,2.9,0,2.7,1.8,5.7,1.9,8.4.2,1.5-.9,2.6-.9,4,.5Z"/>
        <path fill="#77C1F2" d="M49,52.5c1.3-1.2,2.3-1.6,3.9-.6,2.8,1.8,5.8,1.6,8.6-.2,1-.7,1.8-.6,2.8,0,4.9,3.2,7.3,7.8,8.1,13.4.2,1.2-.5,2.1-1.7,2.1-4,0-8.1,0-12.1,0-.3,0-.9-.6-1-.9-1.3-5.5-3.9-10.1-8.5-13.8Z"/>
        <path fill="#77C1F2" d="M45.6,42.6c0,2.7-.8,5-2.5,6.8-3.4,3.7-8.8,3.5-11.9-.5-2.3-2.9-2.7-6.2-1.5-9.6,1.4-3.9,4.8-6,8.5-5.7,3.6.4,6.7,3.6,7.3,7.5,0,.5.1,1.1.1,1.4Z"/>
        <path fill="#77C1F2" d="M24.7,43.2c0,4.2-3.2,7.7-7,7.7-3.8,0-6.9-3.5-6.9-7.8,0-4.3,3.1-7.7,7-7.7,3.8,0,6.9,3.5,6.9,7.8Z"/>
        <path fill="#77C1F2" d="M50.1,43.1c0-4.3,3.2-7.7,7-7.6,3.8,0,6.9,3.5,6.8,7.8,0,4.3-3.2,7.7-7,7.7-3.8,0-6.9-3.5-6.9-7.8Z"/>
        <path fill="#77C1F2" d="M72.4,6.4c0-1.6-1.4-2.9-3-2.9-18.5-.1-20.2-.1-27.1-.1-.9,0-1.6.7-1.6,1.6,0,1.6.2,13.3.3,18.4s1.1,2.3,2.4,2.3h1.7s-.1,7.8,0,8.2c0,0,.1,0,.2,0,3.5-2.6,6.8-5.5,10.2-8.2,1.1-.3,12.2-.3,15.9-.3.7,0,1.2-.5,1.2-1.2,0-3.2,0-11.7-.2-17.8ZM67.6,14.4h-22v-2h22v2ZM67.6,9.4h-22v-2h22v2Z"/>
</svg>