<?xml version="1.0" encoding="UTF-8"?>
<svg xmlns="http://www.w3.org/2000/svg" viewBox="0 0 191.97 194.32">
  <path fill="#77C1F2" d="M185.95,80.76c-4.99-1.18-9.96-2.62-15.01-3.44-3.92-.63-6.23-2.31-7.01-6.26-.26-1.24-.32-2.05.5-3.06,4.03-5.01,7.99-10.06,11.95-15.13,2.59-3.3,2.55-6.21-.14-9.5-4.15-5.08-8.33-10.15-12.5-15.22-2.7-3.27-5.54-3.89-9.28-2.04-4.8,2.38-9.71,4.54-14.31,7.26-3.21,1.92-5.78,2.11-8.78-.27-1.28-1-1.87-1.84-1.9-3.42-.12-6.27-.35-12.55-.53-18.82-.12-3.83-2.01-6.17-5.73-6.89-6.65-1.3-13.32-2.55-19.99-3.76-4.1-.75-6.65.68-8.34,4.57-1.81,4.18-4,8.27-5.29,12.61-1.4,4.75-4.18,6.89-8.94,6.65-.94-.05-2.11-.36-2.7-1.01-4.12-4.43-8.12-9.02-12.16-13.53-2.84-3.15-5.72-3.65-9.37-1.61-5.73,3.21-11.43,6.44-17.15,9.68-3.88,2.2-4.9,4.81-3.62,9.14,1.61,5.42,3.29,10.78,4.8,16.22.21.77-.11,1.93-.6,2.58-1.28,1.7-2.88,3.17-4.22,4.83-.77.98-1.54,1.16-2.75.98-5.57-.87-11.15-1.61-16.73-2.41-3.89-.56-6.53.92-7.92,4.56-2.38,6.26-4.74,12.55-7.06,18.82-1.48,3.97-.56,6.68,2.97,9.02,4.39,2.93,8.84,5.76,13.2,8.76.63.44,1.13,1.52,1.18,2.34.11,2.56.06,5.14-.17,7.71-.08.87-.66,2.02-1.37,2.49-4.36,2.85-8.82,5.54-13.24,8.28-3.51,2.19-4.51,5.04-3.12,8.97,2.17,6.2,4.36,12.38,6.56,18.57,1.46,4.13,4.01,5.63,8.42,5.07,4.96-.62,9.93-1.22,14.89-1.7.75-.08,1.79.35,2.29.91,1.96,2.17,3.82,4.45,5.55,6.79.44.6.6,1.72.38,2.44-1.49,4.83-3.14,9.62-4.71,14.44-1.3,3.98-.27,6.8,3.3,8.91,5.64,3.36,11.3,6.7,16.95,10.03,3.73,2.19,6.64,1.78,9.59-1.33,3.57-3.77,7.1-7.62,10.77-11.33.56-.56,1.7-.87,2.52-.78,2.55.29,5.05.95,7.6,1.22,1.28.14,1.86.65,2.29,1.78,1.84,4.78,3.76,9.55,5.67,14.31,1.72,4.31,4.07,5.7,8.7,4.96,6.55-1.06,13.09-2.17,19.62-3.29,3.7-.65,5.63-2.75,5.9-6.52.35-4.92.75-9.83.83-14.75.05-3.02.83-5.14,3.86-6.2,1.12-.38,2.17-1.12,3.09-1.89,1.15-.94,2.08-.75,3.29-.09,4.99,2.76,10.02,5.45,15.07,8.1,3.39,1.79,6.38,1.25,8.84-1.6,4.53-5.23,9.07-10.47,13.47-15.82.98-1.19,1.39-2.85,2.16-4.5-.83-1.67-1.4-3.29-2.35-4.63-2.72-3.85-5.4-7.77-8.48-11.31-2.67-3.06-3.71-6-1.45-9.64.18-.3.14-.77.36-1,.62-.65,1.25-1.57,2.02-1.75,5.99-1.36,12.01-2.55,18.01-3.82,4.36-.92,6.15-3.17,6.18-7.63.05-6.43.09-12.85.15-19.28.05-4.51-1.67-6.73-6.02-7.77ZM96.36,156.07c-33.4-.05-60.05-26.46-60.02-59.45.03-32.82,26.56-59.46,59.29-59.52,32.58-.08,59.51,26.49,59.58,58.8.09,33.15-26.4,60.23-58.86,60.17Z"/>
  <path fill="#77C1F2" d="M96.37,43.25c-30.06-.06-54.19,23.86-54.26,53.79-.04,29.8,23.92,53.95,53.58,54.02,30,.07,54.14-23.95,54.17-53.9.01-29.65-23.99-53.84-53.49-53.92ZM117.18,127.88c-3.38,4.02-7.76,6.44-12.81,7.67-1.13.28-2.28.49-3.43.65-.5.07-.66.26-.64.75.04.57.01,1.16.02,1.75.05,2.39-1.76,4.4-4.08,4.5-2.35.11-4.37-1.67-4.56-4.04-.06-.94-.01-1.88-.01-2.86-1.22-.24-2.38-.45-3.53-.71-4.91-1.13-9.33-3.17-12.7-7.08-2.63-3.07-4.81-6.38-5.26-10.54-.3-2.69,1.1-5.24,3.53-6.52,2.35-1.25,5.75-.98,7.6.69.6.54,1.1,1.27,1.45,1.99,1.03,2.02,1.88,4.13,2.96,6.13,1.17,2.16,2.97,3.69,5.24,4.67.19.09.4.13.7.21v-.98c0-6.71-.01-13.41.03-20.12.01-.96-.29-1.32-1.16-1.63-3.29-1.16-6.51-2.54-9.36-4.61-3.69-2.65-6.83-5.82-8-10.38-1.51-5.82-1.56-11.65,1.28-17.09,3.45-6.61,9.09-10.52,16.37-12.03.71-.15.92-.4.85-1.07-.05-.55-.01-1.11-.02-1.66-.03-2.34,1.78-4.32,4.07-4.44,2.31-.12,4.36,1.63,4.56,3.95.09.99.01,1.99.01,3.08,3.28.55,6.24,1.59,8.97,3.24,4.66,2.79,8.17,6.59,10.06,11.76.63,1.72,1.11,3.49.66,5.35-1.23,5.23-7.16,6.43-10.66,4.08-1.03-.69-1.67-1.7-2.04-2.85-.47-1.45-.86-2.92-1.32-4.37-.79-2.6-2.46-4.48-4.76-5.84-.24-.14-.49-.24-.83-.4-.02.35-.04.62-.04.87-.01,7.01,0,14.02-.03,21.04,0,.68.23.96.86,1.15,2.31.68,4.62,1.36,6.91,2.13,3.59,1.2,6.6,3.34,9.16,6.11,2.76,3,4.08,6.61,4.45,10.61.59,6.16-.35,11.95-4.49,16.86ZM100.37,105.68v19.93c3.05-1.02,5.74-2.62,7.02-5.51,3.07-6.86.1-12.08-7.02-14.42ZM85.68,79.53c.12,3.99,3.34,8.17,5.93,9.14v-19.07c-3.53,1.26-6.07,5.56-5.93,9.93Z"/>
</svg>