<?xml version="1.0" encoding="UTF-8"?>
<svg xmlns="http://www.w3.org/2000/svg" viewBox="0 0 198.73 179.16">
  <path fill="#77C1F2" d="M58.48,164.09c1.02-6,2.17-13.31,3.55-20.58.47-2.45.15-4.2-1.78-5.98-4.77-4.38-9.32-9.01-13.98-13.53-4.24-4.11-5.73-9.02-3.88-14.63,1.85-5.6,5.96-8.63,11.83-9.42,6.62-.9,13.22-2.04,19.85-2.87,1.88-.24,2.9-.94,3.71-2.61,2.97-6.21,6.1-12.36,9.14-18.54,2.51-5.1,6.63-7.82,12.25-7.91,5.78-.09,10.02,2.66,12.61,7.84,3.09,6.16,6.18,12.32,9.14,18.54.8,1.67,1.76,2.45,3.65,2.69,6.83.86,13.64,1.94,20.46,2.96,5.59.83,9.51,3.88,11.29,9.24,1.77,5.33.64,10.19-3.36,14.2-4.95,4.95-10.08,9.72-14.94,14.75-.95.98-1.58,2.9-1.39,4.25.9,6.41,2.09,12.78,3.26,19.15,1.1,5.97-.15,11.14-5.22,14.8-5.01,3.62-10.3,3.47-15.68.54-5.6-3.05-11.33-5.86-16.9-8.97-1.92-1.07-3.39-1.14-5.36-.06-6.12,3.39-12.28,6.71-18.58,9.75-9.26,4.48-19.64-2.1-19.68-13.62ZM150.71,114.05c-.59-4.02-2.87-6.58-6.83-7.19-8.03-1.23-16.05-2.47-24.1-3.52-1.81-.24-2.65-1.02-3.38-2.53-3.36-6.94-6.87-13.8-10.2-20.76-1.45-3.03-3.46-5.21-6.97-5.16-3.37.04-5.3,2.2-6.7,5.1-3.34,6.94-6.86,13.81-10.19,20.76-.73,1.53-1.5,2.33-3.33,2.57-7.74,1.01-15.45,2.33-23.19,3.35-3.24.43-5.82,1.63-6.88,4.81-1.06,3.17.19,5.75,2.56,8.01,5.58,5.32,11.01,10.8,16.63,16.09,1.47,1.38,1.84,2.74,1.5,4.63-1.37,7.58-2.62,15.19-4,22.77-.58,3.2-.15,5.98,2.64,7.96,2.66,1.89,5.34,1.49,8.11-.01,6.78-3.67,13.66-7.15,20.43-10.83,1.81-.99,3.21-1.05,5.07-.03,6.75,3.71,13.64,7.18,20.43,10.84,2.88,1.55,5.66,1.95,8.37-.11,2.71-2.06,2.99-4.89,2.41-8.06-1.39-7.58-2.76-15.16-3.87-22.79-.2-1.33.48-3.24,1.44-4.22,5.46-5.59,11.2-10.91,16.68-16.48,1.42-1.44,2.27-3.45,3.39-5.2Z"/>
  <path fill="#77C1F2" d="M125.59,44.72c4.42.91,7.22,3.67,8.43,8.05,2.08,7.53,4.26,15.03,6.21,22.59.3,1.16-.11,2.71-.66,3.84-1.58,3.22-3.32,6.37-5.16,9.45-.6,1.01-1.89,2.57-2.51,2.42-2.1-.5-4.81.58-6.16-2.38-2.43-5.33-5.14-10.53-7.78-15.76-3.82-7.58-10-11.67-18.47-11.74-8.49-.07-14.72,4.03-18.62,11.51-2.61,5.01-5.23,10.05-7.4,15.26-1.4,3.37-4.24,2.9-6.67,3.09-.84.07-2-1.84-2.72-3.02-1.88-3.06-3.66-6.18-5.33-9.36-.46-.89-.73-2.16-.48-3.09,2.07-7.74,4.27-15.45,6.47-23.16,1.1-3.86,3.54-6.54,7.48-7.46,4.5-1.05,47.17-1.53,53.38-.26Z"/>
  <path fill="#77C1F2" d="M140.78,92.17c2.78-9.35,7.65-13.84,14.96-13.82,5.42.02,9.48,2.47,12.06,7.19,1.82,3.33,3.28,6.87,5.17,10.16.6,1.05,1.97,2.06,3.15,2.32,3.31.72,6.7,1.02,10.06,1.5,5.68.81,9.78,3.73,11.69,9.2,1.96,5.6.52,10.52-3.63,14.67-2.47,2.47-5.14,4.77-7.43,7.39-.84.96-1.3,2.69-1.18,3.99.33,3.47,1.05,6.9,1.65,10.34.96,5.5-.86,10-5.16,13.36-4.46,3.48-9.46,3.75-14.53,1.38-2.97-1.39-5.91-2.92-8.71-4.62-2.17-1.32-4.02-1.51-6.2-.04-1.85,1.25-3.95,2.12-6.26,3.32-.45-2.22-.9-4.09-1.17-5.98-.07-.46.4-1.04.72-1.5.16-.23.53-.3.79-.46q8.57-5.05,17.29-.35c2.17,1.17,4.35,2.34,6.55,3.43,2.52,1.25,5,1.08,7.26-.61,2.17-1.62,3.03-3.87,2.62-6.52-.72-4.67-1.41-9.35-2.38-13.97-.42-2,.05-3.24,1.49-4.57,3.25-2.99,6.34-6.17,9.53-9.23,2.17-2.09,3.25-4.5,2.32-7.49-.97-3.13-3.35-4.52-6.43-4.96-4.37-.62-8.73-1.41-13.13-1.83-2.06-.2-3.04-1.11-3.86-2.87-1.94-4.19-4.05-8.31-6.12-12.45-1.26-2.51-3.32-3.89-6.15-3.92-2.86-.03-4.84,1.42-6.2,3.85q-2.73,4.88-8.76,3.08Z"/>
  <path fill="#77C1F2" d="M58.48,92.34c-1.03.18-1.42.27-1.83.33q-5.02.7-7.57-3.79c-1.32-2.32-3.32-3.65-6.01-3.65-2.81,0-4.93,1.31-6.2,3.83-2.17,4.31-4.18,8.71-6.5,12.95-.57,1.04-1.96,2.06-3.13,2.29-4.44.85-8.93,1.39-13.41,2-3.1.42-5.47,1.78-6.5,4.88-.99,2.99.09,5.42,2.24,7.51,3.31,3.23,6.72,6.38,9.87,9.75.81.87,1.3,2.52,1.15,3.71-.57,4.58-1.44,9.13-2.24,13.68-.52,2.99.15,5.54,2.71,7.34,2.56,1.8,5.18,1.53,7.85.1,4.07-2.19,8.14-4.4,12.31-6.38,1-.47,2.5-.34,3.63,0,1.45.43,2.75,1.36,4.12,2.06,5.48,2.81,5.59,3.12,3.08,9.38-2.38-1.23-4.66-2.62-7.12-3.58-1.14-.45-2.78-.45-3.89.04-3.37,1.5-6.55,3.44-9.88,5.04-5.08,2.43-10.06,2.06-14.54-1.35-4.37-3.32-6.07-7.89-5.17-13.35.57-3.45,1.03-6.92,1.79-10.32.42-1.87-.04-3.06-1.41-4.3-2.59-2.34-5.06-4.82-7.52-7.31-4.04-4.1-5.36-8.97-3.46-14.44,1.9-5.46,5.97-8.44,11.65-9.25,3.26-.46,6.56-.72,9.75-1.47,1.35-.32,2.89-1.41,3.6-2.59,1.9-3.16,3.31-6.61,5.07-9.87,2.63-4.86,6.79-7.32,12.34-7.23,5.41.09,9.4,2.63,11.96,7.36,1.11,2.05,2.06,4.18,3.26,6.62Z"/>
  <path fill="#77C1F2" d="M118.04,18.62c.12,10.43-8.19,18.9-18.63,18.99-10.35.09-18.78-8.34-18.83-18.83C80.52,8.49,88.8.08,99.07,0c10.5-.08,18.84,8.11,18.97,18.62Z"/>
  <path fill="#77C1F2" d="M55.26,60.08c-1.33,4.76-2.45,8.77-3.54,12.67-3.05-.44-5.86-1.16-8.67-1.18-8.66-.04-15.33,3.99-18.56,11.86-2.59,6.3-6.11,8.13-13.05,9.43-2.32.43-4.73,1.17-7.33,1.87,0-.33-.08-.7.01-1.02,2.38-8.61,4.72-17.23,7.2-25.81.95-3.29,3.19-5.49,6.64-6.18,5.21-1.04,34.54-1.65,37.31-1.65Z"/>
  <path fill="#77C1F2" d="M147.02,73.18c-1.19-4.28-2.3-8.29-3.64-13.14,1.86,0,3.41-.18,4.84-.08.33.02,28.14.34,33.14,1.59,4,1,5.21,4.08,5.79,5.94,2.72,8.72,5.04,17.55,7.49,26.35.07.26-.04.57-.03.5-4.66-.83-9.3-1.52-13.86-2.56-1.27-.29-2.64-1.4-3.36-2.52-1.39-2.14-2.27-4.6-3.51-6.84-5.03-9.12-14.76-13.01-24.69-9.95-.58.18-1.17.37-2.18.69Z"/>
  <path fill="#77C1F2" d="M158.79,55.69c-8.6.02-15.54-6.82-15.59-15.36-.06-8.75,6.82-15.68,15.57-15.69,8.64-.01,15.47,6.74,15.52,15.36.06,8.84-6.69,15.67-15.5,15.7Z"/>
  <path fill="#77C1F2" d="M40.12,24.63c8.62.07,15.43,6.93,15.42,15.52-.01,8.73-6.96,15.61-15.72,15.54-8.61-.06-15.4-6.92-15.37-15.53.02-8.82,6.87-15.6,15.68-15.53Z"/>
</svg>