<?xml version="1.0" encoding="UTF-8"?>
<svg xmlns="http://www.w3.org/2000/svg" viewBox="0 0 201.22 206">
  <path fill="#77C1F2" d="M100.15,104.36c-11.89.07-21.46-9.35-21.43-21.09.03-11.49,9.39-21,20.85-21.17,11.81-.18,21.52,9.15,21.75,20.89.23,11.69-9.29,21.3-21.17,21.37ZM100.18,95.41c6.68-.12,12.07-5.85,11.84-12.58-.23-6.52-5.59-11.58-12.19-11.5-6.79.09-12.13,5.7-11.85,12.45.27,6.47,5.81,11.75,12.2,11.63Z"/>
  <path fill="#77C1F2" d="M100.85,106.2c16.77.42,30.64,13.05,32.49,29.63.37,3.31.53,7.03-3.66,7.67-4.71.72-5.18-3.01-5.61-6.65-1.46-12.47-11.69-21.62-24-21.66-12.24-.05-22.69,9.18-24.13,21.54-.42,3.62-.78,7.45-5.46,6.77-4.54-.65-4.21-4.61-3.71-8.13,2.49-17.41,16.73-29.61,34.07-29.18Z"/>
  <path fill="#77C1F2" d="M100.84,49.2s.04,0,.06,0c.1,0,.2-.02.3-.03.1-.01.19,0,.29-.02.14-.01.27-.02.4-.05.17-.03.32-.08.48-.13.18-.05.35-.09.53-.16.17-.07.32-.15.48-.24.15-.08.31-.15.45-.25.17-.11.32-.24.48-.37.1-.08.21-.15.31-.24l19.48-18.4c1.52-1.43,2.18-3.64,1.45-5.59-1.49-4.02-6.17-4.83-8.89-2.26l-10.34,9.77V5.38c0-2.09-1.15-4.08-3.07-4.89-3.95-1.68-7.74,1.18-7.74,4.92v25.14l-9.37-9.92c-1.51-1.6-3.87-2.2-5.89-1.34-2.28.98-3.43,3.02-3.43,5.06,0,1.33.49,2.67,1.48,3.71l18.38,19.46c1.13,1.19,2.66,1.74,4.18,1.67Z"/>
  <path fill="#77C1F2" d="M100.96,156.8s-.04,0-.06,0c-.1,0-.2.02-.3.03-.1.01-.19,0-.29.02-.14.01-.27.02-.4.05-.17.03-.32.08-.48.13-.18.05-.35.09-.53.16-.17.07-.32.15-.48.24-.15.08-.31.15-.45.25-.17.11-.32.24-.48.37-.1.08-.21.15-.31.24l-19.48,18.4c-1.52,1.43-2.18,3.64-1.45,5.59,1.49,4.02,6.17,4.83,8.89,2.26l10.34-9.77v25.87c0,2.09,1.15,4.08,3.07,4.89,3.95,1.68,7.74-1.18,7.74-4.92v-25.14s9.37,9.92,9.37,9.92c1.51,1.6,3.87,2.2,5.89,1.34,2.28-.98,3.43-3.02,3.43-5.06,0-1.33-.49-2.67-1.48-3.71l-18.38-19.46c-1.13-1.19-2.66-1.74-4.18-1.67Z"/>
  <path fill="#77C1F2" d="M152.6,104.66s0,.04,0,.06c0,.1.02.19.03.29.01.09,0,.19.02.28.01.13.02.27.05.4.03.16.08.32.13.48.05.17.09.35.16.52.07.17.15.32.23.47.08.15.15.3.24.45.11.17.24.32.36.47.08.1.14.21.23.3l18.17,19.24c2.03,2.14,5.41,2.24,7.55.22,2.15-2.03,2.24-5.41.22-7.55l-9.66-10.22h25.55c2.95,0,5.34-2.39,5.34-5.34s-2.39-5.34-5.34-5.34h-24.85l9.79-9.25c2.15-2.03,2.24-5.41.22-7.55-1.05-1.11-2.47-1.67-3.89-1.67-1.32,0-2.64.48-3.67,1.46l-19.24,18.17c-1.18,1.11-1.72,2.63-1.65,4.13Z"/>
  <path fill="#77C1F2" d="M48.63,105.54s0-.04,0-.06c0-.1-.02-.19-.03-.29-.01-.09,0-.19-.02-.28-.01-.13-.02-.27-.05-.4-.03-.16-.08-.32-.13-.48-.05-.17-.09-.35-.16-.52-.07-.17-.15-.32-.23-.47-.08-.15-.15-.3-.24-.45-.11-.17-.24-.32-.36-.47-.08-.1-.14-.21-.23-.3l-18.17-19.24c-2.03-2.14-5.41-2.24-7.55-.22-2.15,2.03-2.24,5.41-.22,7.55l9.66,10.23H5.34c-2.95,0-5.34,2.39-5.34,5.34s2.39,5.34,5.34,5.34h24.85s-9.79,9.25-9.79,9.25c-2.15,2.03-2.24,5.41-.22,7.55,1.05,1.11,2.47,1.67,3.89,1.67,1.32,0,2.64-.48,3.67-1.46l19.24-18.17c1.18-1.11,1.72-2.63,1.65-4.13Z"/>
</svg>