<?xml version="1.0" encoding="UTF-8"?>
<svg xmlns="http://www.w3.org/2000/svg" viewBox="0 0 205.92 205.61">
  <path fill="#77C1F2" d="M205.9,101.82c-.6,7.33-1.4,14.64-2.18,21.95-.43,3.98-2.71,6.26-6.75,6.75-6.02.73-12.04,1.42-18.07,2.03-1.45.15-2.38.56-2.81,2.07-.34,1.23-.81,2.5-1.56,3.52-2,2.75-1.41,5.09.37,7.75,2.91,4.34,5.53,8.88,8.2,13.38,2.04,3.45,1.64,6.46-1.2,9.25-5.03,4.94-10.07,9.86-15.16,14.74-3.59,3.45-6.48,3.66-10.59.94-4.55-3.01-9.11-6.01-13.62-9.07-1.06-.72-1.87-.83-3.07-.17-2.39,1.3-4.97,2.24-7.37,3.53-.77.41-1.59,1.38-1.73,2.21-.95,5.45-1.72,10.94-2.56,16.41-.69,4.49-3,6.61-7.58,6.95-6.96.51-13.91,1.02-20.86,1.51-4.4.3-7.01-1.54-8.28-5.79-1.53-5.16-3-10.34-4.62-15.46-.25-.77-1.06-1.65-1.8-1.9-2.94-1-5.93-1.86-8.95-2.58-.78-.19-1.95.08-2.56.59-4.04,3.43-8,6.96-11.96,10.5-3.52,3.15-6.64,3.39-10.43.67-5.66-4.07-11.31-8.15-16.95-12.24-3.6-2.61-4.45-5.69-2.7-9.73,2.19-5.08,4.47-10.12,6.56-15.24.34-.84.15-2.2-.31-3.02-1.35-2.36-2.88-4.64-4.52-6.81-.52-.69-1.62-1.34-2.45-1.34-5.6,0-11.21.22-16.82.34-4.49.09-6.93-1.73-8.05-6.08-1.76-6.9-3.5-13.8-5.21-20.72-1-4.01.42-6.91,4.15-8.77,5.36-2.67,10.68-5.41,16.07-8.01,1.17-.57,19.43-3.18,19.43-3.18-1.47,14.45,2.1,27.77,11.01,40.67,19.92,28.83,59.17,35.76,88.36,15.62,28.38-19.59,35.14-59.25,15.01-88.15-3.88-5.56-8.53-10.3-13.73-14.16,0,0,.04-.03.13-.1-6.74-4.65-14.57-8.13-22.97-10.44-6.54-1.8-11.34-2.79-17.81-2.44,0,0,1.64-15.39,3.27-18.95,2.27-4.94,5.17-9.6,7.81-14.38,2.29-4.15,5.05-5.27,9.66-3.95,6.55,1.89,13.12,3.77,19.68,5.65,4.55,1.31,6.34,3.79,6.04,8.51-.41,6.5-.9,13-1.22,19.51-.04.84.73,1.75,1.21,2.57.17.29.66.38.91.65,2.36,2.56,4.85,3.55,7.64,2.8v.08c.76-.48,1.4-.85,1.88-1.08,4.9-2.36,10.11-4.08,15.19-6.07,4.41-1.73,7.26-.83,9.95,3.14,3.84,5.64,7.68,11.28,11.52,16.92,2.67,3.92,2.46,6.96-.79,10.4-4.47,4.74-9,9.43-13.4,14.23-.57.62-.56,1.8-.72,2.75-.06.33.27.71.29,1.08.22,4.55,2.91,6.48,7.1,7.55,4.83,1.23,9.53,3.03,14.23,4.74,1.65.6,3.12,1.67,4.87,2.64.32,1.89.96,3.59.82,5.23Z"/>
  <path fill="#77C1F2" d="M144.98,143.28c-22.6,23.4-59.56,24.03-82.99,1.42-23.27-22.46-23.79-59.55-1.18-82.93,22.36-23.12,59.47-23.72,82.64-1.33,23.33,22.53,24.01,59.57,1.53,82.85ZM138.55,137.06c18.98-19.68,18.39-51.19-1.31-70.18-19.69-18.99-51.16-18.41-70.17,1.29-19.04,19.73-18.46,51.27,1.29,70.25,19.74,18.97,51.18,18.36,70.19-1.36Z"/>
  <path fill="#77C1F2" d="M45.87,61.31c-2.91,1.95-4.68,1.79-7.07-.5-1.89-1.82-3.79-3.63-5.68-5.46-2.13-2.06-2.18-4.62-.13-6.77,4.01-4.19,8.03-8.38,12.05-12.55,2.05-2.13,4.62-2.17,6.77-.11,1.85,1.77,3.69,3.54,5.54,5.32,2.51,2.41,2.74,4.05.94,7.14l3.66,3.52c-4.83,3.7-8.93,7.95-12.42,12.94l-3.67-3.52Z"/>
  <path fill="#77C1F2" d="M44.96,74.8c-2.75,5.07-4.01,10.64-5.28,16.23-3-1.14-7.14-2.22-10.03-3.41-2.02-.84-2.99-3.09-2.26-5.15.99-2.79,2.04-5.56,3.15-8.3.86-2.12,3.12-3.09,5.28-2.31,2.84,1.03,6.16,1.83,9.12,2.95Z"/>
  <path fill="#77C1F2" d="M88.96,39.48c-5.65,1.43-10.94,3.59-16.03,6.52-1.26-3.14-2.58-6.16-3.67-9.27-.67-1.91.45-4.03,2.36-4.86,2.76-1.2,5.55-2.34,8.36-3.42,2.05-.79,4.35.1,5.24,2.08,1.32,2.92,2.47,5.91,3.73,8.95Z"/>
  <path fill="#77C1F2" d="M73.91,74.72c-.05.05-.11.1-.16.15.1.16.19.33.29.49,7.31,10.99,14.61,21.98,21.94,32.95.41.61.92,1.21,1.51,1.64,5.45,3.95,13.09.78,14.24-5.85.49-2.83-.77-6.99-3.98-8.86-7.42-4.33-14.71-8.88-22.05-13.35-3.93-2.39-7.86-4.78-11.79-7.17Z"/>
</svg>