<?xml version="1.0" encoding="UTF-8"?>
<svg xmlns="http://www.w3.org/2000/svg" viewBox="0 0 194.94 187.55">
  <path fill="#77C1F2" d="M120.98,156.25c-5.33-.63-12.56-1.54-19.81-2.33-6.02-.66-12.05-1.08-18.01.51-1.15.31-2.29.72-3.35,1.26-1.37.69-1.82,2.17-1.23,3.47.58,1.29,2.04,1.99,3.42,1.41,5.71-2.41,11.63-1.91,17.54-1.34,7.96.77,15.89,1.78,23.86,2.42,4.69.38,9.36-.15,13.78-1.97,5.35-2.19,8.22-6.3,7.91-11.35-.06-1.02-.31-2.04-.51-3.05-.38-1.98.37-3.29,2.33-3.84,2.35-.67,4.7-1.41,7.09-1.9,5.23-1.08,9.99-3.23,14.58-5.92,4.6-2.69,9.33-5.17,14-7.74,2.24-1.23,4.6-1.94,7.2-1.57,4.06.59,6,3.59,4.8,7.55-.76,2.52-2.27,4.61-4.34,6.19-11.58,8.86-23.11,17.8-34.86,26.44-3.42,2.51-7.32,4.57-11.28,6.11-13.32,5.2-26.77,10.07-40.16,15.07-5.72,2.13-11.49,2.37-17.49,1.13-18.85-3.91-37.75-7.57-56.59-11.52-5.36-1.12-10.5.08-15.71.55-4.53.41-5.71.97-6.72-4.78-2.3-13.13-4.85-26.21-7.28-39.31-.56-3.02.21-4.1,3.21-4.67,2.57-.48,5.12-1.03,7.7-1.45,1.8-.3,3.36-.99,4.91-1.99,6.34-4.07,13.44-5.47,20.86-5.42,10.35.06,19.87,3.24,29.12,7.6,6.79,3.2,13.65,6.25,20.58,9.12,1.82.75,4.04.88,6.05.78,12.68-.62,25.23.09,37.55,3.39,1.31.35,2.71.68,3.8,1.42,1.58,1.07,3.26,2.29,4.3,3.84,3.01,4.52,1.5,8.61-3.58,10.49-3.8,1.41-7.77,1.51-13.69,1.41Z"/>
  <path fill="#77C1F2" d="M176.89,50.22c-3.1-.73-6.19-1.63-9.33-2.14-2.44-.39-3.87-1.44-4.36-3.89-.16-.77-.2-1.28.31-1.9,2.5-3.11,4.97-6.26,7.43-9.41,1.61-2.05,1.59-3.86-.08-5.91-2.58-3.16-5.18-6.31-7.78-9.46-1.68-2.04-3.44-2.42-5.77-1.27-2.98,1.48-6.04,2.82-8.9,4.51-2,1.19-3.59,1.31-5.46-.17-.8-.62-1.16-1.14-1.18-2.13-.08-3.9-.22-7.8-.33-11.71-.08-2.38-1.25-3.84-3.56-4.29-4.14-.81-8.28-1.59-12.43-2.34-2.55-.47-4.14.42-5.19,2.84-1.13,2.6-2.49,5.14-3.29,7.84-.87,2.95-2.6,4.29-5.56,4.14-.58-.03-1.31-.23-1.68-.63-2.56-2.76-5.05-5.61-7.56-8.41-1.76-1.96-3.56-2.27-5.83-1-3.56,2-7.11,4.01-10.67,6.02-2.41,1.37-3.05,2.99-2.25,5.68,1,3.37,2.04,6.71,2.98,10.08.13.48-.07,1.2-.38,1.6-.8,1.06-1.79,1.97-2.63,3-.48.61-.96.72-1.71.61-3.46-.54-6.93-1-10.4-1.5-2.42-.35-4.06.57-4.92,2.83-1.48,3.89-2.95,7.8-4.39,11.71-.92,2.47-.35,4.16,1.85,5.61,2.73,1.82,5.5,3.58,8.21,5.45.39.27.7.95.73,1.45.07,1.59.04,3.2-.1,4.79-.05.54-.41,1.26-.85,1.55-2.71,1.77-5.49,3.44-8.24,5.15-2.19,1.36-2.8,3.13-1.94,5.58,1.35,3.86,2.71,7.7,4.08,11.55.91,2.57,2.5,3.5,5.23,3.15,3.09-.38,6.17-.76,9.26-1.06.47-.05,1.12.22,1.43.56,1.22,1.35,2.37,2.77,3.45,4.22.27.38.38,1.07.23,1.52-.93,3-1.95,5.98-2.93,8.98-.81,2.48-.17,4.23,2.05,5.54,3.51,2.09,7.03,4.16,10.54,6.24,2.32,1.36,4.13,1.11,5.97-.83,2.22-2.35,4.42-4.74,6.7-7.04.35-.35,1.06-.54,1.57-.49,1.59.18,3.14.59,4.73.76.8.08,1.15.4,1.43,1.11,1.14,2.97,2.34,5.94,3.53,8.9,1.07,2.68,2.53,3.55,5.41,3.09,4.07-.66,8.14-1.35,12.2-2.04,2.3-.4,3.5-1.71,3.67-4.05.22-3.06.47-6.12.52-9.17.03-1.88.52-3.2,2.4-3.86.69-.23,1.35-.69,1.92-1.17.71-.58,1.29-.47,2.04-.06,3.1,1.72,6.23,3.39,9.37,5.04,2.11,1.12,3.97.78,5.5-.99,2.81-3.26,5.64-6.51,8.38-9.84.61-.74.86-1.77,1.34-2.8-.52-1.04-.87-2.04-1.46-2.88-1.69-2.39-3.36-4.83-5.27-7.04-1.66-1.9-2.31-3.73-.9-5.99.11-.19.08-.48.23-.62.38-.4.78-.98,1.26-1.09,3.72-.84,7.47-1.59,11.2-2.37,2.71-.57,3.83-1.97,3.85-4.75.03-4,.06-7.99.09-11.99.03-2.8-1.04-4.18-3.74-4.83ZM121.17,97.06c-20.77-.03-37.34-16.45-37.32-36.97.02-20.41,16.52-36.98,36.87-37.02,20.26-.05,37.01,16.47,37.05,36.56.06,20.62-16.42,37.46-36.6,37.42Z"/>
  <path fill="#77C1F2" d="M121.06,26.54c-18.7-.04-33.7,14.84-33.74,33.45-.03,18.54,14.87,33.55,33.32,33.6,18.66.05,33.67-14.9,33.69-33.52,0-18.44-14.91-33.49-33.26-33.54ZM141.94,54.65l-17.53,17.52c-1.87,1.87-3.71,3.74-5.59,5.59-3.08,3.03-6.78,3.07-9.85.05-3.39-3.33-6.74-6.69-10.07-10.07-2.76-2.8-2.8-6.8-.16-9.43,2.61-2.58,6.54-2.51,9.33.2.98.94,1.92,1.91,2.88,2.88.95.96,1.89,1.92,2.91,2.95,3.95-3.96,7.83-7.86,11.73-11.76,2.53-2.54,5.03-5.13,7.64-7.6,3.73-3.53,9.68-1.71,10.83,3.28.57,2.51-.3,4.6-2.1,6.39Z"/>
</svg>