<?xml version="1.0" encoding="UTF-8"?>
<svg xmlns="http://www.w3.org/2000/svg" viewBox="0 0 275 275">
      <path fill="#77C1F2"  d="M5.2.3C2.8,1.1.6,3.5.1,5.9c-1,4.7,3.7,9.3,8.3,8.3,3.5-.7,6.2-4.3,5.9-7.7-.3-2.4-2-4.8-4.3-5.9C8.7,0,6.6-.2,5.2.3ZM34.1.3c-3.4,1.1-5.7,4.9-5,8.2.6,2.7,3.1,5.2,5.7,5.8,4.4.9,8.9-3.2,8.5-7.7-.3-2.4-2-4.8-4.3-5.9-1.4-.7-3.5-.8-4.9-.4h0ZM63.1.3c-2.4.8-4.5,3.2-5,5.6-1,4.7,3.7,9.3,8.3,8.3,3.5-.7,6.2-4.3,5.9-7.7-.3-2.4-2-4.8-4.3-5.9-1.4-.7-3.5-.8-4.9-.4ZM92,.3c-2.4.8-4.5,3.2-5,5.6-1,4.7,3.7,9.3,8.3,8.3,3.5-.7,6.2-4.3,5.9-7.7-.3-2.4-2-4.8-4.3-5.9-1.4-.7-3.5-.8-4.9-.4ZM121,.3c-2.4.8-4.5,3.2-5,5.6-1,4.7,3.7,9.3,8.3,8.3,3.5-.7,6.2-4.3,5.9-7.7-.3-2.4-2-4.8-4.3-5.9-1.4-.7-3.5-.8-4.9-.4ZM149.9.3c-2.4.8-4.5,3.2-5,5.6-1,4.7,3.7,9.3,8.3,8.3,3.5-.7,6.2-4.3,5.9-7.7-.3-2.4-2-4.8-4.3-5.9-1.4-.7-3.5-.8-4.9-.4ZM178.9.3c-2.4.8-4.5,3.2-5,5.6-1,4.7,3.7,9.3,8.3,8.3,3.5-.7,6.2-4.3,5.9-7.7-.3-2.4-2-4.8-4.3-5.9-1.4-.7-3.5-.8-4.9-.4ZM207.8.3c-2.4.8-4.5,3.2-5,5.6-1,4.7,3.7,9.3,8.3,8.3,3.5-.7,6.2-4.3,5.9-7.7-.3-2.4-2-4.8-4.3-5.9-1.4-.7-3.5-.8-4.9-.4ZM236.8.3c-2.4.8-4.5,3.2-5,5.6-.6,2.6.7,5.5,3.2,7.2,2.4,1.7,5.2,1.7,7.6,0,4-2.7,4.5-7.6,1.2-11-1.9-1.9-4.7-2.7-7-1.9h0ZM265.8.3c-2.4.8-4.5,3.2-5,5.6-.6,2.6.7,5.5,3.2,7.2,2.4,1.7,5.2,1.7,7.6,0,4-2.7,4.5-7.6,1.2-11-1.9-1.9-4.7-2.7-7-1.9h0ZM5.2,29.3c-2.4.8-4.5,3.2-5,5.6-1,4.7,3.7,9.3,8.3,8.3,3.5-.7,6.2-4.3,5.9-7.7-.3-2.4-2-4.8-4.3-5.9-1.4-.7-3.5-.8-4.9-.4ZM34.1,29.3c-3.4,1.1-5.7,4.9-5,8.2.6,2.7,3.1,5.2,5.7,5.8,4.4.9,8.9-3.2,8.5-7.7-.3-2.4-2-4.8-4.3-5.9-1.4-.7-3.5-.8-4.9-.4h0ZM63.1,29.3c-2.4.8-4.5,3.2-5,5.6-1,4.7,3.7,9.3,8.3,8.3,3.5-.7,6.2-4.3,5.9-7.7-.3-2.4-2-4.8-4.3-5.9-1.4-.7-3.5-.8-4.9-.4h0ZM92,29.3c-2.4.8-4.5,3.2-5,5.6-1,4.7,3.7,9.3,8.3,8.3,3.5-.7,6.2-4.3,5.9-7.7-.3-2.4-2-4.8-4.3-5.9-1.4-.7-3.5-.8-4.9-.4ZM121,29.3c-2.4.8-4.5,3.2-5,5.6-1,4.7,3.7,9.3,8.3,8.3,3.5-.7,6.2-4.3,5.9-7.7-.3-2.4-2-4.8-4.3-5.9-1.4-.7-3.5-.8-4.9-.4ZM149.9,29.3c-2.4.8-4.5,3.2-5,5.6-1,4.7,3.7,9.3,8.3,8.3,3.5-.7,6.2-4.3,5.9-7.7-.3-2.4-2-4.8-4.3-5.9-1.4-.7-3.5-.8-4.9-.4ZM178.9,29.3c-2.4.8-4.5,3.2-5,5.6-1,4.7,3.7,9.3,8.3,8.3,3.5-.7,6.2-4.3,5.9-7.7-.3-2.4-2-4.8-4.3-5.9-1.4-.7-3.5-.8-4.9-.4ZM207.8,29.3c-2.4.8-4.5,3.2-5,5.6-1,4.7,3.7,9.3,8.3,8.3,3.5-.7,6.2-4.3,5.9-7.7-.3-2.4-2-4.8-4.3-5.9-1.4-.7-3.5-.8-4.9-.4ZM236.8,29.3c-2.4.8-4.5,3.2-5,5.6-.6,2.6.7,5.5,3.2,7.2,2.4,1.7,5.2,1.7,7.6,0,4-2.7,4.5-7.6,1.2-11-1.9-1.9-4.7-2.7-7-1.9h0ZM265.8,29.3c-2.4.8-4.5,3.2-5,5.6-.6,2.6.7,5.5,3.2,7.2,2.4,1.7,5.2,1.7,7.6,0,4-2.7,4.5-7.6,1.2-11-1.9-1.9-4.7-2.7-7-1.9h0ZM5.2,58.2c-2.4.8-4.5,3.2-5,5.6-1,4.7,3.7,9.3,8.3,8.3,3.5-.7,6.2-4.3,5.9-7.7-.3-2.4-2-4.8-4.3-5.9-1.4-.7-3.5-.8-4.9-.4ZM34.1,58.2c-2.4.8-4.5,3.2-5,5.6-1,4.7,3.7,9.3,8.3,8.3,3.5-.7,6.2-4.3,5.9-7.7-.3-2.4-2-4.8-4.3-5.9-1.4-.7-3.5-.8-4.9-.4ZM63.1,58.2c-2.4.8-4.5,3.2-5,5.6-1,4.7,3.7,9.3,8.3,8.3,3.5-.7,6.2-4.3,5.9-7.7-.3-2.4-2-4.8-4.3-5.9-1.4-.7-3.5-.8-4.9-.4h0ZM92,58.2c-2.4.8-4.5,3.2-5,5.6-1,4.7,3.7,9.3,8.3,8.3,3.5-.7,6.2-4.3,5.9-7.7-.3-2.4-2-4.8-4.3-5.9-1.4-.7-3.5-.8-4.9-.4ZM121,58.2c-2.4.8-4.5,3.2-5,5.6-1,4.7,3.7,9.3,8.3,8.3,3.5-.7,6.2-4.3,5.9-7.7-.3-2.4-2-4.8-4.3-5.9-1.4-.7-3.5-.8-4.9-.4ZM149.9,58.2c-2.4.8-4.5,3.2-5,5.6-1,4.7,3.7,9.3,8.3,8.3,3.5-.7,6.2-4.3,5.9-7.7-.3-2.4-2-4.8-4.3-5.9-1.4-.7-3.5-.8-4.9-.4ZM178.9,58.2c-2.4.8-4.5,3.2-5,5.6-1,4.7,3.7,9.3,8.3,8.3,3.5-.7,6.2-4.3,5.9-7.7-.3-2.4-2-4.8-4.3-5.9-1.4-.7-3.5-.8-4.9-.4ZM207.8,58.2c-2.4.8-4.5,3.2-5,5.6-1,4.7,3.7,9.3,8.3,8.3,3.5-.7,6.2-4.3,5.9-7.7-.3-2.4-2-4.8-4.3-5.9-1.4-.7-3.5-.8-4.9-.4ZM236.8,58.2c-2.4.8-4.5,3.2-5,5.6-1,4.7,3.7,9.3,8.3,8.3,3.5-.7,6.2-4.3,5.9-7.7-.3-2.4-2-4.8-4.3-5.9-1.4-.7-3.5-.8-4.9-.4h0ZM265.8,58.2c-2.4.8-4.5,3.2-5,5.6-1,4.7,3.7,9.3,8.3,8.3,3.5-.7,6.2-4.3,5.9-7.7-.3-2.4-2-4.8-4.3-5.9-1.4-.7-3.5-.8-4.9-.4h0ZM5.2,87.2c-2.4.8-4.5,3.2-5,5.6-1,4.7,3.7,9.3,8.3,8.3,3.5-.7,6.2-4.3,5.9-7.7-.3-2.4-2-4.8-4.3-5.9-1.4-.7-3.5-.8-4.9-.4h0ZM34.1,87.2c-2.4.8-4.5,3.2-5,5.6-1,4.7,3.7,9.3,8.3,8.3,3.5-.7,6.2-4.3,5.9-7.7-.3-2.4-2-4.8-4.3-5.9-1.4-.7-3.5-.8-4.9-.4h0ZM63.1,87.2c-2.4.8-4.5,3.2-5,5.6-1,4.7,3.7,9.3,8.3,8.3,3.5-.7,6.2-4.3,5.9-7.7-.3-2.4-2-4.8-4.3-5.9-1.4-.7-3.5-.8-4.9-.4h0ZM92,87.2c-2.4.8-4.5,3.2-5,5.6-1,4.7,3.7,9.3,8.3,8.3,3.5-.7,6.2-4.3,5.9-7.7-.3-2.4-2-4.8-4.3-5.9-1.4-.7-3.5-.8-4.9-.4h0ZM121,87.2c-2.4.8-4.5,3.2-5,5.6-1,4.7,3.7,9.3,8.3,8.3,3.5-.7,6.2-4.3,5.9-7.7-.3-2.4-2-4.8-4.3-5.9-1.4-.7-3.5-.8-4.9-.4h0ZM149.9,87.2c-2.4.8-4.5,3.2-5,5.6-1,4.7,3.7,9.3,8.3,8.3,3.5-.7,6.2-4.3,5.9-7.7-.3-2.4-2-4.8-4.3-5.9-1.4-.7-3.5-.8-4.9-.4h0ZM178.9,87.2c-2.4.8-4.5,3.2-5,5.6-1,4.7,3.7,9.3,8.3,8.3,3.5-.7,6.2-4.3,5.9-7.7-.3-2.4-2-4.8-4.3-5.9-1.4-.7-3.5-.8-4.9-.4h0ZM207.8,87.2c-2.4.8-4.5,3.2-5,5.6-1,4.7,3.7,9.3,8.3,8.3,3.5-.7,6.2-4.3,5.9-7.7-.3-2.4-2-4.8-4.3-5.9-1.4-.7-3.5-.8-4.9-.4h0ZM236.8,87.2c-2.4.8-4.5,3.2-5,5.6-1,4.7,3.7,9.3,8.3,8.3,3.5-.7,6.2-4.3,5.9-7.7-.3-2.4-2-4.8-4.3-5.9-1.4-.7-3.5-.8-4.9-.4h0ZM265.8,87.2c-2.4.8-4.5,3.2-5,5.6-1,4.7,3.7,9.3,8.3,8.3,3.5-.7,6.2-4.3,5.9-7.7-.3-2.4-2-4.8-4.3-5.9-1.4-.7-3.5-.8-4.9-.4h0ZM5.2,116.1c-2.4.8-4.5,3.2-5,5.6-1,4.7,3.7,9.3,8.3,8.3,3.5-.7,6.2-4.3,5.9-7.7-.3-2.4-2-4.8-4.3-5.9-1.4-.7-3.5-.8-4.9-.4ZM34.1,116.1c-2.4.8-4.5,3.2-5,5.6-1,4.7,3.7,9.3,8.3,8.3,3.5-.7,6.2-4.3,5.9-7.7-.3-2.4-2-4.8-4.3-5.9-1.4-.7-3.5-.8-4.9-.4ZM63.1,116.1c-2.4.8-4.5,3.2-5,5.6-1,4.7,3.7,9.3,8.3,8.3,3.5-.7,6.2-4.3,5.9-7.7-.3-2.4-2-4.8-4.3-5.9-1.4-.7-3.5-.8-4.9-.4h0ZM92,116.1c-2.4.8-4.5,3.2-5,5.6-1,4.7,3.7,9.3,8.3,8.3,3.5-.7,6.2-4.3,5.9-7.7-.3-2.4-2-4.8-4.3-5.9-1.4-.7-3.5-.8-4.9-.4ZM121,116.1c-2.4.8-4.5,3.2-5,5.6-1,4.7,3.7,9.3,8.3,8.3,3.5-.7,6.2-4.3,5.9-7.7-.3-2.4-2-4.8-4.3-5.9-1.4-.7-3.5-.8-4.9-.4ZM149.9,116.1c-2.4.8-4.5,3.2-5,5.6-1,4.7,3.7,9.3,8.3,8.3,3.5-.7,6.2-4.3,5.9-7.7-.3-2.4-2-4.8-4.3-5.9-1.4-.7-3.5-.8-4.9-.4ZM178.9,116.1c-2.4.8-4.5,3.2-5,5.6-1,4.7,3.7,9.3,8.3,8.3,3.5-.7,6.2-4.3,5.9-7.7-.3-2.4-2-4.8-4.3-5.9-1.4-.7-3.5-.8-4.9-.4ZM207.8,116.1c-2.4.8-4.5,3.2-5,5.6-1,4.7,3.7,9.3,8.3,8.3,3.5-.7,6.2-4.3,5.9-7.7-.3-2.4-2-4.8-4.3-5.9-1.4-.7-3.5-.8-4.9-.4ZM236.8,116.1c-2.4.8-4.5,3.2-5,5.6-1,4.7,3.7,9.3,8.3,8.3,3.5-.7,6.2-4.3,5.9-7.7-.3-2.4-2-4.8-4.3-5.9-1.4-.7-3.5-.8-4.9-.4h0ZM265.8,116.1c-2.4.8-4.5,3.2-5,5.6-1,4.7,3.7,9.3,8.3,8.3,3.5-.7,6.2-4.3,5.9-7.7-.3-2.4-2-4.8-4.3-5.9-1.4-.7-3.5-.8-4.9-.4h0ZM5.2,145.1c-2.4.8-4.5,3.2-5,5.6-1,4.7,3.7,9.3,8.3,8.3,3.5-.7,6.2-4.3,5.9-7.7-.3-2.4-2-4.8-4.3-5.9-1.4-.7-3.5-.8-4.9-.4ZM34.1,145.1c-2.4.8-4.5,3.2-5,5.6-1,4.7,3.7,9.3,8.3,8.3,3.5-.7,6.2-4.3,5.9-7.7-.3-2.4-2-4.8-4.3-5.9-1.4-.7-3.5-.8-4.9-.4h0ZM63.1,145.1c-2.4.8-4.5,3.2-5,5.6-1,4.7,3.7,9.3,8.3,8.3,3.5-.7,6.2-4.3,5.9-7.7-.3-2.4-2-4.8-4.3-5.9-1.4-.7-3.5-.8-4.9-.4h0ZM92,145.1c-2.4.8-4.5,3.2-5,5.6-1,4.7,3.7,9.3,8.3,8.3,3.5-.7,6.2-4.3,5.9-7.7-.3-2.4-2-4.8-4.3-5.9-1.4-.7-3.5-.8-4.9-.4h0ZM121,145.1c-2.4.8-4.5,3.2-5,5.6-1,4.7,3.7,9.3,8.3,8.3,3.5-.7,6.2-4.3,5.9-7.7-.3-2.4-2-4.8-4.3-5.9-1.4-.7-3.5-.8-4.9-.4h0ZM149.9,145.1c-2.4.8-4.5,3.2-5,5.6-1,4.7,3.7,9.3,8.3,8.3,3.5-.7,6.2-4.3,5.9-7.7-.3-2.4-2-4.8-4.3-5.9-1.4-.7-3.5-.8-4.9-.4h0ZM178.9,145.1c-2.4.8-4.5,3.2-5,5.6-1,4.7,3.7,9.3,8.3,8.3,3.5-.7,6.2-4.3,5.9-7.7-.3-2.4-2-4.8-4.3-5.9-1.4-.7-3.5-.8-4.9-.4h0ZM207.8,145.1c-2.4.8-4.5,3.2-5,5.6-1,4.7,3.7,9.3,8.3,8.3,3.5-.7,6.2-4.3,5.9-7.7-.3-2.4-2-4.8-4.3-5.9-1.4-.7-3.5-.8-4.9-.4h0ZM236.8,145.1c-2.4.8-4.5,3.2-5,5.6-1,4.7,3.7,9.3,8.3,8.3,3.5-.7,6.2-4.3,5.9-7.7-.3-2.4-2-4.8-4.3-5.9-1.4-.7-3.5-.8-4.9-.4h0ZM265.8,145.1c-2.4.8-4.5,3.2-5,5.6-1,4.7,3.7,9.3,8.3,8.3,3.5-.7,6.2-4.3,5.9-7.7-.3-2.4-2-4.8-4.3-5.9-1.4-.7-3.5-.8-4.9-.4h0ZM5.2,174c-2.4.8-4.5,3.2-5,5.6-1,4.7,3.7,9.3,8.3,8.3,3.5-.7,6.2-4.3,5.9-7.7-.3-2.4-2-4.8-4.3-5.9-1.4-.7-3.5-.8-4.9-.4ZM34.1,174c-2.4.8-4.5,3.2-5,5.6-1,4.7,3.7,9.3,8.3,8.3,3.5-.7,6.2-4.3,5.9-7.7-.3-2.4-2-4.8-4.3-5.9-1.4-.7-3.5-.8-4.9-.4h0ZM63.1,174c-2.4.8-4.5,3.2-5,5.6-.6,2.6.7,5.5,3.2,7.2,2.4,1.7,5.2,1.7,7.6,0,4-2.7,4.5-7.6,1.2-11-1.9-1.9-4.7-2.7-7-1.9h0ZM92,174c-2.4.8-4.5,3.2-5,5.6-.6,2.6.7,5.5,3.2,7.2,2.4,1.7,5.2,1.7,7.6,0,4-2.7,4.5-7.6,1.2-11-1.9-1.9-4.7-2.7-7-1.9h0ZM121,174c-3.4,1.1-5.7,4.9-5,8.2.6,2.7,3.1,5.2,5.8,5.8,4.4.9,8.9-3.2,8.5-7.7-.3-2.4-2-4.8-4.3-5.9-1.4-.7-3.5-.8-4.9-.4h0ZM149.9,174c-3.4,1.1-5.7,4.9-5,8.2.6,2.7,3.1,5.2,5.8,5.8,4.4.9,8.9-3.2,8.5-7.7-.3-2.4-2-4.8-4.3-5.9-1.4-.7-3.5-.8-4.9-.4h0ZM178.9,174c-3.4,1.1-5.7,4.9-5,8.2.6,2.7,3.1,5.2,5.8,5.8,4.4.9,8.9-3.2,8.5-7.7-.3-2.4-2-4.8-4.3-5.9-1.4-.7-3.5-.8-4.9-.4h0ZM207.8,174c-3.4,1.1-5.7,4.9-5,8.2.6,2.7,3.1,5.2,5.8,5.8,4.4.9,8.9-3.2,8.5-7.7-.3-2.4-2-4.8-4.3-5.9-1.4-.7-3.5-.8-4.9-.4h0ZM236.8,174c-2.4.8-4.5,3.2-5,5.6-1,4.7,3.7,9.3,8.3,8.3,3.5-.7,6.2-4.3,5.9-7.7-.3-2.4-2-4.8-4.3-5.9-1.4-.7-3.5-.8-4.9-.4h0ZM265.8,174c-2.4.8-4.5,3.2-5,5.6-1,4.7,3.7,9.3,8.3,8.3,3.5-.7,6.2-4.3,5.9-7.7-.3-2.4-2-4.8-4.3-5.9-1.4-.7-3.5-.8-4.9-.4h0ZM5.2,203c-2.4.8-4.5,3.2-5,5.6-1,4.7,3.7,9.3,8.3,8.3,3.5-.7,6.2-4.3,5.9-7.7-.3-2.4-2-4.8-4.3-5.9-1.4-.7-3.5-.8-4.9-.4ZM34.1,203c-2.4.8-4.5,3.2-5,5.6-1,4.7,3.7,9.3,8.3,8.3,3.5-.7,6.2-4.3,5.9-7.7-.3-2.4-2-4.8-4.3-5.9-1.4-.7-3.5-.8-4.9-.4h0ZM63.1,203c-2.4.8-4.5,3.2-5,5.6-.6,2.6.7,5.5,3.2,7.2,2.4,1.7,5.2,1.7,7.6,0,4-2.7,4.5-7.6,1.2-11-1.9-1.9-4.7-2.7-7-1.9h0ZM92,203c-2.4.8-4.5,3.2-5,5.6-.6,2.6.7,5.5,3.2,7.2,2.4,1.7,5.2,1.7,7.6,0,4-2.7,4.5-7.6,1.2-11-1.9-1.9-4.7-2.7-7-1.9h0ZM121,203c-3.4,1.1-5.7,4.9-5,8.2.6,2.7,3.1,5.2,5.8,5.8,4.4.9,8.9-3.2,8.5-7.7-.3-2.4-2-4.8-4.3-5.9-1.4-.7-3.5-.8-4.9-.4h0ZM149.9,203c-3.4,1.1-5.7,4.9-5,8.2.6,2.7,3.1,5.2,5.8,5.8,4.4.9,8.9-3.2,8.5-7.7-.3-2.4-2-4.8-4.3-5.9-1.4-.7-3.5-.8-4.9-.4h0ZM178.9,203c-3.4,1.1-5.7,4.9-5,8.2.6,2.7,3.1,5.2,5.8,5.8,4.4.9,8.9-3.2,8.5-7.7-.3-2.4-2-4.8-4.3-5.9-1.4-.7-3.5-.8-4.9-.4h0ZM207.8,203c-3.4,1.1-5.7,4.9-5,8.2.6,2.7,3.1,5.2,5.8,5.8,4.4.9,8.9-3.2,8.5-7.7-.3-2.4-2-4.8-4.3-5.9-1.4-.7-3.5-.8-4.9-.4h0ZM236.8,203c-2.4.8-4.5,3.2-5,5.6-1,4.7,3.7,9.3,8.3,8.3,3.5-.7,6.2-4.3,5.9-7.7-.3-2.4-2-4.8-4.3-5.9-1.4-.7-3.5-.8-4.9-.4h0ZM265.8,203c-2.4.8-4.5,3.2-5,5.6-1,4.7,3.7,9.3,8.3,8.3,3.5-.7,6.2-4.3,5.9-7.7-.3-2.4-2-4.8-4.3-5.9-1.4-.7-3.5-.8-4.9-.4h0ZM5.2,231.9c-2.4.8-4.5,3.2-5,5.6-1,4.7,3.7,9.3,8.3,8.3,3.5-.7,6.2-4.3,5.9-7.7-.3-2.4-2-4.8-4.3-5.9-1.4-.7-3.5-.8-4.9-.4ZM34.1,231.9c-2.4.8-4.5,3.2-5,5.6-1,4.7,3.7,9.3,8.3,8.3,3.5-.7,6.2-4.3,5.9-7.7-.3-2.4-2-4.8-4.3-5.9-1.4-.7-3.5-.8-4.9-.4h0ZM63.1,231.9c-2.4.8-4.5,3.2-5,5.6-.6,2.6.7,5.5,3.2,7.2,2.4,1.7,5.2,1.7,7.6,0,4-2.7,4.5-7.6,1.2-11-1.9-1.9-4.7-2.7-7-1.9h0ZM92,231.9c-2.4.8-4.5,3.2-5,5.6-.6,2.6.7,5.5,3.2,7.2,2.4,1.7,5.2,1.7,7.6,0,4-2.7,4.5-7.6,1.2-11-1.9-1.9-4.7-2.7-7-1.9h0ZM121,231.9c-2.4.8-4.5,3.2-5,5.6-1,4.7,3.7,9.3,8.3,8.3,3.5-.7,6.2-4.3,5.9-7.7-.3-2.4-2-4.8-4.3-5.9-1.4-.7-3.5-.8-4.9-.4h0ZM149.9,231.9c-2.4.8-4.5,3.2-5,5.6-1,4.7,3.7,9.3,8.3,8.3,3.5-.7,6.2-4.3,5.9-7.7-.3-2.4-2-4.8-4.3-5.9-1.4-.7-3.5-.8-4.9-.4h0ZM178.9,231.9c-2.4.8-4.5,3.2-5,5.6-1,4.7,3.7,9.3,8.3,8.3,3.5-.7,6.2-4.3,5.9-7.7-.3-2.4-2-4.8-4.3-5.9-1.4-.7-3.5-.8-4.9-.4h0ZM207.8,231.9c-2.4.8-4.5,3.2-5,5.6-1,4.7,3.7,9.3,8.3,8.3,3.5-.7,6.2-4.3,5.9-7.7-.3-2.4-2-4.8-4.3-5.9-1.4-.7-3.5-.8-4.9-.4h0ZM236.8,231.9c-2.4.8-4.5,3.2-5,5.6-1,4.7,3.7,9.3,8.3,8.3,3.5-.7,6.2-4.3,5.9-7.7-.3-2.4-2-4.8-4.3-5.9-1.4-.7-3.5-.8-4.9-.4h0ZM265.8,231.9c-2.4.8-4.5,3.2-5,5.6-1,4.7,3.7,9.3,8.3,8.3,3.5-.7,6.2-4.3,5.9-7.7-.3-2.4-2-4.8-4.3-5.9-1.4-.7-3.5-.8-4.9-.4h0ZM5.2,260.9c-2.4.8-4.5,3.2-5,5.6-1,4.7,3.7,9.3,8.3,8.3,3.5-.7,6.2-4.3,5.9-7.7-.3-2.4-2-4.8-4.3-5.9-1.4-.7-3.5-.8-4.9-.4h0ZM34.1,260.9c-2.4.8-4.5,3.2-5,5.6-1,4.7,3.7,9.3,8.3,8.3,3.5-.7,6.2-4.3,5.9-7.7-.3-2.4-2-4.8-4.3-5.9-1.4-.7-3.5-.8-4.9-.4h0ZM63.1,260.9c-2.4.8-4.5,3.2-5,5.6-1,4.7,3.7,9.3,8.3,8.3,3.5-.7,6.2-4.3,5.9-7.7-.3-2.4-2-4.8-4.3-5.9-1.4-.7-3.5-.8-4.9-.4h0ZM92,260.9c-2.4.8-4.5,3.2-5,5.6-1,4.7,3.7,9.3,8.3,8.3,3.5-.7,6.2-4.3,5.9-7.7-.3-2.4-2-4.8-4.3-5.9-1.4-.7-3.5-.8-4.9-.4h0ZM121,260.9c-2.4.8-4.5,3.2-5,5.6-1,4.7,3.7,9.3,8.3,8.3,3.5-.7,6.2-4.3,5.9-7.7-.3-2.4-2-4.8-4.3-5.9-1.4-.7-3.5-.8-4.9-.4h0ZM149.9,260.9c-2.4.8-4.5,3.2-5,5.6-1,4.7,3.7,9.3,8.3,8.3,3.5-.7,6.2-4.3,5.9-7.7-.3-2.4-2-4.8-4.3-5.9-1.4-.7-3.5-.8-4.9-.4h0ZM178.9,260.9c-2.4.8-4.5,3.2-5,5.6-1,4.7,3.7,9.3,8.3,8.3,3.5-.7,6.2-4.3,5.9-7.7-.3-2.4-2-4.8-4.3-5.9-1.4-.7-3.5-.8-4.9-.4h0ZM207.8,260.9c-2.4.8-4.5,3.2-5,5.6-1,4.7,3.7,9.3,8.3,8.3,3.5-.7,6.2-4.3,5.9-7.7-.3-2.4-2-4.8-4.3-5.9-1.4-.7-3.5-.8-4.9-.4h0ZM236.8,260.9c-2.4.8-4.5,3.2-5,5.6-1,4.7,3.7,9.3,8.3,8.3,3.5-.7,6.2-4.3,5.9-7.7-.3-2.4-2-4.8-4.3-5.9-1.4-.7-3.5-.8-4.9-.4h0ZM265.8,260.9c-2.4.8-4.5,3.2-5,5.6-1,4.7,3.7,9.3,8.3,8.3,3.5-.7,6.2-4.3,5.9-7.7-.3-2.4-2-4.8-4.3-5.9-1.4-.7-3.5-.8-4.9-.4h0Z"/>
</svg>