<?xml version="1.0" encoding="UTF-8"?>
<svg xmlns="http://www.w3.org/2000/svg" viewBox="0 0 275 275">
      <path fill="#77C1F2" d="M2.5.1C1.4.5.3,1.7,0,2.9c-.5,2.3,1.8,4.5,4.1,4.1,1.7-.4,3-2.1,2.9-3.7-.1-1.2-1-2.3-2.1-2.9C4.2,0,3.2,0,2.5.1ZM16.6.1c-1.7.6-2.8,2.4-2.4,4,.3,1.3,1.5,2.5,2.8,2.8,2.1.5,4.4-1.6,4.1-3.7-.1-1.2-1-2.3-2.1-2.9-.7-.3-1.7-.4-2.4-.2h0ZM30.7.1c-1.2.4-2.2,1.6-2.4,2.7-.5,2.3,1.8,4.5,4.1,4.1,1.7-.4,3-2.1,2.9-3.7-.1-1.2-1-2.3-2.1-2.9-.7-.3-1.7-.4-2.4-.2h0ZM44.8.1c-1.2.4-2.2,1.6-2.4,2.7-.5,2.3,1.8,4.5,4.1,4.1,1.7-.4,3-2.1,2.9-3.7-.1-1.2-1-2.3-2.1-2.9-.7-.3-1.7-.4-2.4-.2h0ZM58.9.1c-1.2.4-2.2,1.6-2.4,2.7-.5,2.3,1.8,4.5,4.1,4.1,1.7-.4,3-2.1,2.9-3.7-.1-1.2-1-2.3-2.1-2.9-.7-.3-1.7-.4-2.4-.2ZM73,.1c-1.2.4-2.2,1.6-2.4,2.7-.5,2.3,1.8,4.5,4.1,4.1,1.7-.4,3-2.1,2.9-3.7-.1-1.2-1-2.3-2.1-2.9-.7-.3-1.7-.4-2.4-.2ZM87.1.1c-1.2.4-2.2,1.6-2.4,2.7-.5,2.3,1.8,4.5,4.1,4.1,1.7-.4,3-2.1,2.9-3.7-.1-1.2-1-2.3-2.1-2.9-.7-.3-1.7-.4-2.4-.2ZM101.2.1c-1.2.4-2.2,1.6-2.4,2.7-.5,2.3,1.8,4.5,4.1,4.1,1.7-.4,3-2.1,2.9-3.7-.1-1.2-1-2.3-2.1-2.9-.7-.3-1.7-.4-2.4-.2ZM115.3.1c-1.2.4-2.2,1.6-2.4,2.7-.3,1.3.4,2.7,1.6,3.5,1.2.8,2.5.8,3.7,0,2-1.3,2.2-3.7.6-5.3-.9-.9-2.3-1.3-3.4-.9h0ZM129.5.1c-1.2.4-2.2,1.6-2.4,2.7-.3,1.3.4,2.7,1.6,3.5,1.2.8,2.5.8,3.7,0,2-1.3,2.2-3.7.6-5.3-.9-.9-2.3-1.3-3.4-.9h0ZM2.5,14.3c-1.2.4-2.2,1.6-2.4,2.7-.5,2.3,1.8,4.5,4.1,4.1,1.7-.4,3-2.1,2.9-3.7-.1-1.2-1-2.3-2.1-2.9-.7-.3-1.7-.4-2.4-.2h0ZM16.6,14.3c-1.7.6-2.8,2.4-2.4,4,.3,1.3,1.5,2.5,2.8,2.8,2.1.5,4.4-1.6,4.1-3.7-.1-1.2-1-2.3-2.1-2.9-.7-.3-1.7-.4-2.4-.2h0ZM30.7,14.3c-1.2.4-2.2,1.6-2.4,2.7-.5,2.3,1.8,4.5,4.1,4.1,1.7-.4,3-2.1,2.9-3.7-.1-1.2-1-2.3-2.1-2.9-.7-.3-1.7-.4-2.4-.2h0ZM44.8,14.3c-1.2.4-2.2,1.6-2.4,2.7-.5,2.3,1.8,4.5,4.1,4.1,1.7-.4,3-2.1,2.9-3.7-.1-1.2-1-2.3-2.1-2.9-.7-.3-1.7-.4-2.4-.2h0ZM58.9,14.3c-1.2.4-2.2,1.6-2.4,2.7-.5,2.3,1.8,4.5,4.1,4.1,1.7-.4,3-2.1,2.9-3.7-.1-1.2-1-2.3-2.1-2.9-.7-.3-1.7-.4-2.4-.2h0ZM73,14.3c-1.2.4-2.2,1.6-2.4,2.7-.5,2.3,1.8,4.5,4.1,4.1,1.7-.4,3-2.1,2.9-3.7-.1-1.2-1-2.3-2.1-2.9-.7-.3-1.7-.4-2.4-.2h0ZM87.1,14.3c-1.2.4-2.2,1.6-2.4,2.7-.5,2.3,1.8,4.5,4.1,4.1,1.7-.4,3-2.1,2.9-3.7-.1-1.2-1-2.3-2.1-2.9-.7-.3-1.7-.4-2.4-.2h0ZM101.2,14.3c-1.2.4-2.2,1.6-2.4,2.7-.5,2.3,1.8,4.5,4.1,4.1,1.7-.4,3-2.1,2.9-3.7-.1-1.2-1-2.3-2.1-2.9-.7-.3-1.7-.4-2.4-.2h0ZM115.3,14.3c-1.2.4-2.2,1.6-2.4,2.7-.3,1.3.4,2.7,1.6,3.5,1.2.8,2.5.8,3.7,0,2-1.3,2.2-3.7.6-5.3-.9-.9-2.3-1.3-3.4-.9h0ZM129.5,14.3c-1.2.4-2.2,1.6-2.4,2.7-.3,1.3.4,2.7,1.6,3.5,1.2.8,2.5.8,3.7,0,2-1.3,2.2-3.7.6-5.3-.9-.9-2.3-1.3-3.4-.9h0ZM2.5,28.4c-1.2.4-2.2,1.6-2.4,2.7-.5,2.3,1.8,4.5,4.1,4.1,1.7-.4,3-2.1,2.9-3.7-.1-1.2-1-2.3-2.1-2.9-.7-.3-1.7-.4-2.4-.2h0ZM16.6,28.4c-1.2.4-2.2,1.6-2.4,2.7-.5,2.3,1.8,4.5,4.1,4.1,1.7-.4,3-2.1,2.9-3.7-.1-1.2-1-2.3-2.1-2.9-.7-.3-1.7-.4-2.4-.2h0ZM30.7,28.4c-1.2.4-2.2,1.6-2.4,2.7-.5,2.3,1.8,4.5,4.1,4.1,1.7-.4,3-2.1,2.9-3.7-.1-1.2-1-2.3-2.1-2.9-.7-.3-1.7-.4-2.4-.2h0ZM44.8,28.4c-1.2.4-2.2,1.6-2.4,2.7-.5,2.3,1.8,4.5,4.1,4.1,1.7-.4,3-2.1,2.9-3.7-.1-1.2-1-2.3-2.1-2.9-.7-.3-1.7-.4-2.4-.2h0ZM58.9,28.4c-1.2.4-2.2,1.6-2.4,2.7-.5,2.3,1.8,4.5,4.1,4.1,1.7-.4,3-2.1,2.9-3.7-.1-1.2-1-2.3-2.1-2.9-.7-.3-1.7-.4-2.4-.2h0ZM73,28.4c-1.2.4-2.2,1.6-2.4,2.7-.5,2.3,1.8,4.5,4.1,4.1,1.7-.4,3-2.1,2.9-3.7-.1-1.2-1-2.3-2.1-2.9-.7-.3-1.7-.4-2.4-.2h0ZM87.1,28.4c-1.2.4-2.2,1.6-2.4,2.7-.5,2.3,1.8,4.5,4.1,4.1,1.7-.4,3-2.1,2.9-3.7-.1-1.2-1-2.3-2.1-2.9-.7-.3-1.7-.4-2.4-.2h0ZM101.2,28.4c-1.2.4-2.2,1.6-2.4,2.7-.5,2.3,1.8,4.5,4.1,4.1,1.7-.4,3-2.1,2.9-3.7-.1-1.2-1-2.3-2.1-2.9-.7-.3-1.7-.4-2.4-.2h0ZM115.3,28.4c-1.2.4-2.2,1.6-2.4,2.7-.5,2.3,1.8,4.5,4.1,4.1,1.7-.4,3-2.1,2.9-3.7-.1-1.2-1-2.3-2.1-2.9-.7-.3-1.7-.4-2.4-.2h0ZM129.5,28.4c-1.2.4-2.2,1.6-2.4,2.7-.5,2.3,1.8,4.5,4.1,4.1,1.7-.4,3-2.1,2.9-3.7-.1-1.2-1-2.3-2.1-2.9-.7-.3-1.7-.4-2.4-.2h0ZM2.5,42.5c-1.2.4-2.2,1.6-2.4,2.7-.5,2.3,1.8,4.5,4.1,4.1,1.7-.4,3-2.1,2.9-3.7-.1-1.2-1-2.3-2.1-2.9-.7-.3-1.7-.4-2.4-.2h0ZM16.6,42.5c-1.2.4-2.2,1.6-2.4,2.7-.5,2.3,1.8,4.5,4.1,4.1,1.7-.4,3-2.1,2.9-3.7-.1-1.2-1-2.3-2.1-2.9-.7-.3-1.7-.4-2.4-.2h0ZM30.7,42.5c-1.2.4-2.2,1.6-2.4,2.7-.5,2.3,1.8,4.5,4.1,4.1,1.7-.4,3-2.1,2.9-3.7-.1-1.2-1-2.3-2.1-2.9-.7-.3-1.7-.4-2.4-.2h0ZM44.8,42.5c-1.2.4-2.2,1.6-2.4,2.7-.5,2.3,1.8,4.5,4.1,4.1,1.7-.4,3-2.1,2.9-3.7-.1-1.2-1-2.3-2.1-2.9-.7-.3-1.7-.4-2.4-.2h0ZM58.9,42.5c-1.2.4-2.2,1.6-2.4,2.7-.5,2.3,1.8,4.5,4.1,4.1,1.7-.4,3-2.1,2.9-3.7-.1-1.2-1-2.3-2.1-2.9-.7-.3-1.7-.4-2.4-.2h0ZM73,42.5c-1.2.4-2.2,1.6-2.4,2.7-.5,2.3,1.8,4.5,4.1,4.1,1.7-.4,3-2.1,2.9-3.7-.1-1.2-1-2.3-2.1-2.9-.7-.3-1.7-.4-2.4-.2h0ZM87.1,42.5c-1.2.4-2.2,1.6-2.4,2.7-.5,2.3,1.8,4.5,4.1,4.1,1.7-.4,3-2.1,2.9-3.7-.1-1.2-1-2.3-2.1-2.9-.7-.3-1.7-.4-2.4-.2h0ZM101.2,42.5c-1.2.4-2.2,1.6-2.4,2.7-.5,2.3,1.8,4.5,4.1,4.1,1.7-.4,3-2.1,2.9-3.7-.1-1.2-1-2.3-2.1-2.9-.7-.3-1.7-.4-2.4-.2h0ZM115.3,42.5c-1.2.4-2.2,1.6-2.4,2.7-.5,2.3,1.8,4.5,4.1,4.1,1.7-.4,3-2.1,2.9-3.7-.1-1.2-1-2.3-2.1-2.9-.7-.3-1.7-.4-2.4-.2h0ZM129.5,42.5c-1.2.4-2.2,1.6-2.4,2.7-.5,2.3,1.8,4.5,4.1,4.1,1.7-.4,3-2.1,2.9-3.7-.1-1.2-1-2.3-2.1-2.9-.7-.3-1.7-.4-2.4-.2h0ZM2.5,56.6c-1.2.4-2.2,1.6-2.4,2.7-.5,2.3,1.8,4.5,4.1,4.1,1.7-.4,3-2.1,2.9-3.7-.1-1.2-1-2.3-2.1-2.9-.7-.3-1.7-.4-2.4-.2ZM16.6,56.6c-1.2.4-2.2,1.6-2.4,2.7-.5,2.3,1.8,4.5,4.1,4.1,1.7-.4,3-2.1,2.9-3.7-.1-1.2-1-2.3-2.1-2.9-.7-.3-1.7-.4-2.4-.2h0ZM30.7,56.6c-1.2.4-2.2,1.6-2.4,2.7-.5,2.3,1.8,4.5,4.1,4.1,1.7-.4,3-2.1,2.9-3.7-.1-1.2-1-2.3-2.1-2.9-.7-.3-1.7-.4-2.4-.2h0ZM44.8,56.6c-1.2.4-2.2,1.6-2.4,2.7-.5,2.3,1.8,4.5,4.1,4.1,1.7-.4,3-2.1,2.9-3.7-.1-1.2-1-2.3-2.1-2.9-.7-.3-1.7-.4-2.4-.2h0ZM58.9,56.6c-1.2.4-2.2,1.6-2.4,2.7-.5,2.3,1.8,4.5,4.1,4.1,1.7-.4,3-2.1,2.9-3.7-.1-1.2-1-2.3-2.1-2.9-.7-.3-1.7-.4-2.4-.2ZM73,56.6c-1.2.4-2.2,1.6-2.4,2.7-.5,2.3,1.8,4.5,4.1,4.1,1.7-.4,3-2.1,2.9-3.7-.1-1.2-1-2.3-2.1-2.9-.7-.3-1.7-.4-2.4-.2ZM87.1,56.6c-1.2.4-2.2,1.6-2.4,2.7-.5,2.3,1.8,4.5,4.1,4.1,1.7-.4,3-2.1,2.9-3.7-.1-1.2-1-2.3-2.1-2.9-.7-.3-1.7-.4-2.4-.2ZM101.2,56.6c-1.2.4-2.2,1.6-2.4,2.7-.5,2.3,1.8,4.5,4.1,4.1,1.7-.4,3-2.1,2.9-3.7-.1-1.2-1-2.3-2.1-2.9-.7-.3-1.7-.4-2.4-.2ZM115.3,56.6c-1.2.4-2.2,1.6-2.4,2.7-.5,2.3,1.8,4.5,4.1,4.1,1.7-.4,3-2.1,2.9-3.7-.1-1.2-1-2.3-2.1-2.9-.7-.3-1.7-.4-2.4-.2h0ZM129.5,56.6c-1.2.4-2.2,1.6-2.4,2.7-.5,2.3,1.8,4.5,4.1,4.1,1.7-.4,3-2.1,2.9-3.7-.1-1.2-1-2.3-2.1-2.9-.7-.3-1.7-.4-2.4-.2h0ZM2.5,70.7c-1.2.4-2.2,1.6-2.4,2.7-.5,2.3,1.8,4.5,4.1,4.1,1.7-.4,3-2.1,2.9-3.7-.1-1.2-1-2.3-2.1-2.9-.7-.3-1.7-.4-2.4-.2h0ZM16.6,70.7c-1.2.4-2.2,1.6-2.4,2.7-.5,2.3,1.8,4.5,4.1,4.1,1.7-.4,3-2.1,2.9-3.7-.1-1.2-1-2.3-2.1-2.9-.7-.3-1.7-.4-2.4-.2h0ZM30.7,70.7c-1.2.4-2.2,1.6-2.4,2.7-.5,2.3,1.8,4.5,4.1,4.1,1.7-.4,3-2.1,2.9-3.7-.1-1.2-1-2.3-2.1-2.9-.7-.3-1.7-.4-2.4-.2h0ZM44.8,70.7c-1.2.4-2.2,1.6-2.4,2.7-.5,2.3,1.8,4.5,4.1,4.1,1.7-.4,3-2.1,2.9-3.7-.1-1.2-1-2.3-2.1-2.9-.7-.3-1.7-.4-2.4-.2h0ZM58.9,70.7c-1.2.4-2.2,1.6-2.4,2.7-.5,2.3,1.8,4.5,4.1,4.1,1.7-.4,3-2.1,2.9-3.7-.1-1.2-1-2.3-2.1-2.9-.7-.3-1.7-.4-2.4-.2h0ZM73,70.7c-1.2.4-2.2,1.6-2.4,2.7-.5,2.3,1.8,4.5,4.1,4.1,1.7-.4,3-2.1,2.9-3.7-.1-1.2-1-2.3-2.1-2.9-.7-.3-1.7-.4-2.4-.2h0ZM87.1,70.7c-1.2.4-2.2,1.6-2.4,2.7-.5,2.3,1.8,4.5,4.1,4.1,1.7-.4,3-2.1,2.9-3.7-.1-1.2-1-2.3-2.1-2.9-.7-.3-1.7-.4-2.4-.2h0ZM101.2,70.7c-1.2.4-2.2,1.6-2.4,2.7-.5,2.3,1.8,4.5,4.1,4.1,1.7-.4,3-2.1,2.9-3.7-.1-1.2-1-2.3-2.1-2.9-.7-.3-1.7-.4-2.4-.2h0ZM115.3,70.7c-1.2.4-2.2,1.6-2.4,2.7-.5,2.3,1.8,4.5,4.1,4.1,1.7-.4,3-2.1,2.9-3.7-.1-1.2-1-2.3-2.1-2.9-.7-.3-1.7-.4-2.4-.2h0ZM129.5,70.7c-1.2.4-2.2,1.6-2.4,2.7-.5,2.3,1.8,4.5,4.1,4.1,1.7-.4,3-2.1,2.9-3.7-.1-1.2-1-2.3-2.1-2.9-.7-.3-1.7-.4-2.4-.2h0ZM2.5,84.8c-1.2.4-2.2,1.6-2.4,2.7-.5,2.3,1.8,4.5,4.1,4.1,1.7-.4,3-2.1,2.9-3.7-.1-1.2-1-2.3-2.1-2.9-.7-.3-1.7-.4-2.4-.2h0ZM16.6,84.8c-1.2.4-2.2,1.6-2.4,2.7-.5,2.3,1.8,4.5,4.1,4.1,1.7-.4,3-2.1,2.9-3.7-.1-1.2-1-2.3-2.1-2.9-.7-.3-1.7-.4-2.4-.2h0ZM30.7,84.8c-1.2.4-2.2,1.6-2.4,2.7-.3,1.3.4,2.7,1.6,3.5,1.2.8,2.5.8,3.7,0,2-1.3,2.2-3.7.6-5.3-.9-.9-2.3-1.3-3.4-.9h0ZM44.8,84.8c-1.2.4-2.2,1.6-2.4,2.7-.3,1.3.4,2.7,1.6,3.5,1.2.8,2.5.8,3.7,0,2-1.3,2.2-3.7.6-5.3-.9-.9-2.3-1.3-3.4-.9h0ZM58.9,84.8c-1.7.6-2.8,2.4-2.4,4,.3,1.3,1.5,2.5,2.8,2.8,2.1.5,4.3-1.6,4.1-3.7-.1-1.2-1-2.3-2.1-2.9-.7-.3-1.7-.4-2.4-.2h0ZM73,84.8c-1.7.6-2.8,2.4-2.4,4,.3,1.3,1.5,2.5,2.8,2.8,2.1.5,4.3-1.6,4.1-3.7-.1-1.2-1-2.3-2.1-2.9-.7-.3-1.7-.4-2.4-.2h0ZM87.1,84.8c-1.7.6-2.8,2.4-2.4,4,.3,1.3,1.5,2.5,2.8,2.8,2.1.5,4.3-1.6,4.1-3.7-.1-1.2-1-2.3-2.1-2.9-.7-.3-1.7-.4-2.4-.2h0ZM101.2,84.8c-1.7.6-2.8,2.4-2.4,4,.3,1.3,1.5,2.5,2.8,2.8,2.1.5,4.3-1.6,4.1-3.7-.1-1.2-1-2.3-2.1-2.9-.7-.3-1.7-.4-2.4-.2h0ZM115.3,84.8c-1.2.4-2.2,1.6-2.4,2.7-.5,2.3,1.8,4.5,4.1,4.1,1.7-.4,3-2.1,2.9-3.7-.1-1.2-1-2.3-2.1-2.9-.7-.3-1.7-.4-2.4-.2h0ZM129.5,84.8c-1.2.4-2.2,1.6-2.4,2.7-.5,2.3,1.8,4.5,4.1,4.1,1.7-.4,3-2.1,2.9-3.7-.1-1.2-1-2.3-2.1-2.9-.7-.3-1.7-.4-2.4-.2h0ZM2.5,98.9c-1.2.4-2.2,1.6-2.4,2.7-.5,2.3,1.8,4.5,4.1,4.1,1.7-.4,3-2.1,2.9-3.7-.1-1.2-1-2.3-2.1-2.9-.7-.3-1.7-.4-2.4-.2h0ZM16.6,98.9c-1.2.4-2.2,1.6-2.4,2.7-.5,2.3,1.8,4.5,4.1,4.1,1.7-.4,3-2.1,2.9-3.7-.1-1.2-1-2.3-2.1-2.9-.7-.3-1.7-.4-2.4-.2h0ZM30.7,98.9c-1.2.4-2.2,1.6-2.4,2.7-.3,1.3.4,2.7,1.6,3.5,1.2.8,2.5.8,3.7,0,2-1.3,2.2-3.7.6-5.3-.9-.9-2.3-1.3-3.4-.9h0ZM44.8,98.9c-1.2.4-2.2,1.6-2.4,2.7-.3,1.3.4,2.7,1.6,3.5,1.2.8,2.5.8,3.7,0,2-1.3,2.2-3.7.6-5.3-.9-.9-2.3-1.3-3.4-.9h0ZM58.9,98.9c-1.7.6-2.8,2.4-2.4,4,.3,1.3,1.5,2.5,2.8,2.8,2.1.5,4.3-1.6,4.1-3.7-.1-1.2-1-2.3-2.1-2.9-.7-.3-1.7-.4-2.4-.2h0ZM73,98.9c-1.7.6-2.8,2.4-2.4,4,.3,1.3,1.5,2.5,2.8,2.8,2.1.5,4.3-1.6,4.1-3.7-.1-1.2-1-2.3-2.1-2.9-.7-.3-1.7-.4-2.4-.2h0ZM87.1,98.9c-1.7.6-2.8,2.4-2.4,4,.3,1.3,1.5,2.5,2.8,2.8,2.1.5,4.3-1.6,4.1-3.7-.1-1.2-1-2.3-2.1-2.9-.7-.3-1.7-.4-2.4-.2h0ZM101.2,98.9c-1.7.6-2.8,2.4-2.4,4,.3,1.3,1.5,2.5,2.8,2.8,2.1.5,4.3-1.6,4.1-3.7-.1-1.2-1-2.3-2.1-2.9-.7-.3-1.7-.4-2.4-.2h0ZM115.3,98.9c-1.2.4-2.2,1.6-2.4,2.7-.5,2.3,1.8,4.5,4.1,4.1,1.7-.4,3-2.1,2.9-3.7-.1-1.2-1-2.3-2.1-2.9-.7-.3-1.7-.4-2.4-.2h0ZM129.5,98.9c-1.2.4-2.2,1.6-2.4,2.7-.5,2.3,1.8,4.5,4.1,4.1,1.7-.4,3-2.1,2.9-3.7-.1-1.2-1-2.3-2.1-2.9-.7-.3-1.7-.4-2.4-.2h0ZM2.5,113c-1.2.4-2.2,1.6-2.4,2.7-.5,2.3,1.8,4.5,4.1,4.1,1.7-.4,3-2.1,2.9-3.7-.1-1.2-1-2.3-2.1-2.9-.7-.3-1.7-.4-2.4-.2h0ZM16.6,113c-1.2.4-2.2,1.6-2.4,2.7-.5,2.3,1.8,4.5,4.1,4.1,1.7-.4,3-2.1,2.9-3.7-.1-1.2-1-2.3-2.1-2.9-.7-.3-1.7-.4-2.4-.2h0ZM30.7,113c-1.2.4-2.2,1.6-2.4,2.7-.3,1.3.4,2.7,1.6,3.5,1.2.8,2.5.8,3.7,0,2-1.3,2.2-3.7.6-5.3-.9-.9-2.3-1.3-3.4-.9h0ZM44.8,113c-1.2.4-2.2,1.6-2.4,2.7-.3,1.3.4,2.7,1.6,3.5,1.2.8,2.5.8,3.7,0,2-1.3,2.2-3.7.6-5.3-.9-.9-2.3-1.3-3.4-.9h0ZM58.9,113c-1.2.4-2.2,1.6-2.4,2.7-.5,2.3,1.8,4.5,4.1,4.1,1.7-.4,3-2.1,2.9-3.7-.1-1.2-1-2.3-2.1-2.9-.7-.3-1.7-.4-2.4-.2h0ZM73,113c-1.2.4-2.2,1.6-2.4,2.7-.5,2.3,1.8,4.5,4.1,4.1,1.7-.4,3-2.1,2.9-3.7-.1-1.2-1-2.3-2.1-2.9-.7-.3-1.7-.4-2.4-.2h0ZM87.1,113c-1.2.4-2.2,1.6-2.4,2.7-.5,2.3,1.8,4.5,4.1,4.1,1.7-.4,3-2.1,2.9-3.7-.1-1.2-1-2.3-2.1-2.9-.7-.3-1.7-.4-2.4-.2h0ZM101.2,113c-1.2.4-2.2,1.6-2.4,2.7-.5,2.3,1.8,4.5,4.1,4.1,1.7-.4,3-2.1,2.9-3.7-.1-1.2-1-2.3-2.1-2.9-.7-.3-1.7-.4-2.4-.2h0ZM115.3,113c-1.2.4-2.2,1.6-2.4,2.7-.5,2.3,1.8,4.5,4.1,4.1,1.7-.4,3-2.1,2.9-3.7-.1-1.2-1-2.3-2.1-2.9-.7-.3-1.7-.4-2.4-.2h0ZM129.5,113c-1.2.4-2.2,1.6-2.4,2.7-.5,2.3,1.8,4.5,4.1,4.1,1.7-.4,3-2.1,2.9-3.7-.1-1.2-1-2.3-2.1-2.9-.7-.3-1.7-.4-2.4-.2h0ZM2.5,127.1c-1.2.4-2.2,1.6-2.4,2.7-.5,2.3,1.8,4.5,4.1,4.1,1.7-.4,3-2.1,2.9-3.7-.1-1.2-1-2.3-2.1-2.9-.7-.3-1.7-.4-2.4-.2h0ZM16.6,127.1c-1.2.4-2.2,1.6-2.4,2.7-.5,2.3,1.8,4.5,4.1,4.1,1.7-.4,3-2.1,2.9-3.7-.1-1.2-1-2.3-2.1-2.9-.7-.3-1.7-.4-2.4-.2h0ZM30.7,127.1c-1.2.4-2.2,1.6-2.4,2.7-.5,2.3,1.8,4.5,4.1,4.1,1.7-.4,3-2.1,2.9-3.7-.1-1.2-1-2.3-2.1-2.9-.7-.3-1.7-.4-2.4-.2h0ZM44.8,127.1c-1.2.4-2.2,1.6-2.4,2.7-.5,2.3,1.8,4.5,4.1,4.1,1.7-.4,3-2.1,2.9-3.7-.1-1.2-1-2.3-2.1-2.9-.7-.3-1.7-.4-2.4-.2h0ZM58.9,127.1c-1.2.4-2.2,1.6-2.4,2.7-.5,2.3,1.8,4.5,4.1,4.1,1.7-.4,3-2.1,2.9-3.7-.1-1.2-1-2.3-2.1-2.9-.7-.3-1.7-.4-2.4-.2h0ZM73,127.1c-1.2.4-2.2,1.6-2.4,2.7-.5,2.3,1.8,4.5,4.1,4.1,1.7-.4,3-2.1,2.9-3.7-.1-1.2-1-2.3-2.1-2.9-.7-.3-1.7-.4-2.4-.2h0ZM87.1,127.1c-1.2.4-2.2,1.6-2.4,2.7-.5,2.3,1.8,4.5,4.1,4.1,1.7-.4,3-2.1,2.9-3.7-.1-1.2-1-2.3-2.1-2.9-.7-.3-1.7-.4-2.4-.2h0ZM101.2,127.1c-1.2.4-2.2,1.6-2.4,2.7-.5,2.3,1.8,4.5,4.1,4.1,1.7-.4,3-2.1,2.9-3.7-.1-1.2-1-2.3-2.1-2.9-.7-.3-1.7-.4-2.4-.2h0ZM115.3,127.1c-1.2.4-2.2,1.6-2.4,2.7-.5,2.3,1.8,4.5,4.1,4.1,1.7-.4,3-2.1,2.9-3.7-.1-1.2-1-2.3-2.1-2.9-.7-.3-1.7-.4-2.4-.2h0ZM129.5,127.1c-1.2.4-2.2,1.6-2.4,2.7-.5,2.3,1.8,4.5,4.1,4.1,1.7-.4,3-2.1,2.9-3.7-.1-1.2-1-2.3-2.1-2.9-.7-.3-1.7-.4-2.4-.2h0Z"/>
      <path fill="#77C1F2" d="M143.6.2c-1.2.4-2.2,1.6-2.4,2.7-.5,2.3,1.8,4.5,4.1,4.1,1.7-.4,3-2.1,2.9-3.7-.1-1.2-1-2.3-2.1-2.9-.7-.3-1.7-.4-2.4-.2h0ZM157.7.2c-1.7.6-2.8,2.4-2.4,4,.3,1.3,1.5,2.5,2.8,2.8,2.1.5,4.4-1.6,4.1-3.7-.1-1.2-1-2.3-2.1-2.9-.7-.3-1.7-.4-2.4-.2h0ZM171.8.2c-1.2.4-2.2,1.6-2.4,2.7-.5,2.3,1.8,4.5,4.1,4.1,1.7-.4,3-2.1,2.9-3.7-.1-1.2-1-2.3-2.1-2.9-.7-.3-1.7-.4-2.4-.2h0ZM185.9.2c-1.2.4-2.2,1.6-2.4,2.7-.5,2.3,1.8,4.5,4.1,4.1,1.7-.4,3-2.1,2.9-3.7-.1-1.2-1-2.3-2.1-2.9-.7-.3-1.7-.4-2.4-.2h0ZM200,.2c-1.2.4-2.2,1.6-2.4,2.7-.5,2.3,1.8,4.5,4.1,4.1,1.7-.4,3-2.1,2.9-3.7-.1-1.2-1-2.3-2.1-2.9-.7-.3-1.7-.4-2.4-.2h0ZM214.1.2c-1.2.4-2.2,1.6-2.4,2.7-.5,2.3,1.8,4.5,4.1,4.1,1.7-.4,3-2.1,2.9-3.7-.1-1.2-1-2.3-2.1-2.9-.7-.3-1.7-.4-2.4-.2h0ZM228.2.2c-1.2.4-2.2,1.6-2.4,2.7-.5,2.3,1.8,4.5,4.1,4.1,1.7-.4,3-2.1,2.9-3.7-.1-1.2-1-2.3-2.1-2.9-.7-.3-1.7-.4-2.4-.2h0ZM242.3.2c-1.2.4-2.2,1.6-2.4,2.7-.5,2.3,1.8,4.5,4.1,4.1,1.7-.4,3-2.1,2.9-3.7-.1-1.2-1-2.3-2.1-2.9-.7-.3-1.7-.4-2.4-.2ZM256.4.2c-1.2.4-2.2,1.6-2.4,2.7-.3,1.3.4,2.7,1.6,3.5,1.2.8,2.5.8,3.7,0,2-1.3,2.2-3.7.6-5.3-.9-.9-2.3-1.3-3.4-.9h0ZM270.5.2c-1.2.4-2.2,1.6-2.4,2.7-.3,1.3.4,2.7,1.6,3.5,1.2.8,2.5.8,3.7,0,2-1.3,2.2-3.7.6-5.3-.9-.9-2.3-1.3-3.4-.9h0ZM143.6,14.3c-1.2.4-2.2,1.6-2.4,2.7-.5,2.3,1.8,4.5,4.1,4.1,1.7-.4,3-2.1,2.9-3.7-.1-1.2-1-2.3-2.1-2.9-.7-.3-1.7-.4-2.4-.2h0ZM157.7,14.3c-1.7.6-2.8,2.4-2.4,4,.3,1.3,1.5,2.5,2.8,2.8,2.1.5,4.4-1.6,4.1-3.7-.1-1.2-1-2.3-2.1-2.9-.7-.3-1.7-.4-2.4-.2h0ZM171.8,14.3c-1.2.4-2.2,1.6-2.4,2.7-.5,2.3,1.8,4.5,4.1,4.1,1.7-.4,3-2.1,2.9-3.7-.1-1.2-1-2.3-2.1-2.9-.7-.3-1.7-.4-2.4-.2h0ZM185.9,14.3c-1.2.4-2.2,1.6-2.4,2.7-.5,2.3,1.8,4.5,4.1,4.1,1.7-.4,3-2.1,2.9-3.7-.1-1.2-1-2.3-2.1-2.9-.7-.3-1.7-.4-2.4-.2h0ZM200,14.3c-1.2.4-2.2,1.6-2.4,2.7-.5,2.3,1.8,4.5,4.1,4.1,1.7-.4,3-2.1,2.9-3.7-.1-1.2-1-2.3-2.1-2.9-.7-.3-1.7-.4-2.4-.2h0ZM214.1,14.3c-1.2.4-2.2,1.6-2.4,2.7-.5,2.3,1.8,4.5,4.1,4.1,1.7-.4,3-2.1,2.9-3.7-.1-1.2-1-2.3-2.1-2.9-.7-.3-1.7-.4-2.4-.2h0ZM228.2,14.3c-1.2.4-2.2,1.6-2.4,2.7-.5,2.3,1.8,4.5,4.1,4.1,1.7-.4,3-2.1,2.9-3.7-.1-1.2-1-2.3-2.1-2.9-.7-.3-1.7-.4-2.4-.2h0ZM242.3,14.3c-1.2.4-2.2,1.6-2.4,2.7-.5,2.3,1.8,4.5,4.1,4.1,1.7-.4,3-2.1,2.9-3.7-.1-1.2-1-2.3-2.1-2.9-.7-.3-1.7-.4-2.4-.2h0ZM256.4,14.3c-1.2.4-2.2,1.6-2.4,2.7-.3,1.3.4,2.7,1.6,3.5,1.2.8,2.5.8,3.7,0,2-1.3,2.2-3.7.6-5.3-.9-.9-2.3-1.3-3.4-.9h0ZM270.5,14.3c-1.2.4-2.2,1.6-2.4,2.7-.3,1.3.4,2.7,1.6,3.5,1.2.8,2.5.8,3.7,0,2-1.3,2.2-3.7.6-5.3-.9-.9-2.3-1.3-3.4-.9h0ZM143.6,28.4c-1.2.4-2.2,1.6-2.4,2.7-.5,2.3,1.8,4.5,4.1,4.1,1.7-.4,3-2.1,2.9-3.7-.1-1.2-1-2.3-2.1-2.9-.7-.3-1.7-.4-2.4-.2h0ZM157.7,28.4c-1.2.4-2.2,1.6-2.4,2.7-.5,2.3,1.8,4.5,4.1,4.1,1.7-.4,3-2.1,2.9-3.7-.1-1.2-1-2.3-2.1-2.9-.7-.3-1.7-.4-2.4-.2h0ZM171.8,28.4c-1.2.4-2.2,1.6-2.4,2.7-.5,2.3,1.8,4.5,4.1,4.1,1.7-.4,3-2.1,2.9-3.7-.1-1.2-1-2.3-2.1-2.9-.7-.3-1.7-.4-2.4-.2h0ZM185.9,28.4c-1.2.4-2.2,1.6-2.4,2.7-.5,2.3,1.8,4.5,4.1,4.1,1.7-.4,3-2.1,2.9-3.7-.1-1.2-1-2.3-2.1-2.9-.7-.3-1.7-.4-2.4-.2h0ZM200,28.4c-1.2.4-2.2,1.6-2.4,2.7-.5,2.3,1.8,4.5,4.1,4.1,1.7-.4,3-2.1,2.9-3.7-.1-1.2-1-2.3-2.1-2.9-.7-.3-1.7-.4-2.4-.2h0ZM214.1,28.4c-1.2.4-2.2,1.6-2.4,2.7-.5,2.3,1.8,4.5,4.1,4.1,1.7-.4,3-2.1,2.9-3.7-.1-1.2-1-2.3-2.1-2.9-.7-.3-1.7-.4-2.4-.2h0ZM228.2,28.4c-1.2.4-2.2,1.6-2.4,2.7-.5,2.3,1.8,4.5,4.1,4.1,1.7-.4,3-2.1,2.9-3.7-.1-1.2-1-2.3-2.1-2.9-.7-.3-1.7-.4-2.4-.2h0ZM242.3,28.4c-1.2.4-2.2,1.6-2.4,2.7-.5,2.3,1.8,4.5,4.1,4.1,1.7-.4,3-2.1,2.9-3.7-.1-1.2-1-2.3-2.1-2.9-.7-.3-1.7-.4-2.4-.2h0ZM256.4,28.4c-1.2.4-2.2,1.6-2.4,2.7-.5,2.3,1.8,4.5,4.1,4.1,1.7-.4,3-2.1,2.9-3.7-.1-1.2-1-2.3-2.1-2.9-.7-.3-1.7-.4-2.4-.2h0ZM270.5,28.4c-1.2.4-2.2,1.6-2.4,2.7-.5,2.3,1.8,4.5,4.1,4.1,1.7-.4,3-2.1,2.9-3.7-.1-1.2-1-2.3-2.1-2.9-.7-.3-1.7-.4-2.4-.2h0ZM143.6,42.5c-1.2.4-2.2,1.6-2.4,2.7-.5,2.3,1.8,4.5,4.1,4.1,1.7-.4,3-2.1,2.9-3.7-.1-1.2-1-2.3-2.1-2.9-.7-.3-1.7-.4-2.4-.2h0ZM157.7,42.5c-1.2.4-2.2,1.6-2.4,2.7-.5,2.3,1.8,4.5,4.1,4.1,1.7-.4,3-2.1,2.9-3.7-.1-1.2-1-2.3-2.1-2.9-.7-.3-1.7-.4-2.4-.2h0ZM171.8,42.5c-1.2.4-2.2,1.6-2.4,2.7-.5,2.3,1.8,4.5,4.1,4.1,1.7-.4,3-2.1,2.9-3.7-.1-1.2-1-2.3-2.1-2.9-.7-.3-1.7-.4-2.4-.2h0ZM185.9,42.5c-1.2.4-2.2,1.6-2.4,2.7-.5,2.3,1.8,4.5,4.1,4.1,1.7-.4,3-2.1,2.9-3.7-.1-1.2-1-2.3-2.1-2.9-.7-.3-1.7-.4-2.4-.2h0ZM200,42.5c-1.2.4-2.2,1.6-2.4,2.7-.5,2.3,1.8,4.5,4.1,4.1,1.7-.4,3-2.1,2.9-3.7-.1-1.2-1-2.3-2.1-2.9-.7-.3-1.7-.4-2.4-.2h0ZM214.1,42.5c-1.2.4-2.2,1.6-2.4,2.7-.5,2.3,1.8,4.5,4.1,4.1,1.7-.4,3-2.1,2.9-3.7-.1-1.2-1-2.3-2.1-2.9-.7-.3-1.7-.4-2.4-.2h0ZM228.2,42.5c-1.2.4-2.2,1.6-2.4,2.7-.5,2.3,1.8,4.5,4.1,4.1,1.7-.4,3-2.1,2.9-3.7-.1-1.2-1-2.3-2.1-2.9-.7-.3-1.7-.4-2.4-.2h0ZM242.3,42.5c-1.2.4-2.2,1.6-2.4,2.7-.5,2.3,1.8,4.5,4.1,4.1,1.7-.4,3-2.1,2.9-3.7-.1-1.2-1-2.3-2.1-2.9-.7-.3-1.7-.4-2.4-.2h0ZM256.4,42.5c-1.2.4-2.2,1.6-2.4,2.7-.5,2.3,1.8,4.5,4.1,4.1,1.7-.4,3-2.1,2.9-3.7-.1-1.2-1-2.3-2.1-2.9-.7-.3-1.7-.4-2.4-.2h0ZM270.5,42.5c-1.2.4-2.2,1.6-2.4,2.7-.5,2.3,1.8,4.5,4.1,4.1,1.7-.4,3-2.1,2.9-3.7-.1-1.2-1-2.3-2.1-2.9-.7-.3-1.7-.4-2.4-.2h0ZM143.6,56.6c-1.2.4-2.2,1.6-2.4,2.7-.5,2.3,1.8,4.5,4.1,4.1,1.7-.4,3-2.1,2.9-3.7-.1-1.2-1-2.3-2.1-2.9-.7-.3-1.7-.4-2.4-.2h0ZM157.7,56.6c-1.2.4-2.2,1.6-2.4,2.7-.5,2.3,1.8,4.5,4.1,4.1,1.7-.4,3-2.1,2.9-3.7-.1-1.2-1-2.3-2.1-2.9-.7-.3-1.7-.4-2.4-.2h0ZM171.8,56.6c-1.2.4-2.2,1.6-2.4,2.7-.5,2.3,1.8,4.5,4.1,4.1,1.7-.4,3-2.1,2.9-3.7-.1-1.2-1-2.3-2.1-2.9-.7-.3-1.7-.4-2.4-.2h0ZM185.9,56.6c-1.2.4-2.2,1.6-2.4,2.7-.5,2.3,1.8,4.5,4.1,4.1,1.7-.4,3-2.1,2.9-3.7-.1-1.2-1-2.3-2.1-2.9-.7-.3-1.7-.4-2.4-.2h0ZM200,56.6c-1.2.4-2.2,1.6-2.4,2.7-.5,2.3,1.8,4.5,4.1,4.1,1.7-.4,3-2.1,2.9-3.7-.1-1.2-1-2.3-2.1-2.9-.7-.3-1.7-.4-2.4-.2h0ZM214.1,56.6c-1.2.4-2.2,1.6-2.4,2.7-.5,2.3,1.8,4.5,4.1,4.1,1.7-.4,3-2.1,2.9-3.7-.1-1.2-1-2.3-2.1-2.9-.7-.3-1.7-.4-2.4-.2h0ZM228.2,56.6c-1.2.4-2.2,1.6-2.4,2.7-.5,2.3,1.8,4.5,4.1,4.1,1.7-.4,3-2.1,2.9-3.7-.1-1.2-1-2.3-2.1-2.9-.7-.3-1.7-.4-2.4-.2h0ZM242.3,56.6c-1.2.4-2.2,1.6-2.4,2.7-.5,2.3,1.8,4.5,4.1,4.1,1.7-.4,3-2.1,2.9-3.7-.1-1.2-1-2.3-2.1-2.9-.7-.3-1.7-.4-2.4-.2h0ZM256.4,56.6c-1.2.4-2.2,1.6-2.4,2.7-.5,2.3,1.8,4.5,4.1,4.1,1.7-.4,3-2.1,2.9-3.7-.1-1.2-1-2.3-2.1-2.9-.7-.3-1.7-.4-2.4-.2h0ZM270.5,56.6c-1.2.4-2.2,1.6-2.4,2.7-.5,2.3,1.8,4.5,4.1,4.1,1.7-.4,3-2.1,2.9-3.7-.1-1.2-1-2.3-2.1-2.9-.7-.3-1.7-.4-2.4-.2h0ZM143.6,70.7c-1.2.4-2.2,1.6-2.4,2.7-.5,2.3,1.8,4.5,4.1,4.1,1.7-.4,3-2.1,2.9-3.7-.1-1.2-1-2.3-2.1-2.9-.7-.3-1.7-.4-2.4-.2h0ZM157.7,70.7c-1.2.4-2.2,1.6-2.4,2.7-.5,2.3,1.8,4.5,4.1,4.1,1.7-.4,3-2.1,2.9-3.7-.1-1.2-1-2.3-2.1-2.9-.7-.3-1.7-.4-2.4-.2h0ZM171.8,70.7c-1.2.4-2.2,1.6-2.4,2.7-.5,2.3,1.8,4.5,4.1,4.1,1.7-.4,3-2.1,2.9-3.7-.1-1.2-1-2.3-2.1-2.9-.7-.3-1.7-.4-2.4-.2h0ZM185.9,70.7c-1.2.4-2.2,1.6-2.4,2.7-.5,2.3,1.8,4.5,4.1,4.1,1.7-.4,3-2.1,2.9-3.7-.1-1.2-1-2.3-2.1-2.9-.7-.3-1.7-.4-2.4-.2h0ZM200,70.7c-1.2.4-2.2,1.6-2.4,2.7-.5,2.3,1.8,4.5,4.1,4.1,1.7-.4,3-2.1,2.9-3.7-.1-1.2-1-2.3-2.1-2.9-.7-.3-1.7-.4-2.4-.2h0ZM214.1,70.7c-1.2.4-2.2,1.6-2.4,2.7-.5,2.3,1.8,4.5,4.1,4.1,1.7-.4,3-2.1,2.9-3.7-.1-1.2-1-2.3-2.1-2.9-.7-.3-1.7-.4-2.4-.2h0ZM228.2,70.7c-1.2.4-2.2,1.6-2.4,2.7-.5,2.3,1.8,4.5,4.1,4.1,1.7-.4,3-2.1,2.9-3.7-.1-1.2-1-2.3-2.1-2.9-.7-.3-1.7-.4-2.4-.2h0ZM242.3,70.7c-1.2.4-2.2,1.6-2.4,2.7-.5,2.3,1.8,4.5,4.1,4.1,1.7-.4,3-2.1,2.9-3.7-.1-1.2-1-2.3-2.1-2.9-.7-.3-1.7-.4-2.4-.2h0ZM256.4,70.7c-1.2.4-2.2,1.6-2.4,2.7-.5,2.3,1.8,4.5,4.1,4.1,1.7-.4,3-2.1,2.9-3.7-.1-1.2-1-2.3-2.1-2.9-.7-.3-1.7-.4-2.4-.2h0ZM270.5,70.7c-1.2.4-2.2,1.6-2.4,2.7-.5,2.3,1.8,4.5,4.1,4.1,1.7-.4,3-2.1,2.9-3.7-.1-1.2-1-2.3-2.1-2.9-.7-.3-1.7-.4-2.4-.2h0ZM143.6,84.8c-1.2.4-2.2,1.6-2.4,2.7-.5,2.3,1.8,4.5,4.1,4.1,1.7-.4,3-2.1,2.9-3.7-.1-1.2-1-2.3-2.1-2.9-.7-.3-1.7-.4-2.4-.2h0ZM157.7,84.8c-1.2.4-2.2,1.6-2.4,2.7-.5,2.3,1.8,4.5,4.1,4.1,1.7-.4,3-2.1,2.9-3.7-.1-1.2-1-2.3-2.1-2.9-.7-.3-1.7-.4-2.4-.2h0ZM171.8,84.8c-1.2.4-2.2,1.6-2.4,2.7-.3,1.3.4,2.7,1.6,3.5,1.2.8,2.5.8,3.7,0,2-1.3,2.2-3.7.6-5.3-.9-.9-2.3-1.3-3.4-.9h0ZM185.9,84.8c-1.2.4-2.2,1.6-2.4,2.7-.3,1.3.4,2.7,1.6,3.5,1.2.8,2.5.8,3.7,0,2-1.3,2.2-3.7.6-5.3-.9-.9-2.3-1.3-3.4-.9h0ZM200,84.8c-1.7.6-2.8,2.4-2.4,4,.3,1.3,1.5,2.5,2.8,2.8,2.1.5,4.3-1.6,4.1-3.7-.1-1.2-1-2.3-2.1-2.9-.7-.3-1.7-.4-2.4-.2h0ZM214.1,84.8c-1.7.6-2.8,2.4-2.4,4,.3,1.3,1.5,2.5,2.8,2.8,2.1.5,4.3-1.6,4.1-3.7-.1-1.2-1-2.3-2.1-2.9-.7-.3-1.7-.4-2.4-.2h0ZM228.2,84.8c-1.7.6-2.8,2.4-2.4,4,.3,1.3,1.5,2.5,2.8,2.8,2.1.5,4.3-1.6,4.1-3.7-.1-1.2-1-2.3-2.1-2.9-.7-.3-1.7-.4-2.4-.2h0ZM242.3,84.8c-1.7.6-2.8,2.4-2.4,4,.3,1.3,1.5,2.5,2.8,2.8,2.1.5,4.3-1.6,4.1-3.7-.1-1.2-1-2.3-2.1-2.9-.7-.3-1.7-.4-2.4-.2h0ZM256.4,84.8c-1.2.4-2.2,1.6-2.4,2.7-.5,2.3,1.8,4.5,4.1,4.1,1.7-.4,3-2.1,2.9-3.7-.1-1.2-1-2.3-2.1-2.9-.7-.3-1.7-.4-2.4-.2h0ZM270.5,84.8c-1.2.4-2.2,1.6-2.4,2.7-.5,2.3,1.8,4.5,4.1,4.1,1.7-.4,3-2.1,2.9-3.7-.1-1.2-1-2.3-2.1-2.9-.7-.3-1.7-.4-2.4-.2h0ZM143.6,98.9c-1.2.4-2.2,1.6-2.4,2.7-.5,2.3,1.8,4.5,4.1,4.1,1.7-.4,3-2.1,2.9-3.7-.1-1.2-1-2.3-2.1-2.9-.7-.3-1.7-.4-2.4-.2h0ZM157.7,98.9c-1.2.4-2.2,1.6-2.4,2.7-.5,2.3,1.8,4.5,4.1,4.1,1.7-.4,3-2.1,2.9-3.7-.1-1.2-1-2.3-2.1-2.9-.7-.3-1.7-.4-2.4-.2h0ZM171.8,98.9c-1.2.4-2.2,1.6-2.4,2.7-.3,1.3.4,2.7,1.6,3.5,1.2.8,2.5.8,3.7,0,2-1.3,2.2-3.7.6-5.3-.9-.9-2.3-1.3-3.4-.9h0ZM185.9,98.9c-1.2.4-2.2,1.6-2.4,2.7-.3,1.3.4,2.7,1.6,3.5,1.2.8,2.5.8,3.7,0,2-1.3,2.2-3.7.6-5.3-.9-.9-2.3-1.3-3.4-.9h0ZM200,98.9c-1.7.6-2.8,2.4-2.4,4,.3,1.3,1.5,2.5,2.8,2.8,2.1.5,4.3-1.6,4.1-3.7-.1-1.2-1-2.3-2.1-2.9-.7-.3-1.7-.4-2.4-.2h0ZM214.1,98.9c-1.7.6-2.8,2.4-2.4,4,.3,1.3,1.5,2.5,2.8,2.8,2.1.5,4.3-1.6,4.1-3.7-.1-1.2-1-2.3-2.1-2.9-.7-.3-1.7-.4-2.4-.2h0ZM228.2,98.9c-1.7.6-2.8,2.4-2.4,4,.3,1.3,1.5,2.5,2.8,2.8,2.1.5,4.3-1.6,4.1-3.7-.1-1.2-1-2.3-2.1-2.9-.7-.3-1.7-.4-2.4-.2h0ZM242.3,98.9c-1.7.6-2.8,2.4-2.4,4,.3,1.3,1.5,2.5,2.8,2.8,2.1.5,4.3-1.6,4.1-3.7-.1-1.2-1-2.3-2.1-2.9-.7-.3-1.7-.4-2.4-.2h0ZM256.4,98.9c-1.2.4-2.2,1.6-2.4,2.7-.5,2.3,1.8,4.5,4.1,4.1,1.7-.4,3-2.1,2.9-3.7-.1-1.2-1-2.3-2.1-2.9-.7-.3-1.7-.4-2.4-.2h0ZM270.5,98.9c-1.2.4-2.2,1.6-2.4,2.7-.5,2.3,1.8,4.5,4.1,4.1,1.7-.4,3-2.1,2.9-3.7-.1-1.2-1-2.3-2.1-2.9-.7-.3-1.7-.4-2.4-.2h0ZM143.6,113c-1.2.4-2.2,1.6-2.4,2.7-.5,2.3,1.8,4.5,4.1,4.1,1.7-.4,3-2.1,2.9-3.7-.1-1.2-1-2.3-2.1-2.9-.7-.3-1.7-.4-2.4-.2h0ZM157.7,113c-1.2.4-2.2,1.6-2.4,2.7-.5,2.3,1.8,4.5,4.1,4.1,1.7-.4,3-2.1,2.9-3.7-.1-1.2-1-2.3-2.1-2.9-.7-.3-1.7-.4-2.4-.2h0ZM171.8,113c-1.2.4-2.2,1.6-2.4,2.7-.3,1.3.4,2.7,1.6,3.5,1.2.8,2.5.8,3.7,0,2-1.3,2.2-3.7.6-5.3-.9-.9-2.3-1.3-3.4-.9h0ZM185.9,113c-1.2.4-2.2,1.6-2.4,2.7-.3,1.3.4,2.7,1.6,3.5,1.2.8,2.5.8,3.7,0,2-1.3,2.2-3.7.6-5.3-.9-.9-2.3-1.3-3.4-.9h0ZM200,113c-1.2.4-2.2,1.6-2.4,2.7-.5,2.3,1.8,4.5,4.1,4.1,1.7-.4,3-2.1,2.9-3.7-.1-1.2-1-2.3-2.1-2.9-.7-.3-1.7-.4-2.4-.2h0ZM214.1,113c-1.2.4-2.2,1.6-2.4,2.7-.5,2.3,1.8,4.5,4.1,4.1,1.7-.4,3-2.1,2.9-3.7-.1-1.2-1-2.3-2.1-2.9-.7-.3-1.7-.4-2.4-.2h0ZM228.2,113c-1.2.4-2.2,1.6-2.4,2.7-.5,2.3,1.8,4.5,4.1,4.1,1.7-.4,3-2.1,2.9-3.7-.1-1.2-1-2.3-2.1-2.9-.7-.3-1.7-.4-2.4-.2h0ZM242.3,113c-1.2.4-2.2,1.6-2.4,2.7-.5,2.3,1.8,4.5,4.1,4.1,1.7-.4,3-2.1,2.9-3.7-.1-1.2-1-2.3-2.1-2.9-.7-.3-1.7-.4-2.4-.2h0ZM256.4,113c-1.2.4-2.2,1.6-2.4,2.7-.5,2.3,1.8,4.5,4.1,4.1,1.7-.4,3-2.1,2.9-3.7-.1-1.2-1-2.3-2.1-2.9-.7-.3-1.7-.4-2.4-.2h0ZM270.5,113c-1.2.4-2.2,1.6-2.4,2.7-.5,2.3,1.8,4.5,4.1,4.1,1.7-.4,3-2.1,2.9-3.7-.1-1.2-1-2.3-2.1-2.9-.7-.3-1.7-.4-2.4-.2h0ZM143.6,127.1c-1.2.4-2.2,1.6-2.4,2.7-.5,2.3,1.8,4.5,4.1,4.1,1.7-.4,3-2.1,2.9-3.7-.1-1.2-1-2.3-2.1-2.9-.7-.3-1.7-.4-2.4-.2h0ZM157.7,127.1c-1.2.4-2.2,1.6-2.4,2.7-.5,2.3,1.8,4.5,4.1,4.1,1.7-.4,3-2.1,2.9-3.7-.1-1.2-1-2.3-2.1-2.9-.7-.3-1.7-.4-2.4-.2h0ZM171.8,127.1c-1.2.4-2.2,1.6-2.4,2.7-.5,2.3,1.8,4.5,4.1,4.1,1.7-.4,3-2.1,2.9-3.7-.1-1.2-1-2.3-2.1-2.9-.7-.3-1.7-.4-2.4-.2h0ZM185.9,127.1c-1.2.4-2.2,1.6-2.4,2.7-.5,2.3,1.8,4.5,4.1,4.1,1.7-.4,3-2.1,2.9-3.7-.1-1.2-1-2.3-2.1-2.9-.7-.3-1.7-.4-2.4-.2h0ZM200,127.1c-1.2.4-2.2,1.6-2.4,2.7-.5,2.3,1.8,4.5,4.1,4.1,1.7-.4,3-2.1,2.9-3.7-.1-1.2-1-2.3-2.1-2.9-.7-.3-1.7-.4-2.4-.2h0ZM214.1,127.1c-1.2.4-2.2,1.6-2.4,2.7-.5,2.3,1.8,4.5,4.1,4.1,1.7-.4,3-2.1,2.9-3.7-.1-1.2-1-2.3-2.1-2.9-.7-.3-1.7-.4-2.4-.2h0ZM228.2,127.1c-1.2.4-2.2,1.6-2.4,2.7-.5,2.3,1.8,4.5,4.1,4.1,1.7-.4,3-2.1,2.9-3.7-.1-1.2-1-2.3-2.1-2.9-.7-.3-1.7-.4-2.4-.2h0ZM242.3,127.1c-1.2.4-2.2,1.6-2.4,2.7-.5,2.3,1.8,4.5,4.1,4.1,1.7-.4,3-2.1,2.9-3.7-.1-1.2-1-2.3-2.1-2.9-.7-.3-1.7-.4-2.4-.2h0ZM256.4,127.1c-1.2.4-2.2,1.6-2.4,2.7-.5,2.3,1.8,4.5,4.1,4.1,1.7-.4,3-2.1,2.9-3.7-.1-1.2-1-2.3-2.1-2.9-.7-.3-1.7-.4-2.4-.2h0ZM270.5,127.1c-1.2.4-2.2,1.6-2.4,2.7-.5,2.3,1.8,4.5,4.1,4.1,1.7-.4,3-2.1,2.9-3.7-.1-1.2-1-2.3-2.1-2.9-.7-.3-1.7-.4-2.4-.2h0Z"/>
      <path fill="#77C1F2" d="M2.5,141.2c-1.2.4-2.2,1.6-2.4,2.7-.5,2.3,1.8,4.5,4.1,4.1,1.7-.4,3-2.1,2.9-3.7-.1-1.2-1-2.3-2.1-2.9-.7-.3-1.7-.4-2.4-.2h0ZM16.6,141.2c-1.7.6-2.8,2.4-2.4,4,.3,1.3,1.5,2.5,2.8,2.8,2.1.5,4.4-1.6,4.1-3.7-.1-1.2-1-2.3-2.1-2.9-.7-.3-1.7-.4-2.4-.2h0ZM30.7,141.2c-1.2.4-2.2,1.6-2.4,2.7-.5,2.3,1.8,4.5,4.1,4.1,1.7-.4,3-2.1,2.9-3.7-.1-1.2-1-2.3-2.1-2.9-.7-.3-1.7-.4-2.4-.2h0ZM44.8,141.2c-1.2.4-2.2,1.6-2.4,2.7-.5,2.3,1.8,4.5,4.1,4.1,1.7-.4,3-2.1,2.9-3.7-.1-1.2-1-2.3-2.1-2.9-.7-.3-1.7-.4-2.4-.2h0ZM58.9,141.2c-1.2.4-2.2,1.6-2.4,2.7-.5,2.3,1.8,4.5,4.1,4.1,1.7-.4,3-2.1,2.9-3.7-.1-1.2-1-2.3-2.1-2.9-.7-.3-1.7-.4-2.4-.2h0ZM73,141.2c-1.2.4-2.2,1.6-2.4,2.7-.5,2.3,1.8,4.5,4.1,4.1,1.7-.4,3-2.1,2.9-3.7-.1-1.2-1-2.3-2.1-2.9-.7-.3-1.7-.4-2.4-.2h0ZM87.1,141.2c-1.2.4-2.2,1.6-2.4,2.7-.5,2.3,1.8,4.5,4.1,4.1,1.7-.4,3-2.1,2.9-3.7-.1-1.2-1-2.3-2.1-2.9-.7-.3-1.7-.4-2.4-.2h0ZM101.2,141.2c-1.2.4-2.2,1.6-2.4,2.7-.5,2.3,1.8,4.5,4.1,4.1,1.7-.4,3-2.1,2.9-3.7-.1-1.2-1-2.3-2.1-2.9-.7-.3-1.7-.4-2.4-.2h0ZM115.3,141.2c-1.2.4-2.2,1.6-2.4,2.7-.3,1.3.4,2.7,1.6,3.5,1.2.8,2.5.8,3.7,0,2-1.3,2.2-3.7.6-5.3-.9-.9-2.3-1.3-3.4-.9h0ZM129.5,141.2c-1.2.4-2.2,1.6-2.4,2.7-.3,1.3.4,2.7,1.6,3.5,1.2.8,2.5.8,3.7,0,2-1.3,2.2-3.7.6-5.3-.9-.9-2.3-1.3-3.4-.9h0ZM2.5,155.3c-1.2.4-2.2,1.6-2.4,2.7-.5,2.3,1.8,4.5,4.1,4.1,1.7-.4,3-2.1,2.9-3.7-.1-1.2-1-2.3-2.1-2.9-.7-.3-1.7-.4-2.4-.2h0ZM16.6,155.3c-1.7.6-2.8,2.4-2.4,4,.3,1.3,1.5,2.5,2.8,2.8,2.1.5,4.4-1.6,4.1-3.7-.1-1.2-1-2.3-2.1-2.9-.7-.3-1.7-.4-2.4-.2h0ZM30.7,155.3c-1.2.4-2.2,1.6-2.4,2.7-.5,2.3,1.8,4.5,4.1,4.1,1.7-.4,3-2.1,2.9-3.7-.1-1.2-1-2.3-2.1-2.9-.7-.3-1.7-.4-2.4-.2h0ZM44.8,155.3c-1.2.4-2.2,1.6-2.4,2.7-.5,2.3,1.8,4.5,4.1,4.1,1.7-.4,3-2.1,2.9-3.7-.1-1.2-1-2.3-2.1-2.9-.7-.3-1.7-.4-2.4-.2h0ZM58.9,155.3c-1.2.4-2.2,1.6-2.4,2.7-.5,2.3,1.8,4.5,4.1,4.1,1.7-.4,3-2.1,2.9-3.7-.1-1.2-1-2.3-2.1-2.9-.7-.3-1.7-.4-2.4-.2h0ZM73,155.3c-1.2.4-2.2,1.6-2.4,2.7-.5,2.3,1.8,4.5,4.1,4.1,1.7-.4,3-2.1,2.9-3.7-.1-1.2-1-2.3-2.1-2.9-.7-.3-1.7-.4-2.4-.2h0ZM87.1,155.3c-1.2.4-2.2,1.6-2.4,2.7-.5,2.3,1.8,4.5,4.1,4.1,1.7-.4,3-2.1,2.9-3.7-.1-1.2-1-2.3-2.1-2.9-.7-.3-1.7-.4-2.4-.2h0ZM101.2,155.3c-1.2.4-2.2,1.6-2.4,2.7-.5,2.3,1.8,4.5,4.1,4.1,1.7-.4,3-2.1,2.9-3.7-.1-1.2-1-2.3-2.1-2.9-.7-.3-1.7-.4-2.4-.2h0ZM115.3,155.3c-1.2.4-2.2,1.6-2.4,2.7-.3,1.3.4,2.7,1.6,3.5,1.2.8,2.5.8,3.7,0,2-1.3,2.2-3.7.6-5.3-.9-.9-2.3-1.3-3.4-.9h0ZM129.5,155.3c-1.2.4-2.2,1.6-2.4,2.7-.3,1.3.4,2.7,1.6,3.5,1.2.8,2.5.8,3.7,0,2-1.3,2.2-3.7.6-5.3-.9-.9-2.3-1.3-3.4-.9h0ZM2.5,169.4c-1.2.4-2.2,1.6-2.4,2.7-.5,2.3,1.8,4.5,4.1,4.1,1.7-.4,3-2.1,2.9-3.7-.1-1.2-1-2.3-2.1-2.9-.7-.3-1.7-.4-2.4-.2h0ZM16.6,169.4c-1.2.4-2.2,1.6-2.4,2.7-.5,2.3,1.8,4.5,4.1,4.1,1.7-.4,3-2.1,2.9-3.7-.1-1.2-1-2.3-2.1-2.9-.7-.3-1.7-.4-2.4-.2h0ZM30.7,169.4c-1.2.4-2.2,1.6-2.4,2.7-.5,2.3,1.8,4.5,4.1,4.1,1.7-.4,3-2.1,2.9-3.7-.1-1.2-1-2.3-2.1-2.9-.7-.3-1.7-.4-2.4-.2h0ZM44.8,169.4c-1.2.4-2.2,1.6-2.4,2.7-.5,2.3,1.8,4.5,4.1,4.1,1.7-.4,3-2.1,2.9-3.7-.1-1.2-1-2.3-2.1-2.9-.7-.3-1.7-.4-2.4-.2h0ZM58.9,169.4c-1.2.4-2.2,1.6-2.4,2.7-.5,2.3,1.8,4.5,4.1,4.1,1.7-.4,3-2.1,2.9-3.7-.1-1.2-1-2.3-2.1-2.9-.7-.3-1.7-.4-2.4-.2h0ZM73,169.4c-1.2.4-2.2,1.6-2.4,2.7-.5,2.3,1.8,4.5,4.1,4.1,1.7-.4,3-2.1,2.9-3.7-.1-1.2-1-2.3-2.1-2.9-.7-.3-1.7-.4-2.4-.2h0ZM87.1,169.4c-1.2.4-2.2,1.6-2.4,2.7-.5,2.3,1.8,4.5,4.1,4.1,1.7-.4,3-2.1,2.9-3.7-.1-1.2-1-2.3-2.1-2.9-.7-.3-1.7-.4-2.4-.2h0ZM101.2,169.4c-1.2.4-2.2,1.6-2.4,2.7-.5,2.3,1.8,4.5,4.1,4.1,1.7-.4,3-2.1,2.9-3.7-.1-1.2-1-2.3-2.1-2.9-.7-.3-1.7-.4-2.4-.2h0ZM115.3,169.4c-1.2.4-2.2,1.6-2.4,2.7-.5,2.3,1.8,4.5,4.1,4.1,1.7-.4,3-2.1,2.9-3.7-.1-1.2-1-2.3-2.1-2.9-.7-.3-1.7-.4-2.4-.2h0ZM129.5,169.4c-1.2.4-2.2,1.6-2.4,2.7-.5,2.3,1.8,4.5,4.1,4.1,1.7-.4,3-2.1,2.9-3.7-.1-1.2-1-2.3-2.1-2.9-.7-.3-1.7-.4-2.4-.2h0ZM2.5,183.5c-1.2.4-2.2,1.6-2.4,2.7-.5,2.3,1.8,4.5,4.1,4.1,1.7-.4,3-2.1,2.9-3.7-.1-1.2-1-2.3-2.1-2.9-.7-.3-1.7-.4-2.4-.2h0ZM16.6,183.5c-1.2.4-2.2,1.6-2.4,2.7-.5,2.3,1.8,4.5,4.1,4.1,1.7-.4,3-2.1,2.9-3.7-.1-1.2-1-2.3-2.1-2.9-.7-.3-1.7-.4-2.4-.2h0ZM30.7,183.5c-1.2.4-2.2,1.6-2.4,2.7-.5,2.3,1.8,4.5,4.1,4.1,1.7-.4,3-2.1,2.9-3.7-.1-1.2-1-2.3-2.1-2.9-.7-.3-1.7-.4-2.4-.2h0ZM44.8,183.5c-1.2.4-2.2,1.6-2.4,2.7-.5,2.3,1.8,4.5,4.1,4.1,1.7-.4,3-2.1,2.9-3.7-.1-1.2-1-2.3-2.1-2.9-.7-.3-1.7-.4-2.4-.2h0ZM58.9,183.5c-1.2.4-2.2,1.6-2.4,2.7-.5,2.3,1.8,4.5,4.1,4.1,1.7-.4,3-2.1,2.9-3.7-.1-1.2-1-2.3-2.1-2.9-.7-.3-1.7-.4-2.4-.2h0ZM73,183.5c-1.2.4-2.2,1.6-2.4,2.7-.5,2.3,1.8,4.5,4.1,4.1,1.7-.4,3-2.1,2.9-3.7-.1-1.2-1-2.3-2.1-2.9-.7-.3-1.7-.4-2.4-.2h0ZM87.1,183.5c-1.2.4-2.2,1.6-2.4,2.7-.5,2.3,1.8,4.5,4.1,4.1,1.7-.4,3-2.1,2.9-3.7-.1-1.2-1-2.3-2.1-2.9-.7-.3-1.7-.4-2.4-.2h0ZM101.2,183.5c-1.2.4-2.2,1.6-2.4,2.7-.5,2.3,1.8,4.5,4.1,4.1,1.7-.4,3-2.1,2.9-3.7-.1-1.2-1-2.3-2.1-2.9-.7-.3-1.7-.4-2.4-.2h0ZM115.3,183.5c-1.2.4-2.2,1.6-2.4,2.7-.5,2.3,1.8,4.5,4.1,4.1,1.7-.4,3-2.1,2.9-3.7-.1-1.2-1-2.3-2.1-2.9-.7-.3-1.7-.4-2.4-.2h0ZM129.5,183.5c-1.2.4-2.2,1.6-2.4,2.7-.5,2.3,1.8,4.5,4.1,4.1,1.7-.4,3-2.1,2.9-3.7-.1-1.2-1-2.3-2.1-2.9-.7-.3-1.7-.4-2.4-.2h0ZM2.5,197.6c-1.2.4-2.2,1.6-2.4,2.7-.5,2.3,1.8,4.5,4.1,4.1,1.7-.4,3-2.1,2.9-3.7-.1-1.2-1-2.3-2.1-2.9-.7-.3-1.7-.4-2.4-.2h0ZM16.6,197.6c-1.2.4-2.2,1.6-2.4,2.7-.5,2.3,1.8,4.5,4.1,4.1,1.7-.4,3-2.1,2.9-3.7-.1-1.2-1-2.3-2.1-2.9-.7-.3-1.7-.4-2.4-.2h0ZM30.7,197.6c-1.2.4-2.2,1.6-2.4,2.7-.5,2.3,1.8,4.5,4.1,4.1,1.7-.4,3-2.1,2.9-3.7-.1-1.2-1-2.3-2.1-2.9-.7-.3-1.7-.4-2.4-.2h0ZM44.8,197.6c-1.2.4-2.2,1.6-2.4,2.7-.5,2.3,1.8,4.5,4.1,4.1,1.7-.4,3-2.1,2.9-3.7-.1-1.2-1-2.3-2.1-2.9-.7-.3-1.7-.4-2.4-.2h0ZM58.9,197.6c-1.2.4-2.2,1.6-2.4,2.7-.5,2.3,1.8,4.5,4.1,4.1,1.7-.4,3-2.1,2.9-3.7-.1-1.2-1-2.3-2.1-2.9-.7-.3-1.7-.4-2.4-.2h0ZM73,197.6c-1.2.4-2.2,1.6-2.4,2.7-.5,2.3,1.8,4.5,4.1,4.1,1.7-.4,3-2.1,2.9-3.7-.1-1.2-1-2.3-2.1-2.9-.7-.3-1.7-.4-2.4-.2h0ZM87.1,197.6c-1.2.4-2.2,1.6-2.4,2.7-.5,2.3,1.8,4.5,4.1,4.1,1.7-.4,3-2.1,2.9-3.7-.1-1.2-1-2.3-2.1-2.9-.7-.3-1.7-.4-2.4-.2h0ZM101.2,197.6c-1.2.4-2.2,1.6-2.4,2.7-.5,2.3,1.8,4.5,4.1,4.1,1.7-.4,3-2.1,2.9-3.7-.1-1.2-1-2.3-2.1-2.9-.7-.3-1.7-.4-2.4-.2h0ZM115.3,197.6c-1.2.4-2.2,1.6-2.4,2.7-.5,2.3,1.8,4.5,4.1,4.1,1.7-.4,3-2.1,2.9-3.7-.1-1.2-1-2.3-2.1-2.9-.7-.3-1.7-.4-2.4-.2h0ZM129.5,197.6c-1.2.4-2.2,1.6-2.4,2.7-.5,2.3,1.8,4.5,4.1,4.1,1.7-.4,3-2.1,2.9-3.7-.1-1.2-1-2.3-2.1-2.9-.7-.3-1.7-.4-2.4-.2h0ZM2.5,211.7c-1.2.4-2.2,1.6-2.4,2.7-.5,2.3,1.8,4.5,4.1,4.1,1.7-.4,3-2.1,2.9-3.7-.1-1.2-1-2.3-2.1-2.9-.7-.3-1.7-.4-2.4-.2h0ZM16.6,211.7c-1.2.4-2.2,1.6-2.4,2.7-.5,2.3,1.8,4.5,4.1,4.1,1.7-.4,3-2.1,2.9-3.7-.1-1.2-1-2.3-2.1-2.9-.7-.3-1.7-.4-2.4-.2h0ZM30.7,211.7c-1.2.4-2.2,1.6-2.4,2.7-.5,2.3,1.8,4.5,4.1,4.1,1.7-.4,3-2.1,2.9-3.7-.1-1.2-1-2.3-2.1-2.9-.7-.3-1.7-.4-2.4-.2h0ZM44.8,211.7c-1.2.4-2.2,1.6-2.4,2.7-.5,2.3,1.8,4.5,4.1,4.1,1.7-.4,3-2.1,2.9-3.7-.1-1.2-1-2.3-2.1-2.9-.7-.3-1.7-.4-2.4-.2h0ZM58.9,211.7c-1.2.4-2.2,1.6-2.4,2.7-.5,2.3,1.8,4.5,4.1,4.1,1.7-.4,3-2.1,2.9-3.7-.1-1.2-1-2.3-2.1-2.9-.7-.3-1.7-.4-2.4-.2h0ZM73,211.7c-1.2.4-2.2,1.6-2.4,2.7-.5,2.3,1.8,4.5,4.1,4.1,1.7-.4,3-2.1,2.9-3.7-.1-1.2-1-2.3-2.1-2.9-.7-.3-1.7-.4-2.4-.2h0ZM87.1,211.7c-1.2.4-2.2,1.6-2.4,2.7-.5,2.3,1.8,4.5,4.1,4.1,1.7-.4,3-2.1,2.9-3.7-.1-1.2-1-2.3-2.1-2.9-.7-.3-1.7-.4-2.4-.2h0ZM101.2,211.7c-1.2.4-2.2,1.6-2.4,2.7-.5,2.3,1.8,4.5,4.1,4.1,1.7-.4,3-2.1,2.9-3.7-.1-1.2-1-2.3-2.1-2.9-.7-.3-1.7-.4-2.4-.2h0ZM115.3,211.7c-1.2.4-2.2,1.6-2.4,2.7-.5,2.3,1.8,4.5,4.1,4.1,1.7-.4,3-2.1,2.9-3.7-.1-1.2-1-2.3-2.1-2.9-.7-.3-1.7-.4-2.4-.2h0ZM129.5,211.7c-1.2.4-2.2,1.6-2.4,2.7-.5,2.3,1.8,4.5,4.1,4.1,1.7-.4,3-2.1,2.9-3.7-.1-1.2-1-2.3-2.1-2.9-.7-.3-1.7-.4-2.4-.2h0ZM2.5,225.8c-1.2.4-2.2,1.6-2.4,2.7-.5,2.3,1.8,4.5,4.1,4.1,1.7-.4,3-2.1,2.9-3.7-.1-1.2-1-2.3-2.1-2.9-.7-.3-1.7-.4-2.4-.2h0ZM16.6,225.8c-1.2.4-2.2,1.6-2.4,2.7-.5,2.3,1.8,4.5,4.1,4.1,1.7-.4,3-2.1,2.9-3.7-.1-1.2-1-2.3-2.1-2.9-.7-.3-1.7-.4-2.4-.2h0ZM30.7,225.8c-1.2.4-2.2,1.6-2.4,2.7-.3,1.3.4,2.7,1.6,3.5,1.2.8,2.5.8,3.7,0,2-1.3,2.2-3.7.6-5.3-.9-.9-2.3-1.3-3.4-.9h0ZM44.8,225.8c-1.2.4-2.2,1.6-2.4,2.7-.3,1.3.4,2.7,1.6,3.5,1.2.8,2.5.8,3.7,0,2-1.3,2.2-3.7.6-5.3-.9-.9-2.3-1.3-3.4-.9h0ZM58.9,225.8c-1.7.6-2.8,2.4-2.4,4,.3,1.3,1.5,2.5,2.8,2.8,2.1.5,4.3-1.6,4.1-3.7-.1-1.2-1-2.3-2.1-2.9-.7-.3-1.7-.4-2.4-.2h0ZM73,225.8c-1.7.6-2.8,2.4-2.4,4,.3,1.3,1.5,2.5,2.8,2.8,2.1.5,4.3-1.6,4.1-3.7-.1-1.2-1-2.3-2.1-2.9-.7-.3-1.7-.4-2.4-.2h0ZM87.1,225.8c-1.7.6-2.8,2.4-2.4,4,.3,1.3,1.5,2.5,2.8,2.8,2.1.5,4.3-1.6,4.1-3.7-.1-1.2-1-2.3-2.1-2.9-.7-.3-1.7-.4-2.4-.2h0ZM101.2,225.8c-1.7.6-2.8,2.4-2.4,4,.3,1.3,1.5,2.5,2.8,2.8,2.1.5,4.3-1.6,4.1-3.7-.1-1.2-1-2.3-2.1-2.9-.7-.3-1.7-.4-2.4-.2h0ZM115.3,225.8c-1.2.4-2.2,1.6-2.4,2.7-.5,2.3,1.8,4.5,4.1,4.1,1.7-.4,3-2.1,2.9-3.7-.1-1.2-1-2.3-2.1-2.9-.7-.3-1.7-.4-2.4-.2h0ZM129.5,225.8c-1.2.4-2.2,1.6-2.4,2.7-.5,2.3,1.8,4.5,4.1,4.1,1.7-.4,3-2.1,2.9-3.7-.1-1.2-1-2.3-2.1-2.9-.7-.3-1.7-.4-2.4-.2h0ZM2.5,239.9c-1.2.4-2.2,1.6-2.4,2.7-.5,2.3,1.8,4.5,4.1,4.1,1.7-.4,3-2.1,2.9-3.7-.1-1.2-1-2.3-2.1-2.9-.7-.3-1.7-.4-2.4-.2h0ZM16.6,239.9c-1.2.4-2.2,1.6-2.4,2.7-.5,2.3,1.8,4.5,4.1,4.1,1.7-.4,3-2.1,2.9-3.7-.1-1.2-1-2.3-2.1-2.9-.7-.3-1.7-.4-2.4-.2h0ZM30.7,239.9c-1.2.4-2.2,1.6-2.4,2.7-.3,1.3.4,2.7,1.6,3.5,1.2.8,2.5.8,3.7,0,2-1.3,2.2-3.7.6-5.3-.9-.9-2.3-1.3-3.4-.9h0ZM44.8,239.9c-1.2.4-2.2,1.6-2.4,2.7-.3,1.3.4,2.7,1.6,3.5,1.2.8,2.5.8,3.7,0,2-1.3,2.2-3.7.6-5.3-.9-.9-2.3-1.3-3.4-.9h0ZM58.9,239.9c-1.7.6-2.8,2.4-2.4,4,.3,1.3,1.5,2.5,2.8,2.8,2.1.5,4.3-1.6,4.1-3.7-.1-1.2-1-2.3-2.1-2.9-.7-.3-1.7-.4-2.4-.2h0ZM73,239.9c-1.7.6-2.8,2.4-2.4,4,.3,1.3,1.5,2.5,2.8,2.8,2.1.5,4.3-1.6,4.1-3.7-.1-1.2-1-2.3-2.1-2.9-.7-.3-1.7-.4-2.4-.2h0ZM87.1,239.9c-1.7.6-2.8,2.4-2.4,4,.3,1.3,1.5,2.5,2.8,2.8,2.1.5,4.3-1.6,4.1-3.7-.1-1.2-1-2.3-2.1-2.9-.7-.3-1.7-.4-2.4-.2h0ZM101.2,239.9c-1.7.6-2.8,2.4-2.4,4,.3,1.3,1.5,2.5,2.8,2.8,2.1.5,4.3-1.6,4.1-3.7-.1-1.2-1-2.3-2.1-2.9-.7-.3-1.7-.4-2.4-.2h0ZM115.3,239.9c-1.2.4-2.2,1.6-2.4,2.7-.5,2.3,1.8,4.5,4.1,4.1,1.7-.4,3-2.1,2.9-3.7-.1-1.2-1-2.3-2.1-2.9-.7-.3-1.7-.4-2.4-.2h0ZM129.5,239.9c-1.2.4-2.2,1.6-2.4,2.7-.5,2.3,1.8,4.5,4.1,4.1,1.7-.4,3-2.1,2.9-3.7-.1-1.2-1-2.3-2.1-2.9-.7-.3-1.7-.4-2.4-.2h0ZM2.5,254c-1.2.4-2.2,1.6-2.4,2.7-.5,2.3,1.8,4.5,4.1,4.1,1.7-.4,3-2.1,2.9-3.7-.1-1.2-1-2.3-2.1-2.9-.7-.3-1.7-.4-2.4-.2h0ZM16.6,254c-1.2.4-2.2,1.6-2.4,2.7-.5,2.3,1.8,4.5,4.1,4.1,1.7-.4,3-2.1,2.9-3.7-.1-1.2-1-2.3-2.1-2.9-.7-.3-1.7-.4-2.4-.2h0ZM30.7,254c-1.2.4-2.2,1.6-2.4,2.7-.3,1.3.4,2.7,1.6,3.5,1.2.8,2.5.8,3.7,0,2-1.3,2.2-3.7.6-5.3-.9-.9-2.3-1.3-3.4-.9h0ZM44.8,254c-1.2.4-2.2,1.6-2.4,2.7-.3,1.3.4,2.7,1.6,3.5,1.2.8,2.5.8,3.7,0,2-1.3,2.2-3.7.6-5.3-.9-.9-2.3-1.3-3.4-.9h0ZM58.9,254c-1.2.4-2.2,1.6-2.4,2.7-.5,2.3,1.8,4.5,4.1,4.1,1.7-.4,3-2.1,2.9-3.7-.1-1.2-1-2.3-2.1-2.9-.7-.3-1.7-.4-2.4-.2h0ZM73,254c-1.2.4-2.2,1.6-2.4,2.7-.5,2.3,1.8,4.5,4.1,4.1,1.7-.4,3-2.1,2.9-3.7-.1-1.2-1-2.3-2.1-2.9-.7-.3-1.7-.4-2.4-.2h0ZM87.1,254c-1.2.4-2.2,1.6-2.4,2.7-.5,2.3,1.8,4.5,4.1,4.1,1.7-.4,3-2.1,2.9-3.7-.1-1.2-1-2.3-2.1-2.9-.7-.3-1.7-.4-2.4-.2h0ZM101.2,254c-1.2.4-2.2,1.6-2.4,2.7-.5,2.3,1.8,4.5,4.1,4.1,1.7-.4,3-2.1,2.9-3.7-.1-1.2-1-2.3-2.1-2.9-.7-.3-1.7-.4-2.4-.2h0ZM115.3,254c-1.2.4-2.2,1.6-2.4,2.7-.5,2.3,1.8,4.5,4.1,4.1,1.7-.4,3-2.1,2.9-3.7-.1-1.2-1-2.3-2.1-2.9-.7-.3-1.7-.4-2.4-.2h0ZM129.5,254c-1.2.4-2.2,1.6-2.4,2.7-.5,2.3,1.8,4.5,4.1,4.1,1.7-.4,3-2.1,2.9-3.7-.1-1.2-1-2.3-2.1-2.9-.7-.3-1.7-.4-2.4-.2h0ZM2.5,268.1c-1.2.4-2.2,1.6-2.4,2.7-.5,2.3,1.8,4.5,4.1,4.1,1.7-.4,3-2.1,2.9-3.7-.1-1.2-1-2.3-2.1-2.9-.7-.3-1.7-.4-2.4-.2h0ZM16.6,268.1c-1.2.4-2.2,1.6-2.4,2.7-.5,2.3,1.8,4.5,4.1,4.1,1.7-.4,3-2.1,2.9-3.7-.1-1.2-1-2.3-2.1-2.9-.7-.3-1.7-.4-2.4-.2h0ZM30.7,268.1c-1.2.4-2.2,1.6-2.4,2.7-.5,2.3,1.8,4.5,4.1,4.1,1.7-.4,3-2.1,2.9-3.7-.1-1.2-1-2.3-2.1-2.9-.7-.3-1.7-.4-2.4-.2h0ZM44.8,268.1c-1.2.4-2.2,1.6-2.4,2.7-.5,2.3,1.8,4.5,4.1,4.1,1.7-.4,3-2.1,2.9-3.7-.1-1.2-1-2.3-2.1-2.9-.7-.3-1.7-.4-2.4-.2h0ZM58.9,268.1c-1.2.4-2.2,1.6-2.4,2.7-.5,2.3,1.8,4.5,4.1,4.1,1.7-.4,3-2.1,2.9-3.7-.1-1.2-1-2.3-2.1-2.9-.7-.3-1.7-.4-2.4-.2h0ZM73,268.1c-1.2.4-2.2,1.6-2.4,2.7-.5,2.3,1.8,4.5,4.1,4.1,1.7-.4,3-2.1,2.9-3.7-.1-1.2-1-2.3-2.1-2.9-.7-.3-1.7-.4-2.4-.2h0ZM87.1,268.1c-1.2.4-2.2,1.6-2.4,2.7-.5,2.3,1.8,4.5,4.1,4.1,1.7-.4,3-2.1,2.9-3.7-.1-1.2-1-2.3-2.1-2.9-.7-.3-1.7-.4-2.4-.2h0ZM101.2,268.1c-1.2.4-2.2,1.6-2.4,2.7-.5,2.3,1.8,4.5,4.1,4.1,1.7-.4,3-2.1,2.9-3.7-.1-1.2-1-2.3-2.1-2.9-.7-.3-1.7-.4-2.4-.2h0ZM115.3,268.1c-1.2.4-2.2,1.6-2.4,2.7-.5,2.3,1.8,4.5,4.1,4.1,1.7-.4,3-2.1,2.9-3.7-.1-1.2-1-2.3-2.1-2.9-.7-.3-1.7-.4-2.4-.2h0ZM129.5,268.1c-1.2.4-2.2,1.6-2.4,2.7-.5,2.3,1.8,4.5,4.1,4.1,1.7-.4,3-2.1,2.9-3.7-.1-1.2-1-2.3-2.1-2.9-.7-.3-1.7-.4-2.4-.2h0Z"/>
      <path fill="#77C1F2" d="M143.6,141.2c-1.2.4-2.2,1.6-2.4,2.7-.5,2.3,1.8,4.5,4.1,4.1,1.7-.4,3-2.1,2.9-3.7-.1-1.2-1-2.3-2.1-2.9-.7-.3-1.7-.4-2.4-.2h0ZM157.7,141.2c-1.7.6-2.8,2.4-2.4,4,.3,1.3,1.5,2.5,2.8,2.8,2.1.5,4.4-1.6,4.1-3.7-.1-1.2-1-2.3-2.1-2.9-.7-.3-1.7-.4-2.4-.2h0ZM171.8,141.2c-1.2.4-2.2,1.6-2.4,2.7-.5,2.3,1.8,4.5,4.1,4.1,1.7-.4,3-2.1,2.9-3.7-.1-1.2-1-2.3-2.1-2.9-.7-.3-1.7-.4-2.4-.2h0ZM185.9,141.2c-1.2.4-2.2,1.6-2.4,2.7-.5,2.3,1.8,4.5,4.1,4.1,1.7-.4,3-2.1,2.9-3.7-.1-1.2-1-2.3-2.1-2.9-.7-.3-1.7-.4-2.4-.2h0ZM200,141.2c-1.2.4-2.2,1.6-2.4,2.7-.5,2.3,1.8,4.5,4.1,4.1,1.7-.4,3-2.1,2.9-3.7-.1-1.2-1-2.3-2.1-2.9-.7-.3-1.7-.4-2.4-.2h0ZM214.1,141.2c-1.2.4-2.2,1.6-2.4,2.7-.5,2.3,1.8,4.5,4.1,4.1,1.7-.4,3-2.1,2.9-3.7-.1-1.2-1-2.3-2.1-2.9-.7-.3-1.7-.4-2.4-.2h0ZM228.2,141.2c-1.2.4-2.2,1.6-2.4,2.7-.5,2.3,1.8,4.5,4.1,4.1,1.7-.4,3-2.1,2.9-3.7-.1-1.2-1-2.3-2.1-2.9-.7-.3-1.7-.4-2.4-.2h0ZM242.3,141.2c-1.2.4-2.2,1.6-2.4,2.7-.5,2.3,1.8,4.5,4.1,4.1,1.7-.4,3-2.1,2.9-3.7-.1-1.2-1-2.3-2.1-2.9-.7-.3-1.7-.4-2.4-.2h0ZM256.4,141.2c-1.2.4-2.2,1.6-2.4,2.7-.3,1.3.4,2.7,1.6,3.5,1.2.8,2.5.8,3.7,0,2-1.3,2.2-3.7.6-5.3-.9-.9-2.3-1.3-3.4-.9h0ZM270.5,141.2c-1.2.4-2.2,1.6-2.4,2.7-.3,1.3.4,2.7,1.6,3.5,1.2.8,2.5.8,3.7,0,2-1.3,2.2-3.7.6-5.3-.9-.9-2.3-1.3-3.4-.9h0ZM143.6,155.3c-1.2.4-2.2,1.6-2.4,2.7-.5,2.3,1.8,4.5,4.1,4.1,1.7-.4,3-2.1,2.9-3.7-.1-1.2-1-2.3-2.1-2.9-.7-.3-1.7-.4-2.4-.2h0ZM157.7,155.3c-1.7.6-2.8,2.4-2.4,4,.3,1.3,1.5,2.5,2.8,2.8,2.1.5,4.4-1.6,4.1-3.7-.1-1.2-1-2.3-2.1-2.9-.7-.3-1.7-.4-2.4-.2h0ZM171.8,155.3c-1.2.4-2.2,1.6-2.4,2.7-.5,2.3,1.8,4.5,4.1,4.1,1.7-.4,3-2.1,2.9-3.7-.1-1.2-1-2.3-2.1-2.9-.7-.3-1.7-.4-2.4-.2h0ZM185.9,155.3c-1.2.4-2.2,1.6-2.4,2.7-.5,2.3,1.8,4.5,4.1,4.1,1.7-.4,3-2.1,2.9-3.7-.1-1.2-1-2.3-2.1-2.9-.7-.3-1.7-.4-2.4-.2h0ZM200,155.3c-1.2.4-2.2,1.6-2.4,2.7-.5,2.3,1.8,4.5,4.1,4.1,1.7-.4,3-2.1,2.9-3.7-.1-1.2-1-2.3-2.1-2.9-.7-.3-1.7-.4-2.4-.2h0ZM214.1,155.3c-1.2.4-2.2,1.6-2.4,2.7-.5,2.3,1.8,4.5,4.1,4.1,1.7-.4,3-2.1,2.9-3.7-.1-1.2-1-2.3-2.1-2.9-.7-.3-1.7-.4-2.4-.2h0ZM228.2,155.3c-1.2.4-2.2,1.6-2.4,2.7-.5,2.3,1.8,4.5,4.1,4.1,1.7-.4,3-2.1,2.9-3.7-.1-1.2-1-2.3-2.1-2.9-.7-.3-1.7-.4-2.4-.2h0ZM242.3,155.3c-1.2.4-2.2,1.6-2.4,2.7-.5,2.3,1.8,4.5,4.1,4.1,1.7-.4,3-2.1,2.9-3.7-.1-1.2-1-2.3-2.1-2.9-.7-.3-1.7-.4-2.4-.2h0ZM256.4,155.3c-1.2.4-2.2,1.6-2.4,2.7-.3,1.3.4,2.7,1.6,3.5,1.2.8,2.5.8,3.7,0,2-1.3,2.2-3.7.6-5.3-.9-.9-2.3-1.3-3.4-.9h0ZM270.5,155.3c-1.2.4-2.2,1.6-2.4,2.7-.3,1.3.4,2.7,1.6,3.5,1.2.8,2.5.8,3.7,0,2-1.3,2.2-3.7.6-5.3-.9-.9-2.3-1.3-3.4-.9h0ZM143.6,169.4c-1.2.4-2.2,1.6-2.4,2.7-.5,2.3,1.8,4.5,4.1,4.1,1.7-.4,3-2.1,2.9-3.7-.1-1.2-1-2.3-2.1-2.9-.7-.3-1.7-.4-2.4-.2h0ZM157.7,169.4c-1.2.4-2.2,1.6-2.4,2.7-.5,2.3,1.8,4.5,4.1,4.1,1.7-.4,3-2.1,2.9-3.7-.1-1.2-1-2.3-2.1-2.9-.7-.3-1.7-.4-2.4-.2h0ZM171.8,169.4c-1.2.4-2.2,1.6-2.4,2.7-.5,2.3,1.8,4.5,4.1,4.1,1.7-.4,3-2.1,2.9-3.7-.1-1.2-1-2.3-2.1-2.9-.7-.3-1.7-.4-2.4-.2h0ZM185.9,169.4c-1.2.4-2.2,1.6-2.4,2.7-.5,2.3,1.8,4.5,4.1,4.1,1.7-.4,3-2.1,2.9-3.7-.1-1.2-1-2.3-2.1-2.9-.7-.3-1.7-.4-2.4-.2h0ZM200,169.4c-1.2.4-2.2,1.6-2.4,2.7-.5,2.3,1.8,4.5,4.1,4.1,1.7-.4,3-2.1,2.9-3.7-.1-1.2-1-2.3-2.1-2.9-.7-.3-1.7-.4-2.4-.2h0ZM214.1,169.4c-1.2.4-2.2,1.6-2.4,2.7-.5,2.3,1.8,4.5,4.1,4.1,1.7-.4,3-2.1,2.9-3.7-.1-1.2-1-2.3-2.1-2.9-.7-.3-1.7-.4-2.4-.2h0ZM228.2,169.4c-1.2.4-2.2,1.6-2.4,2.7-.5,2.3,1.8,4.5,4.1,4.1,1.7-.4,3-2.1,2.9-3.7-.1-1.2-1-2.3-2.1-2.9-.7-.3-1.7-.4-2.4-.2h0ZM242.3,169.4c-1.2.4-2.2,1.6-2.4,2.7-.5,2.3,1.8,4.5,4.1,4.1,1.7-.4,3-2.1,2.9-3.7-.1-1.2-1-2.3-2.1-2.9-.7-.3-1.7-.4-2.4-.2h0ZM256.4,169.4c-1.2.4-2.2,1.6-2.4,2.7-.5,2.3,1.8,4.5,4.1,4.1,1.7-.4,3-2.1,2.9-3.7-.1-1.2-1-2.3-2.1-2.9-.7-.3-1.7-.4-2.4-.2h0ZM270.5,169.4c-1.2.4-2.2,1.6-2.4,2.7-.5,2.3,1.8,4.5,4.1,4.1,1.7-.4,3-2.1,2.9-3.7-.1-1.2-1-2.3-2.1-2.9-.7-.3-1.7-.4-2.4-.2h0ZM143.6,183.5c-1.2.4-2.2,1.6-2.4,2.7-.5,2.3,1.8,4.5,4.1,4.1,1.7-.4,3-2.1,2.9-3.7-.1-1.2-1-2.3-2.1-2.9-.7-.3-1.7-.4-2.4-.2h0ZM157.7,183.5c-1.2.4-2.2,1.6-2.4,2.7-.5,2.3,1.8,4.5,4.1,4.1,1.7-.4,3-2.1,2.9-3.7-.1-1.2-1-2.3-2.1-2.9-.7-.3-1.7-.4-2.4-.2h0ZM171.8,183.5c-1.2.4-2.2,1.6-2.4,2.7-.5,2.3,1.8,4.5,4.1,4.1,1.7-.4,3-2.1,2.9-3.7-.1-1.2-1-2.3-2.1-2.9-.7-.3-1.7-.4-2.4-.2h0ZM185.9,183.5c-1.2.4-2.2,1.6-2.4,2.7-.5,2.3,1.8,4.5,4.1,4.1,1.7-.4,3-2.1,2.9-3.7-.1-1.2-1-2.3-2.1-2.9-.7-.3-1.7-.4-2.4-.2h0ZM200,183.5c-1.2.4-2.2,1.6-2.4,2.7-.5,2.3,1.8,4.5,4.1,4.1,1.7-.4,3-2.1,2.9-3.7-.1-1.2-1-2.3-2.1-2.9-.7-.3-1.7-.4-2.4-.2h0ZM214.1,183.5c-1.2.4-2.2,1.6-2.4,2.7-.5,2.3,1.8,4.5,4.1,4.1,1.7-.4,3-2.1,2.9-3.7-.1-1.2-1-2.3-2.1-2.9-.7-.3-1.7-.4-2.4-.2h0ZM228.2,183.5c-1.2.4-2.2,1.6-2.4,2.7-.5,2.3,1.8,4.5,4.1,4.1,1.7-.4,3-2.1,2.9-3.7-.1-1.2-1-2.3-2.1-2.9-.7-.3-1.7-.4-2.4-.2h0ZM242.3,183.5c-1.2.4-2.2,1.6-2.4,2.7-.5,2.3,1.8,4.5,4.1,4.1,1.7-.4,3-2.1,2.9-3.7-.1-1.2-1-2.3-2.1-2.9-.7-.3-1.7-.4-2.4-.2h0ZM256.4,183.5c-1.2.4-2.2,1.6-2.4,2.7-.5,2.3,1.8,4.5,4.1,4.1,1.7-.4,3-2.1,2.9-3.7-.1-1.2-1-2.3-2.1-2.9-.7-.3-1.7-.4-2.4-.2h0ZM270.5,183.5c-1.2.4-2.2,1.6-2.4,2.7-.5,2.3,1.8,4.5,4.1,4.1,1.7-.4,3-2.1,2.9-3.7-.1-1.2-1-2.3-2.1-2.9-.7-.3-1.7-.4-2.4-.2h0ZM143.6,197.6c-1.2.4-2.2,1.6-2.4,2.7-.5,2.3,1.8,4.5,4.1,4.1,1.7-.4,3-2.1,2.9-3.7-.1-1.2-1-2.3-2.1-2.9-.7-.3-1.7-.4-2.4-.2h0ZM157.7,197.6c-1.2.4-2.2,1.6-2.4,2.7-.5,2.3,1.8,4.5,4.1,4.1,1.7-.4,3-2.1,2.9-3.7-.1-1.2-1-2.3-2.1-2.9-.7-.3-1.7-.4-2.4-.2h0ZM171.8,197.6c-1.2.4-2.2,1.6-2.4,2.7-.5,2.3,1.8,4.5,4.1,4.1,1.7-.4,3-2.1,2.9-3.7-.1-1.2-1-2.3-2.1-2.9-.7-.3-1.7-.4-2.4-.2h0ZM185.9,197.6c-1.2.4-2.2,1.6-2.4,2.7-.5,2.3,1.8,4.5,4.1,4.1,1.7-.4,3-2.1,2.9-3.7-.1-1.2-1-2.3-2.1-2.9-.7-.3-1.7-.4-2.4-.2h0ZM200,197.6c-1.2.4-2.2,1.6-2.4,2.7-.5,2.3,1.8,4.5,4.1,4.1,1.7-.4,3-2.1,2.9-3.7-.1-1.2-1-2.3-2.1-2.9-.7-.3-1.7-.4-2.4-.2h0ZM214.1,197.6c-1.2.4-2.2,1.6-2.4,2.7-.5,2.3,1.8,4.5,4.1,4.1,1.7-.4,3-2.1,2.9-3.7-.1-1.2-1-2.3-2.1-2.9-.7-.3-1.7-.4-2.4-.2h0ZM228.2,197.6c-1.2.4-2.2,1.6-2.4,2.7-.5,2.3,1.8,4.5,4.1,4.1,1.7-.4,3-2.1,2.9-3.7-.1-1.2-1-2.3-2.1-2.9-.7-.3-1.7-.4-2.4-.2h0ZM242.3,197.6c-1.2.4-2.2,1.6-2.4,2.7-.5,2.3,1.8,4.5,4.1,4.1,1.7-.4,3-2.1,2.9-3.7-.1-1.2-1-2.3-2.1-2.9-.7-.3-1.7-.4-2.4-.2h0ZM256.4,197.6c-1.2.4-2.2,1.6-2.4,2.7-.5,2.3,1.8,4.5,4.1,4.1,1.7-.4,3-2.1,2.9-3.7-.1-1.2-1-2.3-2.1-2.9-.7-.3-1.7-.4-2.4-.2h0ZM270.5,197.6c-1.2.4-2.2,1.6-2.4,2.7-.5,2.3,1.8,4.5,4.1,4.1,1.7-.4,3-2.1,2.9-3.7-.1-1.2-1-2.3-2.1-2.9-.7-.3-1.7-.4-2.4-.2h0ZM143.6,211.7c-1.2.4-2.2,1.6-2.4,2.7-.5,2.3,1.8,4.5,4.1,4.1,1.7-.4,3-2.1,2.9-3.7-.1-1.2-1-2.3-2.1-2.9-.7-.3-1.7-.4-2.4-.2h0ZM157.7,211.7c-1.2.4-2.2,1.6-2.4,2.7-.5,2.3,1.8,4.5,4.1,4.1,1.7-.4,3-2.1,2.9-3.7-.1-1.2-1-2.3-2.1-2.9-.7-.3-1.7-.4-2.4-.2h0ZM171.8,211.7c-1.2.4-2.2,1.6-2.4,2.7-.5,2.3,1.8,4.5,4.1,4.1,1.7-.4,3-2.1,2.9-3.7-.1-1.2-1-2.3-2.1-2.9-.7-.3-1.7-.4-2.4-.2h0ZM185.9,211.7c-1.2.4-2.2,1.6-2.4,2.7-.5,2.3,1.8,4.5,4.1,4.1,1.7-.4,3-2.1,2.9-3.7-.1-1.2-1-2.3-2.1-2.9-.7-.3-1.7-.4-2.4-.2h0ZM200,211.7c-1.2.4-2.2,1.6-2.4,2.7-.5,2.3,1.8,4.5,4.1,4.1,1.7-.4,3-2.1,2.9-3.7-.1-1.2-1-2.3-2.1-2.9-.7-.3-1.7-.4-2.4-.2h0ZM214.1,211.7c-1.2.4-2.2,1.6-2.4,2.7-.5,2.3,1.8,4.5,4.1,4.1,1.7-.4,3-2.1,2.9-3.7-.1-1.2-1-2.3-2.1-2.9-.7-.3-1.7-.4-2.4-.2h0ZM228.2,211.7c-1.2.4-2.2,1.6-2.4,2.7-.5,2.3,1.8,4.5,4.1,4.1,1.7-.4,3-2.1,2.9-3.7-.1-1.2-1-2.3-2.1-2.9-.7-.3-1.7-.4-2.4-.2h0ZM242.3,211.7c-1.2.4-2.2,1.6-2.4,2.7-.5,2.3,1.8,4.5,4.1,4.1,1.7-.4,3-2.1,2.9-3.7-.1-1.2-1-2.3-2.1-2.9-.7-.3-1.7-.4-2.4-.2h0ZM256.4,211.7c-1.2.4-2.2,1.6-2.4,2.7-.5,2.3,1.8,4.5,4.1,4.1,1.7-.4,3-2.1,2.9-3.7-.1-1.2-1-2.3-2.1-2.9-.7-.3-1.7-.4-2.4-.2h0ZM270.5,211.7c-1.2.4-2.2,1.6-2.4,2.7-.5,2.3,1.8,4.5,4.1,4.1,1.7-.4,3-2.1,2.9-3.7-.1-1.2-1-2.3-2.1-2.9-.7-.3-1.7-.4-2.4-.2h0ZM143.6,225.8c-1.2.4-2.2,1.6-2.4,2.7-.5,2.3,1.8,4.5,4.1,4.1,1.7-.4,3-2.1,2.9-3.7-.1-1.2-1-2.3-2.1-2.9-.7-.3-1.7-.4-2.4-.2h0ZM157.7,225.8c-1.2.4-2.2,1.6-2.4,2.7-.5,2.3,1.8,4.5,4.1,4.1,1.7-.4,3-2.1,2.9-3.7-.1-1.2-1-2.3-2.1-2.9-.7-.3-1.7-.4-2.4-.2h0ZM171.8,225.8c-1.2.4-2.2,1.6-2.4,2.7-.3,1.3.4,2.7,1.6,3.5,1.2.8,2.5.8,3.7,0,2-1.3,2.2-3.7.6-5.3-.9-.9-2.3-1.3-3.4-.9h0ZM185.9,225.8c-1.2.4-2.2,1.6-2.4,2.7-.3,1.3.4,2.7,1.6,3.5,1.2.8,2.5.8,3.7,0,2-1.3,2.2-3.7.6-5.3-.9-.9-2.3-1.3-3.4-.9h0ZM200,225.8c-1.7.6-2.8,2.4-2.4,4,.3,1.3,1.5,2.5,2.8,2.8,2.1.5,4.3-1.6,4.1-3.7-.1-1.2-1-2.3-2.1-2.9-.7-.3-1.7-.4-2.4-.2h0ZM214.1,225.8c-1.7.6-2.8,2.4-2.4,4,.3,1.3,1.5,2.5,2.8,2.8,2.1.5,4.3-1.6,4.1-3.7-.1-1.2-1-2.3-2.1-2.9-.7-.3-1.7-.4-2.4-.2h0ZM228.2,225.8c-1.7.6-2.8,2.4-2.4,4,.3,1.3,1.5,2.5,2.8,2.8,2.1.5,4.3-1.6,4.1-3.7-.1-1.2-1-2.3-2.1-2.9-.7-.3-1.7-.4-2.4-.2h0ZM242.3,225.8c-1.7.6-2.8,2.4-2.4,4,.3,1.3,1.5,2.5,2.8,2.8,2.1.5,4.3-1.6,4.1-3.7-.1-1.2-1-2.3-2.1-2.9-.7-.3-1.7-.4-2.4-.2h0ZM256.4,225.8c-1.2.4-2.2,1.6-2.4,2.7-.5,2.3,1.8,4.5,4.1,4.1,1.7-.4,3-2.1,2.9-3.7-.1-1.2-1-2.3-2.1-2.9-.7-.3-1.7-.4-2.4-.2h0ZM270.5,225.8c-1.2.4-2.2,1.6-2.4,2.7-.5,2.3,1.8,4.5,4.1,4.1,1.7-.4,3-2.1,2.9-3.7-.1-1.2-1-2.3-2.1-2.9-.7-.3-1.7-.4-2.4-.2h0ZM143.6,239.9c-1.2.4-2.2,1.6-2.4,2.7-.5,2.3,1.8,4.5,4.1,4.1,1.7-.4,3-2.1,2.9-3.7-.1-1.2-1-2.3-2.1-2.9-.7-.3-1.7-.4-2.4-.2h0ZM157.7,239.9c-1.2.4-2.2,1.6-2.4,2.7-.5,2.3,1.8,4.5,4.1,4.1,1.7-.4,3-2.1,2.9-3.7-.1-1.2-1-2.3-2.1-2.9-.7-.3-1.7-.4-2.4-.2h0ZM171.8,239.9c-1.2.4-2.2,1.6-2.4,2.7-.3,1.3.4,2.7,1.6,3.5,1.2.8,2.5.8,3.7,0,2-1.3,2.2-3.7.6-5.3-.9-.9-2.3-1.3-3.4-.9h0ZM185.9,239.9c-1.2.4-2.2,1.6-2.4,2.7-.3,1.3.4,2.7,1.6,3.5,1.2.8,2.5.8,3.7,0,2-1.3,2.2-3.7.6-5.3-.9-.9-2.3-1.3-3.4-.9h0ZM200,239.9c-1.7.6-2.8,2.4-2.4,4,.3,1.3,1.5,2.5,2.8,2.8,2.1.5,4.3-1.6,4.1-3.7-.1-1.2-1-2.3-2.1-2.9-.7-.3-1.7-.4-2.4-.2h0ZM214.1,239.9c-1.7.6-2.8,2.4-2.4,4,.3,1.3,1.5,2.5,2.8,2.8,2.1.5,4.3-1.6,4.1-3.7-.1-1.2-1-2.3-2.1-2.9-.7-.3-1.7-.4-2.4-.2h0ZM228.2,239.9c-1.7.6-2.8,2.4-2.4,4,.3,1.3,1.5,2.5,2.8,2.8,2.1.5,4.3-1.6,4.1-3.7-.1-1.2-1-2.3-2.1-2.9-.7-.3-1.7-.4-2.4-.2h0ZM242.3,239.9c-1.7.6-2.8,2.4-2.4,4,.3,1.3,1.5,2.5,2.8,2.8,2.1.5,4.3-1.6,4.1-3.7-.1-1.2-1-2.3-2.1-2.9-.7-.3-1.7-.4-2.4-.2h0ZM256.4,239.9c-1.2.4-2.2,1.6-2.4,2.7-.5,2.3,1.8,4.5,4.1,4.1,1.7-.4,3-2.1,2.9-3.7-.1-1.2-1-2.3-2.1-2.9-.7-.3-1.7-.4-2.4-.2h0ZM270.5,239.9c-1.2.4-2.2,1.6-2.4,2.7-.5,2.3,1.8,4.5,4.1,4.1,1.7-.4,3-2.1,2.9-3.7-.1-1.2-1-2.3-2.1-2.9-.7-.3-1.7-.4-2.4-.2h0ZM143.6,254c-1.2.4-2.2,1.6-2.4,2.7-.5,2.3,1.8,4.5,4.1,4.1,1.7-.4,3-2.1,2.9-3.7-.1-1.2-1-2.3-2.1-2.9-.7-.3-1.7-.4-2.4-.2h0ZM157.7,254c-1.2.4-2.2,1.6-2.4,2.7-.5,2.3,1.8,4.5,4.1,4.1,1.7-.4,3-2.1,2.9-3.7-.1-1.2-1-2.3-2.1-2.9-.7-.3-1.7-.4-2.4-.2h0ZM171.8,254c-1.2.4-2.2,1.6-2.4,2.7-.3,1.3.4,2.7,1.6,3.5,1.2.8,2.5.8,3.7,0,2-1.3,2.2-3.7.6-5.3-.9-.9-2.3-1.3-3.4-.9h0ZM185.9,254c-1.2.4-2.2,1.6-2.4,2.7-.3,1.3.4,2.7,1.6,3.5,1.2.8,2.5.8,3.7,0,2-1.3,2.2-3.7.6-5.3-.9-.9-2.3-1.3-3.4-.9h0ZM200,254c-1.2.4-2.2,1.6-2.4,2.7-.5,2.3,1.8,4.5,4.1,4.1,1.7-.4,3-2.1,2.9-3.7-.1-1.2-1-2.3-2.1-2.9-.7-.3-1.7-.4-2.4-.2h0ZM214.1,254c-1.2.4-2.2,1.6-2.4,2.7-.5,2.3,1.8,4.5,4.1,4.1,1.7-.4,3-2.1,2.9-3.7-.1-1.2-1-2.3-2.1-2.9-.7-.3-1.7-.4-2.4-.2h0ZM228.2,254c-1.2.4-2.2,1.6-2.4,2.7-.5,2.3,1.8,4.5,4.1,4.1,1.7-.4,3-2.1,2.9-3.7-.1-1.2-1-2.3-2.1-2.9-.7-.3-1.7-.4-2.4-.2h0ZM242.3,254c-1.2.4-2.2,1.6-2.4,2.7-.5,2.3,1.8,4.5,4.1,4.1,1.7-.4,3-2.1,2.9-3.7-.1-1.2-1-2.3-2.1-2.9-.7-.3-1.7-.4-2.4-.2h0ZM256.4,254c-1.2.4-2.2,1.6-2.4,2.7-.5,2.3,1.8,4.5,4.1,4.1,1.7-.4,3-2.1,2.9-3.7-.1-1.2-1-2.3-2.1-2.9-.7-.3-1.7-.4-2.4-.2h0ZM270.5,254c-1.2.4-2.2,1.6-2.4,2.7-.5,2.3,1.8,4.5,4.1,4.1,1.7-.4,3-2.1,2.9-3.7-.1-1.2-1-2.3-2.1-2.9-.7-.3-1.7-.4-2.4-.2h0ZM143.6,268.1c-1.2.4-2.2,1.6-2.4,2.7-.5,2.3,1.8,4.5,4.1,4.1,1.7-.4,3-2.1,2.9-3.7-.1-1.2-1-2.3-2.1-2.9-.7-.3-1.7-.4-2.4-.2h0ZM157.7,268.1c-1.2.4-2.2,1.6-2.4,2.7-.5,2.3,1.8,4.5,4.1,4.1,1.7-.4,3-2.1,2.9-3.7-.1-1.2-1-2.3-2.1-2.9-.7-.3-1.7-.4-2.4-.2h0ZM171.8,268.1c-1.2.4-2.2,1.6-2.4,2.7-.5,2.3,1.8,4.5,4.1,4.1,1.7-.4,3-2.1,2.9-3.7-.1-1.2-1-2.3-2.1-2.9-.7-.3-1.7-.4-2.4-.2h0ZM185.9,268.1c-1.2.4-2.2,1.6-2.4,2.7-.5,2.3,1.8,4.5,4.1,4.1,1.7-.4,3-2.1,2.9-3.7-.1-1.2-1-2.3-2.1-2.9-.7-.3-1.7-.4-2.4-.2h0ZM200,268.1c-1.2.4-2.2,1.6-2.4,2.7-.5,2.3,1.8,4.5,4.1,4.1,1.7-.4,3-2.1,2.9-3.7-.1-1.2-1-2.3-2.1-2.9-.7-.3-1.7-.4-2.4-.2h0ZM214.1,268.1c-1.2.4-2.2,1.6-2.4,2.7-.5,2.3,1.8,4.5,4.1,4.1,1.7-.4,3-2.1,2.9-3.7-.1-1.2-1-2.3-2.1-2.9-.7-.3-1.7-.4-2.4-.2h0ZM228.2,268.1c-1.2.4-2.2,1.6-2.4,2.7-.5,2.3,1.8,4.5,4.1,4.1,1.7-.4,3-2.1,2.9-3.7-.1-1.2-1-2.3-2.1-2.9-.7-.3-1.7-.4-2.4-.2h0ZM242.3,268.1c-1.2.4-2.2,1.6-2.4,2.7-.5,2.3,1.8,4.5,4.1,4.1,1.7-.4,3-2.1,2.9-3.7-.1-1.2-1-2.3-2.1-2.9-.7-.3-1.7-.4-2.4-.2h0ZM256.4,268.1c-1.2.4-2.2,1.6-2.4,2.7-.5,2.3,1.8,4.5,4.1,4.1,1.7-.4,3-2.1,2.9-3.7-.1-1.2-1-2.3-2.1-2.9-.7-.3-1.7-.4-2.4-.2h0ZM270.5,268.1c-1.2.4-2.2,1.6-2.4,2.7-.5,2.3,1.8,4.5,4.1,4.1,1.7-.4,3-2.1,2.9-3.7-.1-1.2-1-2.3-2.1-2.9-.7-.3-1.7-.4-2.4-.2h0Z"/>
</svg>