<?xml version="1.0" encoding="UTF-8"?>
<svg xmlns="http://www.w3.org/2000/svg" width="164.9px" height="37.9px" fill="none" stroke="none" viewBox="0 0 164.9 37.9">
	<rect fill="#FFF" width="164.9" height="37.9" />
	<path fill="#0071bb" d="M0,0v37.9h164.9V0H0z M162,35H2.9V2.9H162V35z" />
 	<path fill="#0071bb" d="M4.19,3.93h3.11v29.47h-3.11V3.93ZM15.93,33.41h11.07l-11.07-13.56v13.56ZM15.93,3.93v11.97L27,3.93h-11.07ZM23.49,17.72l14.33,15.68h3.37V3.93h-4.14l-13.56,13.79ZM49.83,27.35h14.82v6.05h3.9V3.93h-18.72v23.42ZM77.19,33.41h7.46V3.93h-7.46v29.47ZM92.45,33.41h6.58l-6.58-19.57v19.57ZM96.35,3.93l6.73,20.51,6.63-20.51h-13.36ZM113.47,33.41V13.84l-6.69,19.57h6.69ZM121.27,3.93v29.47h3.75l12.14-29.47h-15.9ZM141.32,11.71l-3.13,9.99h6.2l-3.07-9.99ZM136.1,27.58l-2.15,5.83h14.68l-2.1-5.83h-10.44ZM145.41,3.93l12.2,29.47h3.11V3.93h-15.3Z"/>
</svg>