<?xml version="1.0" encoding="UTF-8"?>
<svg xmlns="http://www.w3.org/2000/svg" viewBox="0 0 75 75">
  <path fill="#77C1F2" d="M37.55,25.97c-6.27-.09-11.47,5.04-11.59,11.43-.12,6.4,5.05,11.58,11.69,11.73,5.98.13,11.37-5.3,11.43-11.49.05-6.4-5.06-11.58-11.53-11.67ZM44.72,36.3l-7.36,7.35c-.27.28-.63.44-1.02.46h-.08c-.42,0-.82-.16-1.12-.46l-4.94-4.93c-.29-.3-.46-.69-.46-1.12s.17-.81.46-1.11l1.46-1.45c.31-.31.71-.46,1.11-.46s.81.15,1.12.46l2.36,2.36,4.79-4.78c.59-.6,1.63-.6,2.22,0l1.46,1.45c.3.3.46.7.46,1.12s-.16.82-.46,1.11ZM37.55,25.97c-6.27-.09-11.47,5.04-11.59,11.43-.12,6.4,5.05,11.58,11.69,11.73,5.98.13,11.37-5.3,11.43-11.49.05-6.4-5.06-11.58-11.53-11.67ZM44.72,36.3l-7.36,7.35c-.27.28-.63.44-1.02.46h-.08c-.42,0-.82-.16-1.12-.46l-4.94-4.93c-.29-.3-.46-.69-.46-1.12s.17-.81.46-1.11l1.46-1.45c.31-.31.71-.46,1.11-.46s.81.15,1.12.46l2.36,2.36,4.79-4.78c.59-.6,1.63-.6,2.22,0l1.46,1.45c.3.3.46.7.46,1.12s-.16.82-.46,1.11ZM63.15,12.61c-8.97-1.64-16.8-5.01-23.26-10.03-1.41-1.1-3.37-1.1-4.78,0-6.46,5.02-14.29,8.39-23.26,10.03-.94.17-1.74.66-2.31,1.34-.57.69-.91,1.57-.91,2.52v27.17c0,14.6,10.58,23.85,26.96,29.29.61.21,1.26.31,1.91.31s1.3-.1,1.91-.31c16.38-5.43,26.96-14.69,26.96-29.29v-27.17c0-1.9-1.35-3.53-3.22-3.86ZM58.35,39.81c.02,1.1-.54,1.66-1.55,1.85-.92.17-1.84.4-2.77.46-1.09.07-1.61.59-1.99,1.58-.29.77-.29,1.3.22,1.93.66.84,1.24,1.75,1.86,2.62.61.86.54,1.66-.21,2.41-1.11,1.1-2.2,2.21-3.32,3.31-.7.7-1.47.77-2.28.2-.74-.51-1.55-.94-2.19-1.54-.96-.92-1.93-.99-2.96-.26-.38.27-.78.7-.89,1.13-.29,1.07-.43,2.19-.61,3.29-.17,1.02-.7,1.62-1.78,1.62-1.61.01-3.22.01-4.83,0-.95-.01-1.47-.56-1.66-1.44-.2-.97-.36-1.93-.53-2.9-.36-2.12-2-2.79-3.78-1.54-.81.57-1.61,1.14-2.42,1.69-.78.52-1.52.44-2.19-.22-1.14-1.13-2.27-2.27-3.41-3.41-.72-.72-.71-1.5-.16-2.3.66-.96,1.35-1.89,2-2.85.74-1.08-.04-2.94-1.32-3.18-1.01-.2-2.01-.4-3.03-.53-1.35-.18-1.96-.88-1.9-2.25.06-1.34.04-2.68,0-4.02-.03-1.21.44-1.96,1.71-2.11.89-.11,1.76-.35,2.64-.45.97-.1,1.57-.43,1.95-1.45.33-.88.3-1.48-.26-2.18-.67-.84-1.38-1.69-1.8-2.66-.25-.57-.25-1.58.11-2.02,1.05-1.32,2.33-2.46,3.56-3.64.27-.26.68-.36,1.16-.6.57.34,1.14.65,1.7,1,.56.36,1.1.75,1.65,1.13,1.82,1.27,3.42.61,3.79-1.56.15-.88.36-1.75.48-2.63.16-1.2.86-1.7,2.01-1.7,1.47-.01,2.95-.01,4.42,0,1.1.01,1.73.56,1.9,1.66.15.97.41,1.93.5,2.91.08.85.43,1.28,1.23,1.67,1.01.49,1.71.37,2.52-.32.72-.6,1.53-1.08,2.31-1.61.85-.58,1.64-.56,2.4.21,1.06,1.09,2.13,2.16,3.22,3.22.76.74.86,1.53.25,2.39-.53.77-1.08,1.54-1.61,2.31-1.34,1.92-.63,3.51,1.72,3.89.84.13,1.66.35,2.5.45,1.14.15,1.64.76,1.63,1.89-.02,1.52-.03,3.04,0,4.55ZM37.55,25.97c-6.27-.09-11.47,5.04-11.59,11.43-.12,6.4,5.05,11.58,11.69,11.73,5.98.13,11.37-5.3,11.43-11.49.05-6.4-5.06-11.58-11.53-11.67ZM44.72,36.3l-7.36,7.35c-.27.28-.63.44-1.02.46h-.08c-.42,0-.82-.16-1.12-.46l-4.94-4.93c-.29-.3-.46-.69-.46-1.12s.17-.81.46-1.11l1.46-1.45c.31-.31.71-.46,1.11-.46s.81.15,1.12.46l2.36,2.36,4.79-4.78c.59-.6,1.63-.6,2.22,0l1.46,1.45c.3.3.46.7.46,1.12s-.16.82-.46,1.11Z"/>
</svg>