<?xml version="1.0" encoding="UTF-8"?>
<svg xmlns="http://www.w3.org/2000/svg" viewBox="0 0 75 75">
  <path fill="#77C1F2" d="M25.81,46.09c-3.38-.05-6.17,2.7-6.24,6.14-.06,3.44,2.72,6.24,6.29,6.31,3.2.08,6.11-2.84,6.14-6.18.04-3.44-2.72-6.22-6.19-6.27ZM25.81,46.09c-3.38-.05-6.17,2.7-6.24,6.14-.06,3.44,2.72,6.24,6.29,6.31,3.2.08,6.11-2.84,6.14-6.18.04-3.44-2.72-6.22-6.19-6.27ZM25.81,46.09c-3.38-.05-6.17,2.7-6.24,6.14-.06,3.44,2.72,6.24,6.29,6.31,3.2.08,6.11-2.84,6.14-6.18.04-3.44-2.72-6.22-6.19-6.27ZM25.81,46.09c-3.38-.05-6.17,2.7-6.24,6.14-.06,3.44,2.72,6.24,6.29,6.31,3.2.08,6.11-2.84,6.14-6.18.04-3.44-2.72-6.22-6.19-6.27ZM45.04,49.73c5.81,0,11.63.01,17.45-.01.55,0,.88.13,1.18.66.7,1.25,2.21,1.78,3.55,1.38,1.38-.41,2.3-1.63,2.3-3.06s-.93-2.63-2.25-3.02c-1.39-.42-2.89.11-3.61,1.38-.27.47-.55.61-1.06.61-5.87-.02-11.74-.02-17.6-.02h-.74v-4.16c1.81,0,3.56-.04,5.31.01.72.03,1.21-.22,1.69-.72,1.47-1.52,2.97-3.01,4.49-4.48.24-.23.65-.41.98-.42,1.64-.04,3.27,0,4.91-.03.45-.01.66.15.88.53.58,1,1.47,1.57,2.64,1.62,1.53.05,2.92-1.04,3.21-2.48.31-1.56-.48-3.05-1.92-3.64-1.43-.58-3.09-.06-3.87,1.32-.29.5-.6.62-1.13.61-1.82-.02-3.65-.03-5.48.01-.38,0-.84.19-1.11.45-1.62,1.55-3.17,3.16-4.78,4.7-.26.25-.7.42-1.06.44-1.37.05-2.74-.01-4.11.03-.59.02-.72-.2-.72-.74.02-2.86.01-5.72.01-8.58v-.93c-.49.22-1,.34-1.51.34h-.01c-2.05-.01-3.86-1.85-3.87-3.96,0-.06,0-.13.01-.2-1.24-.09-2.02-.9-2.3-1.25-.49-.6-.75-1.33-.75-2.07-.83-.08-1.6-.5-2.19-1.24-.51-.66-.78-1.43-.76-2.21-1.03-.06-1.85-.64-2.38-1.38-.7-.97-.72-1.89-.62-2.48.17-.98.78-1.84,1.81-2.55l.43-.3c1.24-.87,2.52-1.77,4.03-2.35l.65-.25c1.51-.6,2.81-1.12,5.25-1.24h.06s.06-.01.06-.01c.64.01,1.23.03,1.8.07.02-1.25.02-4.53-.37-5.26-.9-1.65-2.39-2.35-4.26-2.35-8.24.01-16.49.01-24.73.01-1.03,0-2.07-.02-3.1,0-2.62.06-4.51,1.8-4.68,4.42-.1,1.63-.06,3.27-.08,4.9,0,.34-.02.57-.43.7-.58.17-.77.67-.77,1.25,0,2.69,0,5.38-.01,8.08,0,.63.25,1.07.85,1.38.2.1.33.51.32.78,0,.27-.14.67-.35.78-.54.28-.81.67-.81,1.25-.01,2.76-.03,5.53.03,8.29,0,.38.32.94.64,1.09.49.22.53.5.53.93-.01,4.54,0,9.08,0,13.63,0,5.69.03,11.39-.01,17.09-.03,3.27,2,5.47,5.36,5.42,9.15-.13,18.31-.04,27.47-.05,2.5,0,4.47-1.79,4.62-4.3.1-1.67.05-3.36.07-5.04v-.87c1.69,0,3.25-.03,4.81.02.36,0,.79.19,1.05.44,1.59,1.53,3.15,3.1,4.7,4.68.36.37.71.55,1.25.54,1.87-.04,3.75,0,5.62-.02.41,0,.6.15.85.48.39.52.87,1.06,1.44,1.34,1.58.79,3.42.08,4.19-1.52.72-1.49.1-3.34-1.4-4.13-1.52-.81-3.38-.29-4.23,1.24-.22.38-.43.54-.88.53-1.61-.03-3.22.01-4.83-.03-.34-.01-.75-.17-1-.4-1.22-1.16-2.47-2.3-3.56-3.57-1.08-1.28-2.28-1.94-3.97-1.65-.56.09-1.15.01-1.72.01h-2.28v-4.13c.13-.03.22-.05.31-.05,2.6,0,5.19-.02,7.79.01.21,0,.44.25.63.42.53.47.97,1.1,1.57,1.41,1.51.76,3.28.06,4.08-1.49.76-1.46.22-3.27-1.24-4.12-1.45-.86-3.33-.45-4.23,1-.32.51-.63.71-1.24.7-2.29-.04-4.57-.01-6.85-.02-.26,0-.52-.02-.82-.03v-4.17h.8ZM66.35,47.64c.6,0,1.11.52,1.1,1.1-.01.57-.57,1.09-1.14,1.07-.56-.03-1.06-.53-1.06-1.08,0-.6.5-1.1,1.1-1.09ZM65.28,35.73c.59,0,1.09.52,1.08,1.12-.02.61-.51,1.07-1.13,1.05-.61-.02-1.08-.53-1.04-1.14.03-.56.53-1.04,1.09-1.03ZM39.01,53.76c.03.69-.33,1.05-.98,1.16-.58.12-1.17.26-1.76.3-.68.05-1.01.38-1.26,1-.18.5-.18.83.14,1.23.43.53.79,1.11,1.18,1.67.39.54.34,1.05-.13,1.52-.71.7-1.4,1.41-2.1,2.12-.45.43-.93.48-1.47.12-.46-.32-.97-.6-1.38-.99-.61-.57-1.23-.62-1.88-.16-.25.18-.49.45-.56.72-.19.69-.28,1.39-.39,2.09-.11.65-.45,1.03-1.14,1.03-1.01,0-2.04,0-3.06,0-.6,0-.93-.36-1.05-.91-.13-.62-.24-1.23-.34-1.84-.24-1.35-1.27-1.78-2.41-.98-.51.36-1.02.72-1.54,1.07-.48.33-.95.27-1.38-.14-.73-.72-1.44-1.44-2.17-2.16-.45-.46-.44-.96-.1-1.47.42-.6.85-1.2,1.28-1.81.46-.68-.04-1.86-.84-2.02-.65-.13-1.29-.26-1.94-.34-.85-.1-1.24-.55-1.2-1.43.03-.85.02-1.7,0-2.55-.02-.77.27-1.24,1.09-1.35.56-.06,1.11-.21,1.67-.28.62-.06,1-.27,1.24-.92.2-.56.18-.93-.17-1.38-.42-.53-.88-1.08-1.14-1.68-.16-.37-.16-1.02.07-1.3.68-.83,1.48-1.56,2.26-2.3.16-.17.44-.23.73-.38.37.21.73.4,1.09.62.35.24.7.49,1.05.72,1.16.81,2.16.39,2.4-.99.09-.55.23-1.11.31-1.66.1-.77.55-1.09,1.27-1.09h2.81c.7.01,1.1.37,1.21,1.06.09.62.26,1.23.32,1.85.04.54.27.81.78,1.06.63.31,1.08.24,1.6-.2.45-.39.97-.7,1.47-1.03.54-.37,1.04-.35,1.52.14.68.69,1.36,1.37,2.05,2.05.48.47.54.96.16,1.51-.34.49-.68.98-1.03,1.46-.85,1.23-.4,2.24,1.1,2.47.53.1,1.05.23,1.59.3.72.09,1.03.48,1.03,1.19-.01.97-.02,1.94-.01,2.9ZM65.33,65.79c.58.05,1.03.56,1,1.12-.04.59-.59,1.08-1.17,1.05-.61-.04-1.04-.55-1-1.18.04-.62.54-1.04,1.17-.99ZM54.72,54.71c.07-.27.25-.51.49-.65.03-.02.06-.04.09-.05.06-.04.12-.06.18-.08.04-.02.08-.03.12-.03.06,0,.12-.02.18-.02.61,0,1.08.49,1.08,1.11-.01.63-.48,1.08-1.11,1.06-.22-.01-.42-.08-.59-.2-.06-.04-.11-.09-.16-.14-.04-.04-.08-.08-.1-.12-.03-.03-.05-.06-.06-.09l-.02-.02s-.05-.09-.06-.14c-.05-.11-.07-.23-.07-.35-.01-.03-.01-.05-.01-.07,0-.07.02-.14.04-.21ZM25.81,46.09c-3.38-.05-6.17,2.7-6.24,6.14-.06,3.44,2.72,6.24,6.29,6.31,3.2.08,6.11-2.84,6.14-6.18.04-3.44-2.72-6.22-6.19-6.27ZM25.81,46.09c-3.38-.05-6.17,2.7-6.24,6.14-.06,3.44,2.72,6.24,6.29,6.31,3.2.08,6.11-2.84,6.14-6.18.04-3.44-2.72-6.22-6.19-6.27ZM25.81,46.09c-3.38-.05-6.17,2.7-6.24,6.14-.06,3.44,2.72,6.24,6.29,6.31,3.2.08,6.11-2.84,6.14-6.18.04-3.44-2.72-6.22-6.19-6.27ZM25.81,46.09c-3.38-.05-6.17,2.7-6.24,6.14-.06,3.44,2.72,6.24,6.29,6.31,3.2.08,6.11-2.84,6.14-6.18.04-3.44-2.72-6.22-6.19-6.27ZM25.81,46.09c-3.38-.05-6.17,2.7-6.24,6.14-.06,3.44,2.72,6.24,6.29,6.31,3.2.08,6.11-2.84,6.14-6.18.04-3.44-2.72-6.22-6.19-6.27Z"/>
  <path fill="#77C1F2" d="M42.1,12.04c-2.42.12-3.45.65-5.28,1.36-1.44.56-2.75,1.53-4.04,2.43-1.06.74-1.23,1.49-.71,2.22.53.73,1.26.73,2.29,0,.13-.09.26-.19.39-.29,5.05-3.8,10.63-3.84,15.72-.11.39.29.77.69,1.21.78.46.09,1.2.04,1.43-.26.28-.36.45-1.13.18-1.59-.18-.32-.43-.55-.7-.78-2.91-2.38-5.04-3.69-10.47-3.74ZM42.26,16.64c-.6.12-1.8.17-2.83.62-1.42.62-2.76,1.49-4.04,2.38-.63.44-.77,1.23-.23,1.92.55.69,1.23.59,1.89.16.46-.3.9-.64,1.36-.94,2.12-1.39,4.41-1.85,6.79-.91,1.09.43,2.06,1.18,3.07,1.8.82.5,1.53.46,1.98-.14.45-.6.34-1.38-.35-2.01-2.01-1.84-4.38-2.82-7.64-2.89ZM47.29,24.76c.28-.41.18-1.27-.48-1.85-.85-.74-1.82-1.25-2.96-1.56-2-.56-3.81.17-5.39,1.45-.78.63-.89,1.45-.39,2.07.59.73,1.29.59,1.99.18.14-.08.27-.18.4-.27,1.46-1.03,2.9-1.1,4.38-.02.41.3,1.73,1.06,2.45.01ZM42.63,25.68c-.95.03-1.82.93-1.81,1.88,0,1,.92,1.96,1.88,1.96.94,0,1.9-.99,1.89-1.96,0-.96-1-1.91-1.95-1.88Z"/>
</svg>