<?xml version="1.0" encoding="UTF-8"?>
<svg xmlns="http://www.w3.org/2000/svg" viewBox="0 0 75 75">
  <path fill="#77C1F2" d="M32.39,62.31c.48-6.4,3.95-11.97,9.34-16.4,4.31-3.54,9.48-5.61,15.12-6.56,5.2-.87,10.5-1.22,15.76-1.8.11-.01.24.03.45.05-.67,3.59-1.29,7.17-2.02,10.73-.78,3.76-1.9,7.44-3.76,10.92-3.65,6.84-9.82,10.89-17.87,12.79-2.13.5-4.31.81-6.64,1.24.2-10.25,5.85-17.54,14.53-23.32l-.22-.3c-1.81.78-3.72,1.43-5.43,2.36-5.45,2.96-9.1,7.32-10.96,12.67-1.69,4.84-2.69,8.84-2.69,8.84,0,0-6-6-5.61-11.22Z"/>
  <path fill="#77C1F2" d="M29.3,12.74c-7.37,1.2-12.53,5.42-15.17,12.36-2.65,6.95-1.52,13.55,3.17,19.31,2.75,3.37,4.89,6.88,5.47,11.25.05.39.49.8.85,1.08,1.68,1.28,3.42,2.48,5.07,3.79.46.36.85.81,1.26,1.29v-.02c1.59-7.66,4.92-13.49,10.2-17.82,3.09-2.54,6.69-4.47,10.75-5.76.32-1.58.82-3.15.96-4.75,1.02-12.5-10.12-22.76-22.56-20.73ZM39.72,34.36c-2.56,4.14-5.13,8.27-7.7,12.41-.1.17-.18.38-.32.49-.22.17-.49.28-.73.41-.11-.25-.32-.5-.32-.75-.01-2.45.02-4.9.03-7.36.01-1.28,0-2.56,0-3.94-1.66,0-3.28.01-4.89,0-1.23-.01-1.37-.27-.72-1.33,2.62-4.23,5.24-8.45,7.89-12.65.19-.31.61-.49.93-.72.11.35.32.7.32,1.05,0,3.32-.05,6.63-.07,9.94,0,.3.02.59.04,1.01,1.6,0,3.14-.02,4.69.02.43.01.85.23,1.27.36-.14.35-.22.74-.42,1.06Z"/>
  <path fill="#77C1F2" d="M33.78,5.58c0,.89,0,1.79,0,2.68,0,.71-.28,1.26-1.07,1.28-.78.02-1.11-.5-1.11-1.23,0-1.88,0-3.77,0-5.65,0-.69.34-1.18,1.05-1.19.77-.01,1.11.51,1.13,1.23.02.96,0,1.92,0,2.88h0Z"/>
  <path fill="#77C1F2" d="M5.96,33.22c-.92,0-1.85.01-2.77,0-.71-.01-1.25-.31-1.25-1.1,0-.79.51-1.09,1.24-1.09,1.85,0,3.7-.01,5.54,0,.71,0,1.25.28,1.25,1.08,0,.8-.53,1.09-1.23,1.11-.92.03-1.85,0-2.77,0Z"/>
  <path fill="#77C1F2" d="M58.81,33.22c-.89,0-1.78.02-2.67,0-.71-.02-1.24-.31-1.25-1.1,0-.79.51-1.09,1.24-1.09,1.85,0,3.7,0,5.54,0,.71,0,1.25.3,1.25,1.09,0,.78-.53,1.09-1.24,1.1-.96.02-1.91,0-2.87,0Z"/>
  <path fill="#77C1F2" d="M16.88,6.32c.14-.17.34-.66.66-.74.36-.1,1.03.03,1.2.29,1.13,1.75,2.2,3.54,3.2,5.37.15.28-.04.98-.31,1.18-.27.2-1.08.19-1.21-.01-1.22-1.85-2.34-3.75-3.48-5.65-.03-.05-.02-.13-.05-.44Z"/>
  <path fill="#77C1F2" d="M59.25,17.57c-.15.18-.35.59-.68.78-1.64.98-3.31,1.9-4.98,2.83-.59.33-1.17.32-1.52-.35-.33-.63-.11-1.16.49-1.5,1.66-.95,3.31-1.9,5-2.81.8-.43,1.66.02,1.7,1.05Z"/>
  <path fill="#77C1F2" d="M7.18,16.17c.39.15.61.21.81.32,1.6.93,3.2,1.86,4.77,2.82.75.46.92,1.25.34,1.7-.31.24-.96.36-1.28.19-1.68-.91-3.34-1.88-4.94-2.93-.34-.23-.59-.87-.56-1.29.02-.3.58-.57.86-.81Z"/>
  <path fill="#77C1F2" d="M48.52,6.32c-.17.46-.25.78-.41,1.06-.86,1.52-1.74,3.03-2.61,4.55-.34.59-.78,1.08-1.5.68-.69-.38-.79-1-.38-1.7.93-1.6,1.81-3.23,2.8-4.78.22-.35.84-.58,1.28-.59.27,0,.55.51.82.78Z"/>
</svg>